G04 #@! TF.GenerationSoftware,KiCad,Pcbnew,(5.1.4)-1*
G04 #@! TF.CreationDate,2020-08-06T19:14:10-07:00*
G04 #@! TF.ProjectId,ai03-pcb-guide,61693033-2d70-4636-922d-67756964652e,rev?*
G04 #@! TF.SameCoordinates,Original*
G04 #@! TF.FileFunction,Soldermask,Bot*
G04 #@! TF.FilePolarity,Negative*
%FSLAX46Y46*%
G04 Gerber Fmt 4.6, Leading zero omitted, Abs format (unit mm)*
G04 Created by KiCad (PCBNEW (5.1.4)-1) date 2020-08-06 19:14:10*
%MOMM*%
%LPD*%
G04 APERTURE LIST*
%ADD10C,0.100000*%
G04 APERTURE END LIST*
D10*
G36*
X46088000Y-80905250D02*
G01*
X44186000Y-80905250D01*
X44186000Y-79703250D01*
X46088000Y-79703250D01*
X46088000Y-80905250D01*
X46088000Y-80905250D01*
G37*
G36*
X39888000Y-80905250D02*
G01*
X37986000Y-80905250D01*
X37986000Y-79703250D01*
X39888000Y-79703250D01*
X39888000Y-80905250D01*
X39888000Y-80905250D01*
G37*
G36*
X97488500Y-78413500D02*
G01*
X96186500Y-78413500D01*
X96186500Y-77411500D01*
X97488500Y-77411500D01*
X97488500Y-78413500D01*
X97488500Y-78413500D01*
G37*
G36*
X116538500Y-78413500D02*
G01*
X115236500Y-78413500D01*
X115236500Y-77411500D01*
X116538500Y-77411500D01*
X116538500Y-78413500D01*
X116538500Y-78413500D01*
G37*
G36*
X89496474Y-74233684D02*
G01*
X89714474Y-74323983D01*
X89868623Y-74387833D01*
X90203548Y-74611623D01*
X90488377Y-74896452D01*
X90712167Y-75231377D01*
X90744562Y-75309586D01*
X90866316Y-75603526D01*
X90944900Y-75998594D01*
X90944900Y-76401406D01*
X90866316Y-76796474D01*
X90815451Y-76919272D01*
X90712167Y-77168623D01*
X90488377Y-77503548D01*
X90203548Y-77788377D01*
X89868623Y-78012167D01*
X89714474Y-78076017D01*
X89496474Y-78166316D01*
X89101406Y-78244900D01*
X88698594Y-78244900D01*
X88303526Y-78166316D01*
X88085526Y-78076017D01*
X87931377Y-78012167D01*
X87596452Y-77788377D01*
X87311623Y-77503548D01*
X87087833Y-77168623D01*
X86984549Y-76919272D01*
X86933684Y-76796474D01*
X86855100Y-76401406D01*
X86855100Y-75998594D01*
X86933684Y-75603526D01*
X87055438Y-75309586D01*
X87087833Y-75231377D01*
X87311623Y-74896452D01*
X87596452Y-74611623D01*
X87931377Y-74387833D01*
X88085526Y-74323983D01*
X88303526Y-74233684D01*
X88698594Y-74155100D01*
X89101406Y-74155100D01*
X89496474Y-74233684D01*
X89496474Y-74233684D01*
G37*
G36*
X108546474Y-74233684D02*
G01*
X108764474Y-74323983D01*
X108918623Y-74387833D01*
X109253548Y-74611623D01*
X109538377Y-74896452D01*
X109762167Y-75231377D01*
X109794562Y-75309586D01*
X109916316Y-75603526D01*
X109994900Y-75998594D01*
X109994900Y-76401406D01*
X109916316Y-76796474D01*
X109865451Y-76919272D01*
X109762167Y-77168623D01*
X109538377Y-77503548D01*
X109253548Y-77788377D01*
X108918623Y-78012167D01*
X108764474Y-78076017D01*
X108546474Y-78166316D01*
X108151406Y-78244900D01*
X107748594Y-78244900D01*
X107353526Y-78166316D01*
X107135526Y-78076017D01*
X106981377Y-78012167D01*
X106646452Y-77788377D01*
X106361623Y-77503548D01*
X106137833Y-77168623D01*
X106034549Y-76919272D01*
X105983684Y-76796474D01*
X105905100Y-76401406D01*
X105905100Y-75998594D01*
X105983684Y-75603526D01*
X106105438Y-75309586D01*
X106137833Y-75231377D01*
X106361623Y-74896452D01*
X106646452Y-74611623D01*
X106981377Y-74387833D01*
X107135526Y-74323983D01*
X107353526Y-74233684D01*
X107748594Y-74155100D01*
X108151406Y-74155100D01*
X108546474Y-74233684D01*
X108546474Y-74233684D01*
G37*
G36*
X46088000Y-77205250D02*
G01*
X44186000Y-77205250D01*
X44186000Y-76003250D01*
X46088000Y-76003250D01*
X46088000Y-77205250D01*
X46088000Y-77205250D01*
G37*
G36*
X39888000Y-77205250D02*
G01*
X37986000Y-77205250D01*
X37986000Y-76003250D01*
X39888000Y-76003250D01*
X39888000Y-77205250D01*
X39888000Y-77205250D01*
G37*
G36*
X48329468Y-75707565D02*
G01*
X48368138Y-75719296D01*
X48403777Y-75738346D01*
X48435017Y-75763983D01*
X48460654Y-75795223D01*
X48479704Y-75830862D01*
X48491435Y-75869532D01*
X48496000Y-75915888D01*
X48496000Y-76992112D01*
X48491435Y-77038468D01*
X48479704Y-77077138D01*
X48460654Y-77112777D01*
X48435017Y-77144017D01*
X48403777Y-77169654D01*
X48368138Y-77188704D01*
X48329468Y-77200435D01*
X48283112Y-77205000D01*
X47631888Y-77205000D01*
X47585532Y-77200435D01*
X47546862Y-77188704D01*
X47511223Y-77169654D01*
X47479983Y-77144017D01*
X47454346Y-77112777D01*
X47435296Y-77077138D01*
X47423565Y-77038468D01*
X47419000Y-76992112D01*
X47419000Y-75915888D01*
X47423565Y-75869532D01*
X47435296Y-75830862D01*
X47454346Y-75795223D01*
X47479983Y-75763983D01*
X47511223Y-75738346D01*
X47546862Y-75719296D01*
X47585532Y-75707565D01*
X47631888Y-75703000D01*
X48283112Y-75703000D01*
X48329468Y-75707565D01*
X48329468Y-75707565D01*
G37*
G36*
X50204468Y-75707565D02*
G01*
X50243138Y-75719296D01*
X50278777Y-75738346D01*
X50310017Y-75763983D01*
X50335654Y-75795223D01*
X50354704Y-75830862D01*
X50366435Y-75869532D01*
X50371000Y-75915888D01*
X50371000Y-76992112D01*
X50366435Y-77038468D01*
X50354704Y-77077138D01*
X50335654Y-77112777D01*
X50310017Y-77144017D01*
X50278777Y-77169654D01*
X50243138Y-77188704D01*
X50204468Y-77200435D01*
X50158112Y-77205000D01*
X49506888Y-77205000D01*
X49460532Y-77200435D01*
X49421862Y-77188704D01*
X49386223Y-77169654D01*
X49354983Y-77144017D01*
X49329346Y-77112777D01*
X49310296Y-77077138D01*
X49298565Y-77038468D01*
X49294000Y-76992112D01*
X49294000Y-75915888D01*
X49298565Y-75869532D01*
X49310296Y-75830862D01*
X49329346Y-75795223D01*
X49354983Y-75763983D01*
X49386223Y-75738346D01*
X49421862Y-75719296D01*
X49460532Y-75707565D01*
X49506888Y-75703000D01*
X50158112Y-75703000D01*
X50204468Y-75707565D01*
X50204468Y-75707565D01*
G37*
G36*
X84090104Y-75309585D02*
G01*
X84258626Y-75379389D01*
X84410291Y-75480728D01*
X84539272Y-75609709D01*
X84640611Y-75761374D01*
X84710415Y-75929896D01*
X84746000Y-76108797D01*
X84746000Y-76291203D01*
X84710415Y-76470104D01*
X84640611Y-76638626D01*
X84539272Y-76790291D01*
X84410291Y-76919272D01*
X84258626Y-77020611D01*
X84090104Y-77090415D01*
X83911203Y-77126000D01*
X83728797Y-77126000D01*
X83549896Y-77090415D01*
X83381374Y-77020611D01*
X83229709Y-76919272D01*
X83100728Y-76790291D01*
X82999389Y-76638626D01*
X82929585Y-76470104D01*
X82894000Y-76291203D01*
X82894000Y-76108797D01*
X82929585Y-75929896D01*
X82999389Y-75761374D01*
X83100728Y-75609709D01*
X83229709Y-75480728D01*
X83381374Y-75379389D01*
X83549896Y-75309585D01*
X83728797Y-75274000D01*
X83911203Y-75274000D01*
X84090104Y-75309585D01*
X84090104Y-75309585D01*
G37*
G36*
X94250104Y-75309585D02*
G01*
X94418626Y-75379389D01*
X94570291Y-75480728D01*
X94699272Y-75609709D01*
X94800611Y-75761374D01*
X94870415Y-75929896D01*
X94906000Y-76108797D01*
X94906000Y-76291203D01*
X94870415Y-76470104D01*
X94800611Y-76638626D01*
X94699272Y-76790291D01*
X94570291Y-76919272D01*
X94418626Y-77020611D01*
X94250104Y-77090415D01*
X94071203Y-77126000D01*
X93888797Y-77126000D01*
X93709896Y-77090415D01*
X93541374Y-77020611D01*
X93389709Y-76919272D01*
X93260728Y-76790291D01*
X93159389Y-76638626D01*
X93089585Y-76470104D01*
X93054000Y-76291203D01*
X93054000Y-76108797D01*
X93089585Y-75929896D01*
X93159389Y-75761374D01*
X93260728Y-75609709D01*
X93389709Y-75480728D01*
X93541374Y-75379389D01*
X93709896Y-75309585D01*
X93888797Y-75274000D01*
X94071203Y-75274000D01*
X94250104Y-75309585D01*
X94250104Y-75309585D01*
G37*
G36*
X103140104Y-75309585D02*
G01*
X103308626Y-75379389D01*
X103460291Y-75480728D01*
X103589272Y-75609709D01*
X103690611Y-75761374D01*
X103760415Y-75929896D01*
X103796000Y-76108797D01*
X103796000Y-76291203D01*
X103760415Y-76470104D01*
X103690611Y-76638626D01*
X103589272Y-76790291D01*
X103460291Y-76919272D01*
X103308626Y-77020611D01*
X103140104Y-77090415D01*
X102961203Y-77126000D01*
X102778797Y-77126000D01*
X102599896Y-77090415D01*
X102431374Y-77020611D01*
X102279709Y-76919272D01*
X102150728Y-76790291D01*
X102049389Y-76638626D01*
X101979585Y-76470104D01*
X101944000Y-76291203D01*
X101944000Y-76108797D01*
X101979585Y-75929896D01*
X102049389Y-75761374D01*
X102150728Y-75609709D01*
X102279709Y-75480728D01*
X102431374Y-75379389D01*
X102599896Y-75309585D01*
X102778797Y-75274000D01*
X102961203Y-75274000D01*
X103140104Y-75309585D01*
X103140104Y-75309585D01*
G37*
G36*
X113300104Y-75309585D02*
G01*
X113468626Y-75379389D01*
X113620291Y-75480728D01*
X113749272Y-75609709D01*
X113850611Y-75761374D01*
X113920415Y-75929896D01*
X113956000Y-76108797D01*
X113956000Y-76291203D01*
X113920415Y-76470104D01*
X113850611Y-76638626D01*
X113749272Y-76790291D01*
X113620291Y-76919272D01*
X113468626Y-77020611D01*
X113300104Y-77090415D01*
X113121203Y-77126000D01*
X112938797Y-77126000D01*
X112759896Y-77090415D01*
X112591374Y-77020611D01*
X112439709Y-76919272D01*
X112310728Y-76790291D01*
X112209389Y-76638626D01*
X112139585Y-76470104D01*
X112104000Y-76291203D01*
X112104000Y-76108797D01*
X112139585Y-75929896D01*
X112209389Y-75761374D01*
X112310728Y-75609709D01*
X112439709Y-75480728D01*
X112591374Y-75379389D01*
X112759896Y-75309585D01*
X112938797Y-75274000D01*
X113121203Y-75274000D01*
X113300104Y-75309585D01*
X113300104Y-75309585D01*
G37*
G36*
X69902718Y-75326565D02*
G01*
X69941388Y-75338296D01*
X69977027Y-75357346D01*
X70008267Y-75382983D01*
X70033904Y-75414223D01*
X70052954Y-75449862D01*
X70064685Y-75488532D01*
X70069250Y-75534888D01*
X70069250Y-76611112D01*
X70064685Y-76657468D01*
X70052954Y-76696138D01*
X70033904Y-76731777D01*
X70008267Y-76763017D01*
X69977027Y-76788654D01*
X69941388Y-76807704D01*
X69902718Y-76819435D01*
X69856362Y-76824000D01*
X69205138Y-76824000D01*
X69158782Y-76819435D01*
X69120112Y-76807704D01*
X69084473Y-76788654D01*
X69053233Y-76763017D01*
X69027596Y-76731777D01*
X69008546Y-76696138D01*
X68996815Y-76657468D01*
X68992250Y-76611112D01*
X68992250Y-75534888D01*
X68996815Y-75488532D01*
X69008546Y-75449862D01*
X69027596Y-75414223D01*
X69053233Y-75382983D01*
X69084473Y-75357346D01*
X69120112Y-75338296D01*
X69158782Y-75326565D01*
X69205138Y-75322000D01*
X69856362Y-75322000D01*
X69902718Y-75326565D01*
X69902718Y-75326565D01*
G37*
G36*
X64127718Y-75326565D02*
G01*
X64166388Y-75338296D01*
X64202027Y-75357346D01*
X64233267Y-75382983D01*
X64258904Y-75414223D01*
X64277954Y-75449862D01*
X64289685Y-75488532D01*
X64294250Y-75534888D01*
X64294250Y-76611112D01*
X64289685Y-76657468D01*
X64277954Y-76696138D01*
X64258904Y-76731777D01*
X64233267Y-76763017D01*
X64202027Y-76788654D01*
X64166388Y-76807704D01*
X64127718Y-76819435D01*
X64081362Y-76824000D01*
X63430138Y-76824000D01*
X63383782Y-76819435D01*
X63345112Y-76807704D01*
X63309473Y-76788654D01*
X63278233Y-76763017D01*
X63252596Y-76731777D01*
X63233546Y-76696138D01*
X63221815Y-76657468D01*
X63217250Y-76611112D01*
X63217250Y-75534888D01*
X63221815Y-75488532D01*
X63233546Y-75449862D01*
X63252596Y-75414223D01*
X63278233Y-75382983D01*
X63309473Y-75357346D01*
X63345112Y-75338296D01*
X63383782Y-75326565D01*
X63430138Y-75322000D01*
X64081362Y-75322000D01*
X64127718Y-75326565D01*
X64127718Y-75326565D01*
G37*
G36*
X62252718Y-75326565D02*
G01*
X62291388Y-75338296D01*
X62327027Y-75357346D01*
X62358267Y-75382983D01*
X62383904Y-75414223D01*
X62402954Y-75449862D01*
X62414685Y-75488532D01*
X62419250Y-75534888D01*
X62419250Y-76611112D01*
X62414685Y-76657468D01*
X62402954Y-76696138D01*
X62383904Y-76731777D01*
X62358267Y-76763017D01*
X62327027Y-76788654D01*
X62291388Y-76807704D01*
X62252718Y-76819435D01*
X62206362Y-76824000D01*
X61555138Y-76824000D01*
X61508782Y-76819435D01*
X61470112Y-76807704D01*
X61434473Y-76788654D01*
X61403233Y-76763017D01*
X61377596Y-76731777D01*
X61358546Y-76696138D01*
X61346815Y-76657468D01*
X61342250Y-76611112D01*
X61342250Y-75534888D01*
X61346815Y-75488532D01*
X61358546Y-75449862D01*
X61377596Y-75414223D01*
X61403233Y-75382983D01*
X61434473Y-75357346D01*
X61470112Y-75338296D01*
X61508782Y-75326565D01*
X61555138Y-75322000D01*
X62206362Y-75322000D01*
X62252718Y-75326565D01*
X62252718Y-75326565D01*
G37*
G36*
X71777718Y-75326565D02*
G01*
X71816388Y-75338296D01*
X71852027Y-75357346D01*
X71883267Y-75382983D01*
X71908904Y-75414223D01*
X71927954Y-75449862D01*
X71939685Y-75488532D01*
X71944250Y-75534888D01*
X71944250Y-76611112D01*
X71939685Y-76657468D01*
X71927954Y-76696138D01*
X71908904Y-76731777D01*
X71883267Y-76763017D01*
X71852027Y-76788654D01*
X71816388Y-76807704D01*
X71777718Y-76819435D01*
X71731362Y-76824000D01*
X71080138Y-76824000D01*
X71033782Y-76819435D01*
X70995112Y-76807704D01*
X70959473Y-76788654D01*
X70928233Y-76763017D01*
X70902596Y-76731777D01*
X70883546Y-76696138D01*
X70871815Y-76657468D01*
X70867250Y-76611112D01*
X70867250Y-75534888D01*
X70871815Y-75488532D01*
X70883546Y-75449862D01*
X70902596Y-75414223D01*
X70928233Y-75382983D01*
X70959473Y-75357346D01*
X70995112Y-75338296D01*
X71033782Y-75326565D01*
X71080138Y-75322000D01*
X71731362Y-75322000D01*
X71777718Y-75326565D01*
X71777718Y-75326565D01*
G37*
G36*
X116538500Y-75113500D02*
G01*
X115236500Y-75113500D01*
X115236500Y-74111500D01*
X116538500Y-74111500D01*
X116538500Y-75113500D01*
X116538500Y-75113500D01*
G37*
G36*
X97488500Y-75113500D02*
G01*
X96186500Y-75113500D01*
X96186500Y-74111500D01*
X97488500Y-74111500D01*
X97488500Y-75113500D01*
X97488500Y-75113500D01*
G37*
G36*
X105473205Y-71023881D02*
G01*
X105478645Y-71024000D01*
X105565828Y-71024000D01*
X105582097Y-71027236D01*
X105600956Y-71029515D01*
X105617532Y-71030246D01*
X105702223Y-71051010D01*
X105707518Y-71052184D01*
X105793027Y-71069193D01*
X105808362Y-71075545D01*
X105826401Y-71081455D01*
X105842521Y-71085407D01*
X105921504Y-71122280D01*
X105926494Y-71124477D01*
X106007045Y-71157842D01*
X106020841Y-71167060D01*
X106037393Y-71176382D01*
X106052426Y-71183400D01*
X106122694Y-71234971D01*
X106127192Y-71238122D01*
X106199656Y-71286541D01*
X106211383Y-71298268D01*
X106225809Y-71310648D01*
X106239179Y-71320461D01*
X106239180Y-71320462D01*
X106244666Y-71326454D01*
X106272748Y-71357127D01*
X106298021Y-71384733D01*
X106301829Y-71388714D01*
X106363459Y-71450344D01*
X106372674Y-71464135D01*
X106384396Y-71479078D01*
X106395605Y-71491321D01*
X106440799Y-71565874D01*
X106443746Y-71570501D01*
X106492158Y-71642955D01*
X106498505Y-71658277D01*
X106507092Y-71675231D01*
X106515691Y-71689417D01*
X106545478Y-71771368D01*
X106547452Y-71776448D01*
X106580807Y-71856973D01*
X106580807Y-71856974D01*
X106584041Y-71873233D01*
X106589158Y-71891542D01*
X106594825Y-71907134D01*
X106608055Y-71993345D01*
X106609001Y-71998713D01*
X106626000Y-72084173D01*
X106626000Y-72100752D01*
X106627444Y-72119692D01*
X106629963Y-72136104D01*
X106626120Y-72223249D01*
X106626000Y-72228689D01*
X106626000Y-72315825D01*
X106622766Y-72332083D01*
X106620488Y-72350941D01*
X106619756Y-72367531D01*
X106598988Y-72452237D01*
X106597812Y-72457537D01*
X106580807Y-72543027D01*
X106574457Y-72558357D01*
X106568549Y-72576393D01*
X106564595Y-72592520D01*
X106527711Y-72671526D01*
X106525511Y-72676523D01*
X106492158Y-72757045D01*
X106482944Y-72770835D01*
X106473622Y-72787387D01*
X106466602Y-72802424D01*
X106415011Y-72872720D01*
X106411866Y-72877210D01*
X106363461Y-72949654D01*
X106306460Y-73006655D01*
X106301811Y-73011563D01*
X105870311Y-73492470D01*
X104976723Y-74488376D01*
X104848679Y-74605602D01*
X104749631Y-74665645D01*
X104650583Y-74725689D01*
X104432866Y-74804823D01*
X104203895Y-74839961D01*
X103972470Y-74829754D01*
X103747481Y-74774593D01*
X103642727Y-74725689D01*
X103537579Y-74676602D01*
X103440838Y-74605602D01*
X103350823Y-74539539D01*
X103276394Y-74458241D01*
X103194398Y-74368679D01*
X103112564Y-74233685D01*
X103074311Y-74170583D01*
X102995177Y-73952866D01*
X102960039Y-73723895D01*
X102970246Y-73492470D01*
X103025407Y-73267481D01*
X103076972Y-73157028D01*
X103123398Y-73057580D01*
X103123400Y-73057577D01*
X103226114Y-72917622D01*
X103981245Y-72076027D01*
X104512787Y-71483621D01*
X104523681Y-71469589D01*
X104536539Y-71450346D01*
X104593573Y-71393312D01*
X104598223Y-71388403D01*
X104613278Y-71371624D01*
X104634701Y-71352011D01*
X104638682Y-71348203D01*
X104700346Y-71286539D01*
X104714143Y-71277320D01*
X104729102Y-71265585D01*
X104741321Y-71254398D01*
X104773385Y-71234961D01*
X104815830Y-71209231D01*
X104820421Y-71206308D01*
X104892955Y-71157842D01*
X104908300Y-71151486D01*
X104925248Y-71142901D01*
X104939416Y-71134312D01*
X104939417Y-71134312D01*
X104939418Y-71134311D01*
X105021312Y-71104545D01*
X105026410Y-71102563D01*
X105106973Y-71069193D01*
X105123252Y-71065955D01*
X105141542Y-71060844D01*
X105157135Y-71055177D01*
X105243300Y-71041954D01*
X105248663Y-71041009D01*
X105334173Y-71024000D01*
X105350766Y-71024000D01*
X105369709Y-71022555D01*
X105386106Y-71020039D01*
X105473205Y-71023881D01*
X105473205Y-71023881D01*
G37*
G36*
X86423205Y-71023881D02*
G01*
X86428645Y-71024000D01*
X86515828Y-71024000D01*
X86532097Y-71027236D01*
X86550956Y-71029515D01*
X86567532Y-71030246D01*
X86652223Y-71051010D01*
X86657518Y-71052184D01*
X86743027Y-71069193D01*
X86758362Y-71075545D01*
X86776401Y-71081455D01*
X86792521Y-71085407D01*
X86871504Y-71122280D01*
X86876494Y-71124477D01*
X86957045Y-71157842D01*
X86970841Y-71167060D01*
X86987393Y-71176382D01*
X87002426Y-71183400D01*
X87072694Y-71234971D01*
X87077192Y-71238122D01*
X87149656Y-71286541D01*
X87161383Y-71298268D01*
X87175809Y-71310648D01*
X87189179Y-71320461D01*
X87189180Y-71320462D01*
X87194666Y-71326454D01*
X87222748Y-71357127D01*
X87248021Y-71384733D01*
X87251829Y-71388714D01*
X87313459Y-71450344D01*
X87322674Y-71464135D01*
X87334396Y-71479078D01*
X87345605Y-71491321D01*
X87390799Y-71565874D01*
X87393746Y-71570501D01*
X87442158Y-71642955D01*
X87448505Y-71658277D01*
X87457092Y-71675231D01*
X87465691Y-71689417D01*
X87495478Y-71771368D01*
X87497452Y-71776448D01*
X87530807Y-71856973D01*
X87530807Y-71856974D01*
X87534041Y-71873233D01*
X87539158Y-71891542D01*
X87544825Y-71907134D01*
X87558055Y-71993345D01*
X87559001Y-71998713D01*
X87576000Y-72084173D01*
X87576000Y-72100752D01*
X87577444Y-72119692D01*
X87579963Y-72136104D01*
X87576120Y-72223249D01*
X87576000Y-72228689D01*
X87576000Y-72315825D01*
X87572766Y-72332083D01*
X87570488Y-72350941D01*
X87569756Y-72367531D01*
X87548988Y-72452237D01*
X87547812Y-72457537D01*
X87530807Y-72543027D01*
X87524457Y-72558357D01*
X87518549Y-72576393D01*
X87514595Y-72592520D01*
X87477711Y-72671526D01*
X87475511Y-72676523D01*
X87442158Y-72757045D01*
X87432944Y-72770835D01*
X87423622Y-72787387D01*
X87416602Y-72802424D01*
X87365011Y-72872720D01*
X87361866Y-72877210D01*
X87313461Y-72949654D01*
X87256460Y-73006655D01*
X87251811Y-73011563D01*
X86820311Y-73492470D01*
X85926723Y-74488376D01*
X85798679Y-74605602D01*
X85699631Y-74665645D01*
X85600583Y-74725689D01*
X85382866Y-74804823D01*
X85153895Y-74839961D01*
X84922470Y-74829754D01*
X84697481Y-74774593D01*
X84592727Y-74725689D01*
X84487579Y-74676602D01*
X84390838Y-74605602D01*
X84300823Y-74539539D01*
X84226394Y-74458241D01*
X84144398Y-74368679D01*
X84062564Y-74233685D01*
X84024311Y-74170583D01*
X83945177Y-73952866D01*
X83910039Y-73723895D01*
X83920246Y-73492470D01*
X83975407Y-73267481D01*
X84026972Y-73157028D01*
X84073398Y-73057580D01*
X84073400Y-73057577D01*
X84176114Y-72917622D01*
X84931245Y-72076027D01*
X85462787Y-71483621D01*
X85473681Y-71469589D01*
X85486539Y-71450346D01*
X85543573Y-71393312D01*
X85548223Y-71388403D01*
X85563278Y-71371624D01*
X85584701Y-71352011D01*
X85588682Y-71348203D01*
X85650346Y-71286539D01*
X85664143Y-71277320D01*
X85679102Y-71265585D01*
X85691321Y-71254398D01*
X85723385Y-71234961D01*
X85765830Y-71209231D01*
X85770421Y-71206308D01*
X85842955Y-71157842D01*
X85858300Y-71151486D01*
X85875248Y-71142901D01*
X85889416Y-71134312D01*
X85889417Y-71134312D01*
X85889418Y-71134311D01*
X85971312Y-71104545D01*
X85976410Y-71102563D01*
X86056973Y-71069193D01*
X86073252Y-71065955D01*
X86091542Y-71060844D01*
X86107135Y-71055177D01*
X86193300Y-71041954D01*
X86198663Y-71041009D01*
X86284173Y-71024000D01*
X86300766Y-71024000D01*
X86319709Y-71022555D01*
X86336106Y-71020039D01*
X86423205Y-71023881D01*
X86423205Y-71023881D01*
G37*
G36*
X70620000Y-72922000D02*
G01*
X61968000Y-72922000D01*
X61968000Y-71320000D01*
X70620000Y-71320000D01*
X70620000Y-72922000D01*
X70620000Y-72922000D01*
G37*
G36*
X91528127Y-69942261D02*
G01*
X91548900Y-69944000D01*
X91555827Y-69944000D01*
X91650754Y-69962882D01*
X91654348Y-69963542D01*
X91749730Y-69979624D01*
X91756203Y-69982085D01*
X91776228Y-69987841D01*
X91783027Y-69989193D01*
X91845414Y-70015034D01*
X91872443Y-70026230D01*
X91875844Y-70027581D01*
X91966255Y-70061961D01*
X91972127Y-70065640D01*
X91990636Y-70075187D01*
X91997045Y-70077842D01*
X92077563Y-70131642D01*
X92080554Y-70133578D01*
X92162557Y-70184959D01*
X92167584Y-70189700D01*
X92183896Y-70202691D01*
X92189652Y-70206537D01*
X92258110Y-70274995D01*
X92260689Y-70277499D01*
X92331090Y-70343889D01*
X92335095Y-70349519D01*
X92348559Y-70365444D01*
X92353459Y-70370344D01*
X92387659Y-70421527D01*
X92407244Y-70450839D01*
X92409291Y-70453807D01*
X92465380Y-70532645D01*
X92468214Y-70538958D01*
X92478308Y-70557193D01*
X92482158Y-70562955D01*
X92519220Y-70652430D01*
X92520624Y-70655685D01*
X92560265Y-70743973D01*
X92561815Y-70750725D01*
X92568152Y-70770562D01*
X92570807Y-70776973D01*
X92589692Y-70871917D01*
X92590438Y-70875401D01*
X92612098Y-70969751D01*
X92612098Y-70969754D01*
X92612300Y-70976654D01*
X92614647Y-70997370D01*
X92616000Y-71004174D01*
X92616000Y-71100986D01*
X92616053Y-71104584D01*
X92617188Y-71143277D01*
X92616295Y-71156225D01*
X92616000Y-71164797D01*
X92616000Y-71235826D01*
X92610081Y-71265585D01*
X92609604Y-71267979D01*
X92607500Y-71283750D01*
X92569238Y-71838545D01*
X92540376Y-72009730D01*
X92458038Y-72226255D01*
X92335041Y-72422557D01*
X92176111Y-72591090D01*
X91987355Y-72725380D01*
X91776027Y-72820265D01*
X91550249Y-72872098D01*
X91318698Y-72878889D01*
X91318697Y-72878889D01*
X91273012Y-72871186D01*
X91090270Y-72840376D01*
X90873745Y-72758038D01*
X90677443Y-72635041D01*
X90508910Y-72476111D01*
X90374620Y-72287355D01*
X90279735Y-72076027D01*
X90227902Y-71850249D01*
X90222812Y-71676723D01*
X90263704Y-71083794D01*
X90264000Y-71075196D01*
X90264000Y-71004175D01*
X90282882Y-70909250D01*
X90283544Y-70905645D01*
X90289231Y-70871917D01*
X90299624Y-70810270D01*
X90302085Y-70803799D01*
X90307842Y-70783767D01*
X90309193Y-70776974D01*
X90311843Y-70770576D01*
X90346264Y-70687476D01*
X90347553Y-70684230D01*
X90381962Y-70593745D01*
X90385636Y-70587881D01*
X90395187Y-70569365D01*
X90397842Y-70562955D01*
X90451657Y-70482415D01*
X90453577Y-70479449D01*
X90504959Y-70397443D01*
X90509711Y-70392404D01*
X90522689Y-70376107D01*
X90526537Y-70370348D01*
X90594993Y-70301892D01*
X90597546Y-70299262D01*
X90599653Y-70297028D01*
X90663889Y-70228910D01*
X90669521Y-70224903D01*
X90685447Y-70211438D01*
X90690346Y-70206539D01*
X90770824Y-70152766D01*
X90773806Y-70150710D01*
X90852645Y-70094620D01*
X90858955Y-70091787D01*
X90877194Y-70081691D01*
X90882951Y-70077844D01*
X90882954Y-70077843D01*
X90882955Y-70077842D01*
X90972429Y-70040781D01*
X90975687Y-70039375D01*
X91063973Y-69999735D01*
X91070725Y-69998185D01*
X91090562Y-69991848D01*
X91096973Y-69989193D01*
X91191899Y-69970311D01*
X91195446Y-69969551D01*
X91289751Y-69947901D01*
X91292130Y-69947831D01*
X91296665Y-69947698D01*
X91317381Y-69945351D01*
X91324174Y-69944000D01*
X91420959Y-69944000D01*
X91424584Y-69943947D01*
X91521302Y-69941110D01*
X91528127Y-69942261D01*
X91528127Y-69942261D01*
G37*
G36*
X110578127Y-69942261D02*
G01*
X110598900Y-69944000D01*
X110605827Y-69944000D01*
X110700754Y-69962882D01*
X110704348Y-69963542D01*
X110799730Y-69979624D01*
X110806203Y-69982085D01*
X110826228Y-69987841D01*
X110833027Y-69989193D01*
X110895414Y-70015034D01*
X110922443Y-70026230D01*
X110925844Y-70027581D01*
X111016255Y-70061961D01*
X111022127Y-70065640D01*
X111040636Y-70075187D01*
X111047045Y-70077842D01*
X111127563Y-70131642D01*
X111130554Y-70133578D01*
X111212557Y-70184959D01*
X111217584Y-70189700D01*
X111233896Y-70202691D01*
X111239652Y-70206537D01*
X111308110Y-70274995D01*
X111310689Y-70277499D01*
X111381090Y-70343889D01*
X111385095Y-70349519D01*
X111398559Y-70365444D01*
X111403459Y-70370344D01*
X111437659Y-70421527D01*
X111457244Y-70450839D01*
X111459291Y-70453807D01*
X111515380Y-70532645D01*
X111518214Y-70538958D01*
X111528308Y-70557193D01*
X111532158Y-70562955D01*
X111569220Y-70652430D01*
X111570624Y-70655685D01*
X111610265Y-70743973D01*
X111611815Y-70750725D01*
X111618152Y-70770562D01*
X111620807Y-70776973D01*
X111639692Y-70871917D01*
X111640438Y-70875401D01*
X111662098Y-70969751D01*
X111662098Y-70969754D01*
X111662300Y-70976654D01*
X111664647Y-70997370D01*
X111666000Y-71004174D01*
X111666000Y-71100986D01*
X111666053Y-71104584D01*
X111667188Y-71143277D01*
X111666295Y-71156225D01*
X111666000Y-71164797D01*
X111666000Y-71235826D01*
X111660081Y-71265585D01*
X111659604Y-71267979D01*
X111657500Y-71283750D01*
X111619238Y-71838545D01*
X111590376Y-72009730D01*
X111508038Y-72226255D01*
X111385041Y-72422557D01*
X111226111Y-72591090D01*
X111037355Y-72725380D01*
X110826027Y-72820265D01*
X110600249Y-72872098D01*
X110368698Y-72878889D01*
X110368697Y-72878889D01*
X110323012Y-72871186D01*
X110140270Y-72840376D01*
X109923745Y-72758038D01*
X109727443Y-72635041D01*
X109558910Y-72476111D01*
X109424620Y-72287355D01*
X109329735Y-72076027D01*
X109277902Y-71850249D01*
X109272812Y-71676723D01*
X109313704Y-71083794D01*
X109314000Y-71075196D01*
X109314000Y-71004175D01*
X109332882Y-70909250D01*
X109333544Y-70905645D01*
X109339231Y-70871917D01*
X109349624Y-70810270D01*
X109352085Y-70803799D01*
X109357842Y-70783767D01*
X109359193Y-70776974D01*
X109361843Y-70770576D01*
X109396264Y-70687476D01*
X109397553Y-70684230D01*
X109431962Y-70593745D01*
X109435636Y-70587881D01*
X109445187Y-70569365D01*
X109447842Y-70562955D01*
X109501657Y-70482415D01*
X109503577Y-70479449D01*
X109554959Y-70397443D01*
X109559711Y-70392404D01*
X109572689Y-70376107D01*
X109576537Y-70370348D01*
X109644993Y-70301892D01*
X109647546Y-70299262D01*
X109649653Y-70297028D01*
X109713889Y-70228910D01*
X109719521Y-70224903D01*
X109735447Y-70211438D01*
X109740346Y-70206539D01*
X109820824Y-70152766D01*
X109823806Y-70150710D01*
X109902645Y-70094620D01*
X109908955Y-70091787D01*
X109927194Y-70081691D01*
X109932951Y-70077844D01*
X109932954Y-70077843D01*
X109932955Y-70077842D01*
X110022429Y-70040781D01*
X110025687Y-70039375D01*
X110113973Y-69999735D01*
X110120725Y-69998185D01*
X110140562Y-69991848D01*
X110146973Y-69989193D01*
X110241899Y-69970311D01*
X110245446Y-69969551D01*
X110339751Y-69947901D01*
X110342130Y-69947831D01*
X110346665Y-69947698D01*
X110367381Y-69945351D01*
X110374174Y-69944000D01*
X110470959Y-69944000D01*
X110474584Y-69943947D01*
X110571302Y-69941110D01*
X110578127Y-69942261D01*
X110578127Y-69942261D01*
G37*
G36*
X55067468Y-71316315D02*
G01*
X55106138Y-71328046D01*
X55141777Y-71347096D01*
X55173017Y-71372733D01*
X55198654Y-71403973D01*
X55217704Y-71439612D01*
X55229435Y-71478282D01*
X55234000Y-71524638D01*
X55234000Y-72175862D01*
X55229435Y-72222218D01*
X55217704Y-72260888D01*
X55198654Y-72296527D01*
X55173017Y-72327767D01*
X55141777Y-72353404D01*
X55106138Y-72372454D01*
X55067468Y-72384185D01*
X55021112Y-72388750D01*
X53944888Y-72388750D01*
X53898532Y-72384185D01*
X53859862Y-72372454D01*
X53824223Y-72353404D01*
X53792983Y-72327767D01*
X53767346Y-72296527D01*
X53748296Y-72260888D01*
X53736565Y-72222218D01*
X53732000Y-72175862D01*
X53732000Y-71524638D01*
X53736565Y-71478282D01*
X53748296Y-71439612D01*
X53767346Y-71403973D01*
X53792983Y-71372733D01*
X53824223Y-71347096D01*
X53859862Y-71328046D01*
X53898532Y-71316315D01*
X53944888Y-71311750D01*
X55021112Y-71311750D01*
X55067468Y-71316315D01*
X55067468Y-71316315D01*
G37*
G36*
X46590218Y-70270315D02*
G01*
X46628888Y-70282046D01*
X46664527Y-70301096D01*
X46695767Y-70326733D01*
X46721404Y-70357973D01*
X46740454Y-70393612D01*
X46752185Y-70432282D01*
X46756750Y-70478638D01*
X46756750Y-71129862D01*
X46752185Y-71176218D01*
X46740454Y-71214888D01*
X46721404Y-71250527D01*
X46695767Y-71281767D01*
X46664527Y-71307404D01*
X46628888Y-71326454D01*
X46590218Y-71338185D01*
X46543862Y-71342750D01*
X45467638Y-71342750D01*
X45421282Y-71338185D01*
X45382612Y-71326454D01*
X45346973Y-71307404D01*
X45315733Y-71281767D01*
X45290096Y-71250527D01*
X45271046Y-71214888D01*
X45259315Y-71176218D01*
X45254750Y-71129862D01*
X45254750Y-70478638D01*
X45259315Y-70432282D01*
X45271046Y-70393612D01*
X45290096Y-70357973D01*
X45315733Y-70326733D01*
X45346973Y-70301096D01*
X45382612Y-70282046D01*
X45421282Y-70270315D01*
X45467638Y-70265750D01*
X46543862Y-70265750D01*
X46590218Y-70270315D01*
X46590218Y-70270315D01*
G37*
G36*
X72795000Y-70747000D02*
G01*
X71193000Y-70747000D01*
X71193000Y-62095000D01*
X72795000Y-62095000D01*
X72795000Y-70747000D01*
X72795000Y-70747000D01*
G37*
G36*
X61395000Y-70747000D02*
G01*
X59793000Y-70747000D01*
X59793000Y-62095000D01*
X61395000Y-62095000D01*
X61395000Y-70747000D01*
X61395000Y-70747000D01*
G37*
G36*
X55067468Y-69441315D02*
G01*
X55106138Y-69453046D01*
X55141777Y-69472096D01*
X55173017Y-69497733D01*
X55198654Y-69528973D01*
X55217704Y-69564612D01*
X55229435Y-69603282D01*
X55234000Y-69649638D01*
X55234000Y-70300862D01*
X55229435Y-70347218D01*
X55217704Y-70385888D01*
X55198654Y-70421527D01*
X55173017Y-70452767D01*
X55141777Y-70478404D01*
X55106138Y-70497454D01*
X55067468Y-70509185D01*
X55021112Y-70513750D01*
X53944888Y-70513750D01*
X53898532Y-70509185D01*
X53859862Y-70497454D01*
X53824223Y-70478404D01*
X53792983Y-70452767D01*
X53767346Y-70421527D01*
X53748296Y-70385888D01*
X53736565Y-70347218D01*
X53732000Y-70300862D01*
X53732000Y-69649638D01*
X53736565Y-69603282D01*
X53748296Y-69564612D01*
X53767346Y-69528973D01*
X53792983Y-69497733D01*
X53824223Y-69472096D01*
X53859862Y-69453046D01*
X53898532Y-69441315D01*
X53944888Y-69436750D01*
X55021112Y-69436750D01*
X55067468Y-69441315D01*
X55067468Y-69441315D01*
G37*
G36*
X46590218Y-68395315D02*
G01*
X46628888Y-68407046D01*
X46664527Y-68426096D01*
X46695767Y-68451733D01*
X46721404Y-68482973D01*
X46740454Y-68518612D01*
X46752185Y-68557282D01*
X46756750Y-68603638D01*
X46756750Y-69254862D01*
X46752185Y-69301218D01*
X46740454Y-69339888D01*
X46721404Y-69375527D01*
X46695767Y-69406767D01*
X46664527Y-69432404D01*
X46628888Y-69451454D01*
X46590218Y-69463185D01*
X46543862Y-69467750D01*
X45467638Y-69467750D01*
X45421282Y-69463185D01*
X45382612Y-69451454D01*
X45346973Y-69432404D01*
X45315733Y-69406767D01*
X45290096Y-69375527D01*
X45271046Y-69339888D01*
X45259315Y-69301218D01*
X45254750Y-69254862D01*
X45254750Y-68603638D01*
X45259315Y-68557282D01*
X45271046Y-68518612D01*
X45290096Y-68482973D01*
X45315733Y-68451733D01*
X45346973Y-68426096D01*
X45382612Y-68407046D01*
X45421282Y-68395315D01*
X45467638Y-68390750D01*
X46543862Y-68390750D01*
X46590218Y-68395315D01*
X46590218Y-68395315D01*
G37*
G36*
X36455604Y-67882597D02*
G01*
X36492144Y-67893682D01*
X36525821Y-67911683D01*
X36555341Y-67935909D01*
X36579567Y-67965429D01*
X36597568Y-67999106D01*
X36608653Y-68035646D01*
X36613000Y-68079788D01*
X36613000Y-69028712D01*
X36608653Y-69072854D01*
X36597568Y-69109394D01*
X36579567Y-69143071D01*
X36555341Y-69172591D01*
X36525821Y-69196817D01*
X36492144Y-69214818D01*
X36455604Y-69225903D01*
X36411462Y-69230250D01*
X34962538Y-69230250D01*
X34918396Y-69225903D01*
X34881856Y-69214818D01*
X34848179Y-69196817D01*
X34818659Y-69172591D01*
X34794433Y-69143071D01*
X34776432Y-69109394D01*
X34765347Y-69072854D01*
X34761000Y-69028712D01*
X34761000Y-68079788D01*
X34765347Y-68035646D01*
X34776432Y-67999106D01*
X34794433Y-67965429D01*
X34818659Y-67935909D01*
X34848179Y-67911683D01*
X34881856Y-67893682D01*
X34918396Y-67882597D01*
X34962538Y-67878250D01*
X36411462Y-67878250D01*
X36455604Y-67882597D01*
X36455604Y-67882597D01*
G37*
G36*
X55067468Y-67635065D02*
G01*
X55106138Y-67646796D01*
X55141777Y-67665846D01*
X55173017Y-67691483D01*
X55198654Y-67722723D01*
X55217704Y-67758362D01*
X55229435Y-67797032D01*
X55234000Y-67843388D01*
X55234000Y-68494612D01*
X55229435Y-68540968D01*
X55217704Y-68579638D01*
X55198654Y-68615277D01*
X55173017Y-68646517D01*
X55141777Y-68672154D01*
X55106138Y-68691204D01*
X55067468Y-68702935D01*
X55021112Y-68707500D01*
X53944888Y-68707500D01*
X53898532Y-68702935D01*
X53859862Y-68691204D01*
X53824223Y-68672154D01*
X53792983Y-68646517D01*
X53767346Y-68615277D01*
X53748296Y-68579638D01*
X53736565Y-68540968D01*
X53732000Y-68494612D01*
X53732000Y-67843388D01*
X53736565Y-67797032D01*
X53748296Y-67758362D01*
X53767346Y-67722723D01*
X53792983Y-67691483D01*
X53824223Y-67665846D01*
X53859862Y-67646796D01*
X53898532Y-67635065D01*
X53944888Y-67630500D01*
X55021112Y-67630500D01*
X55067468Y-67635065D01*
X55067468Y-67635065D01*
G37*
G36*
X55067468Y-65760065D02*
G01*
X55106138Y-65771796D01*
X55141777Y-65790846D01*
X55173017Y-65816483D01*
X55198654Y-65847723D01*
X55217704Y-65883362D01*
X55229435Y-65922032D01*
X55234000Y-65968388D01*
X55234000Y-66619612D01*
X55229435Y-66665968D01*
X55217704Y-66704638D01*
X55198654Y-66740277D01*
X55173017Y-66771517D01*
X55141777Y-66797154D01*
X55106138Y-66816204D01*
X55067468Y-66827935D01*
X55021112Y-66832500D01*
X53944888Y-66832500D01*
X53898532Y-66827935D01*
X53859862Y-66816204D01*
X53824223Y-66797154D01*
X53792983Y-66771517D01*
X53767346Y-66740277D01*
X53748296Y-66704638D01*
X53736565Y-66665968D01*
X53732000Y-66619612D01*
X53732000Y-65968388D01*
X53736565Y-65922032D01*
X53748296Y-65883362D01*
X53767346Y-65847723D01*
X53792983Y-65816483D01*
X53824223Y-65790846D01*
X53859862Y-65771796D01*
X53898532Y-65760065D01*
X53944888Y-65755500D01*
X55021112Y-65755500D01*
X55067468Y-65760065D01*
X55067468Y-65760065D01*
G37*
G36*
X36455604Y-65082597D02*
G01*
X36492144Y-65093682D01*
X36525821Y-65111683D01*
X36555341Y-65135909D01*
X36579567Y-65165429D01*
X36597568Y-65199106D01*
X36608653Y-65235646D01*
X36613000Y-65279788D01*
X36613000Y-66228712D01*
X36608653Y-66272854D01*
X36597568Y-66309394D01*
X36579567Y-66343071D01*
X36555341Y-66372591D01*
X36525821Y-66396817D01*
X36492144Y-66414818D01*
X36455604Y-66425903D01*
X36411462Y-66430250D01*
X34962538Y-66430250D01*
X34918396Y-66425903D01*
X34881856Y-66414818D01*
X34848179Y-66396817D01*
X34818659Y-66372591D01*
X34794433Y-66343071D01*
X34776432Y-66309394D01*
X34765347Y-66272854D01*
X34761000Y-66228712D01*
X34761000Y-65279788D01*
X34765347Y-65235646D01*
X34776432Y-65199106D01*
X34794433Y-65165429D01*
X34818659Y-65135909D01*
X34848179Y-65111683D01*
X34881856Y-65093682D01*
X34918396Y-65082597D01*
X34962538Y-65078250D01*
X36411462Y-65078250D01*
X36455604Y-65082597D01*
X36455604Y-65082597D01*
G37*
G36*
X76752718Y-63220065D02*
G01*
X76791388Y-63231796D01*
X76827027Y-63250846D01*
X76858267Y-63276483D01*
X76883904Y-63307723D01*
X76902954Y-63343362D01*
X76914685Y-63382032D01*
X76919250Y-63428388D01*
X76919250Y-64079612D01*
X76914685Y-64125968D01*
X76902954Y-64164638D01*
X76883904Y-64200277D01*
X76858267Y-64231517D01*
X76827027Y-64257154D01*
X76791388Y-64276204D01*
X76752718Y-64287935D01*
X76706362Y-64292500D01*
X75630138Y-64292500D01*
X75583782Y-64287935D01*
X75545112Y-64276204D01*
X75509473Y-64257154D01*
X75478233Y-64231517D01*
X75452596Y-64200277D01*
X75433546Y-64164638D01*
X75421815Y-64125968D01*
X75417250Y-64079612D01*
X75417250Y-63428388D01*
X75421815Y-63382032D01*
X75433546Y-63343362D01*
X75452596Y-63307723D01*
X75478233Y-63276483D01*
X75509473Y-63250846D01*
X75545112Y-63231796D01*
X75583782Y-63220065D01*
X75630138Y-63215500D01*
X76706362Y-63215500D01*
X76752718Y-63220065D01*
X76752718Y-63220065D01*
G37*
G36*
X76752718Y-61345065D02*
G01*
X76791388Y-61356796D01*
X76827027Y-61375846D01*
X76858267Y-61401483D01*
X76883904Y-61432723D01*
X76902954Y-61468362D01*
X76914685Y-61507032D01*
X76919250Y-61553388D01*
X76919250Y-62204612D01*
X76914685Y-62250968D01*
X76902954Y-62289638D01*
X76883904Y-62325277D01*
X76858267Y-62356517D01*
X76827027Y-62382154D01*
X76791388Y-62401204D01*
X76752718Y-62412935D01*
X76706362Y-62417500D01*
X75630138Y-62417500D01*
X75583782Y-62412935D01*
X75545112Y-62401204D01*
X75509473Y-62382154D01*
X75478233Y-62356517D01*
X75452596Y-62325277D01*
X75433546Y-62289638D01*
X75421815Y-62250968D01*
X75417250Y-62204612D01*
X75417250Y-61553388D01*
X75421815Y-61507032D01*
X75433546Y-61468362D01*
X75452596Y-61432723D01*
X75478233Y-61401483D01*
X75509473Y-61375846D01*
X75545112Y-61356796D01*
X75583782Y-61345065D01*
X75630138Y-61340500D01*
X76706362Y-61340500D01*
X76752718Y-61345065D01*
X76752718Y-61345065D01*
G37*
G36*
X70620000Y-61522000D02*
G01*
X61968000Y-61522000D01*
X61968000Y-59920000D01*
X70620000Y-59920000D01*
X70620000Y-61522000D01*
X70620000Y-61522000D01*
G37*
G36*
X44208968Y-59951565D02*
G01*
X44247638Y-59963296D01*
X44283277Y-59982346D01*
X44314517Y-60007983D01*
X44340154Y-60039223D01*
X44359204Y-60074862D01*
X44370935Y-60113532D01*
X44375500Y-60159888D01*
X44375500Y-60811112D01*
X44370935Y-60857468D01*
X44359204Y-60896138D01*
X44340154Y-60931777D01*
X44314517Y-60963017D01*
X44283277Y-60988654D01*
X44247638Y-61007704D01*
X44208968Y-61019435D01*
X44162612Y-61024000D01*
X43086388Y-61024000D01*
X43040032Y-61019435D01*
X43001362Y-61007704D01*
X42965723Y-60988654D01*
X42934483Y-60963017D01*
X42908846Y-60931777D01*
X42889796Y-60896138D01*
X42878065Y-60857468D01*
X42873500Y-60811112D01*
X42873500Y-60159888D01*
X42878065Y-60113532D01*
X42889796Y-60074862D01*
X42908846Y-60039223D01*
X42934483Y-60007983D01*
X42965723Y-59982346D01*
X43001362Y-59963296D01*
X43040032Y-59951565D01*
X43086388Y-59947000D01*
X44162612Y-59947000D01*
X44208968Y-59951565D01*
X44208968Y-59951565D01*
G37*
G36*
X41827718Y-59951565D02*
G01*
X41866388Y-59963296D01*
X41902027Y-59982346D01*
X41933267Y-60007983D01*
X41958904Y-60039223D01*
X41977954Y-60074862D01*
X41989685Y-60113532D01*
X41994250Y-60159888D01*
X41994250Y-60811112D01*
X41989685Y-60857468D01*
X41977954Y-60896138D01*
X41958904Y-60931777D01*
X41933267Y-60963017D01*
X41902027Y-60988654D01*
X41866388Y-61007704D01*
X41827718Y-61019435D01*
X41781362Y-61024000D01*
X40705138Y-61024000D01*
X40658782Y-61019435D01*
X40620112Y-61007704D01*
X40584473Y-60988654D01*
X40553233Y-60963017D01*
X40527596Y-60931777D01*
X40508546Y-60896138D01*
X40496815Y-60857468D01*
X40492250Y-60811112D01*
X40492250Y-60159888D01*
X40496815Y-60113532D01*
X40508546Y-60074862D01*
X40527596Y-60039223D01*
X40553233Y-60007983D01*
X40584473Y-59982346D01*
X40620112Y-59963296D01*
X40658782Y-59951565D01*
X40705138Y-59947000D01*
X41781362Y-59947000D01*
X41827718Y-59951565D01*
X41827718Y-59951565D01*
G37*
G36*
X116538500Y-59363500D02*
G01*
X115236500Y-59363500D01*
X115236500Y-58361500D01*
X116538500Y-58361500D01*
X116538500Y-59363500D01*
X116538500Y-59363500D01*
G37*
G36*
X97488500Y-59363500D02*
G01*
X96186500Y-59363500D01*
X96186500Y-58361500D01*
X97488500Y-58361500D01*
X97488500Y-59363500D01*
X97488500Y-59363500D01*
G37*
G36*
X108546474Y-55183684D02*
G01*
X108733020Y-55260954D01*
X108918623Y-55337833D01*
X109253548Y-55561623D01*
X109538377Y-55846452D01*
X109762167Y-56181377D01*
X109794562Y-56259586D01*
X109916316Y-56553526D01*
X109994900Y-56948594D01*
X109994900Y-57351406D01*
X109916316Y-57746474D01*
X109865451Y-57869272D01*
X109762167Y-58118623D01*
X109538377Y-58453548D01*
X109253548Y-58738377D01*
X108918623Y-58962167D01*
X108868839Y-58982788D01*
X108546474Y-59116316D01*
X108151406Y-59194900D01*
X107748594Y-59194900D01*
X107353526Y-59116316D01*
X107031161Y-58982788D01*
X106981377Y-58962167D01*
X106646452Y-58738377D01*
X106361623Y-58453548D01*
X106137833Y-58118623D01*
X106034549Y-57869272D01*
X105983684Y-57746474D01*
X105905100Y-57351406D01*
X105905100Y-56948594D01*
X105983684Y-56553526D01*
X106105438Y-56259586D01*
X106137833Y-56181377D01*
X106361623Y-55846452D01*
X106646452Y-55561623D01*
X106981377Y-55337833D01*
X107166980Y-55260954D01*
X107353526Y-55183684D01*
X107748594Y-55105100D01*
X108151406Y-55105100D01*
X108546474Y-55183684D01*
X108546474Y-55183684D01*
G37*
G36*
X89496474Y-55183684D02*
G01*
X89683020Y-55260954D01*
X89868623Y-55337833D01*
X90203548Y-55561623D01*
X90488377Y-55846452D01*
X90712167Y-56181377D01*
X90744562Y-56259586D01*
X90866316Y-56553526D01*
X90944900Y-56948594D01*
X90944900Y-57351406D01*
X90866316Y-57746474D01*
X90815451Y-57869272D01*
X90712167Y-58118623D01*
X90488377Y-58453548D01*
X90203548Y-58738377D01*
X89868623Y-58962167D01*
X89818839Y-58982788D01*
X89496474Y-59116316D01*
X89101406Y-59194900D01*
X88698594Y-59194900D01*
X88303526Y-59116316D01*
X87981161Y-58982788D01*
X87931377Y-58962167D01*
X87596452Y-58738377D01*
X87311623Y-58453548D01*
X87087833Y-58118623D01*
X86984549Y-57869272D01*
X86933684Y-57746474D01*
X86855100Y-57351406D01*
X86855100Y-56948594D01*
X86933684Y-56553526D01*
X87055438Y-56259586D01*
X87087833Y-56181377D01*
X87311623Y-55846452D01*
X87596452Y-55561623D01*
X87931377Y-55337833D01*
X88116980Y-55260954D01*
X88303526Y-55183684D01*
X88698594Y-55105100D01*
X89101406Y-55105100D01*
X89496474Y-55183684D01*
X89496474Y-55183684D01*
G37*
G36*
X41827718Y-58076565D02*
G01*
X41866388Y-58088296D01*
X41902027Y-58107346D01*
X41933267Y-58132983D01*
X41958904Y-58164223D01*
X41977954Y-58199862D01*
X41989685Y-58238532D01*
X41994250Y-58284888D01*
X41994250Y-58936112D01*
X41989685Y-58982468D01*
X41977954Y-59021138D01*
X41958904Y-59056777D01*
X41933267Y-59088017D01*
X41902027Y-59113654D01*
X41866388Y-59132704D01*
X41827718Y-59144435D01*
X41781362Y-59149000D01*
X40705138Y-59149000D01*
X40658782Y-59144435D01*
X40620112Y-59132704D01*
X40584473Y-59113654D01*
X40553233Y-59088017D01*
X40527596Y-59056777D01*
X40508546Y-59021138D01*
X40496815Y-58982468D01*
X40492250Y-58936112D01*
X40492250Y-58284888D01*
X40496815Y-58238532D01*
X40508546Y-58199862D01*
X40527596Y-58164223D01*
X40553233Y-58132983D01*
X40584473Y-58107346D01*
X40620112Y-58088296D01*
X40658782Y-58076565D01*
X40705138Y-58072000D01*
X41781362Y-58072000D01*
X41827718Y-58076565D01*
X41827718Y-58076565D01*
G37*
G36*
X44208968Y-58076565D02*
G01*
X44247638Y-58088296D01*
X44283277Y-58107346D01*
X44314517Y-58132983D01*
X44340154Y-58164223D01*
X44359204Y-58199862D01*
X44370935Y-58238532D01*
X44375500Y-58284888D01*
X44375500Y-58936112D01*
X44370935Y-58982468D01*
X44359204Y-59021138D01*
X44340154Y-59056777D01*
X44314517Y-59088017D01*
X44283277Y-59113654D01*
X44247638Y-59132704D01*
X44208968Y-59144435D01*
X44162612Y-59149000D01*
X43086388Y-59149000D01*
X43040032Y-59144435D01*
X43001362Y-59132704D01*
X42965723Y-59113654D01*
X42934483Y-59088017D01*
X42908846Y-59056777D01*
X42889796Y-59021138D01*
X42878065Y-58982468D01*
X42873500Y-58936112D01*
X42873500Y-58284888D01*
X42878065Y-58238532D01*
X42889796Y-58199862D01*
X42908846Y-58164223D01*
X42934483Y-58132983D01*
X42965723Y-58107346D01*
X43001362Y-58088296D01*
X43040032Y-58076565D01*
X43086388Y-58072000D01*
X44162612Y-58072000D01*
X44208968Y-58076565D01*
X44208968Y-58076565D01*
G37*
G36*
X103140104Y-56259585D02*
G01*
X103308626Y-56329389D01*
X103460291Y-56430728D01*
X103589272Y-56559709D01*
X103690611Y-56711374D01*
X103760415Y-56879896D01*
X103796000Y-57058797D01*
X103796000Y-57241203D01*
X103760415Y-57420104D01*
X103690611Y-57588626D01*
X103589272Y-57740291D01*
X103460291Y-57869272D01*
X103308626Y-57970611D01*
X103140104Y-58040415D01*
X102961203Y-58076000D01*
X102778797Y-58076000D01*
X102599896Y-58040415D01*
X102431374Y-57970611D01*
X102279709Y-57869272D01*
X102150728Y-57740291D01*
X102049389Y-57588626D01*
X101979585Y-57420104D01*
X101944000Y-57241203D01*
X101944000Y-57058797D01*
X101979585Y-56879896D01*
X102049389Y-56711374D01*
X102150728Y-56559709D01*
X102279709Y-56430728D01*
X102431374Y-56329389D01*
X102599896Y-56259585D01*
X102778797Y-56224000D01*
X102961203Y-56224000D01*
X103140104Y-56259585D01*
X103140104Y-56259585D01*
G37*
G36*
X113300104Y-56259585D02*
G01*
X113468626Y-56329389D01*
X113620291Y-56430728D01*
X113749272Y-56559709D01*
X113850611Y-56711374D01*
X113920415Y-56879896D01*
X113956000Y-57058797D01*
X113956000Y-57241203D01*
X113920415Y-57420104D01*
X113850611Y-57588626D01*
X113749272Y-57740291D01*
X113620291Y-57869272D01*
X113468626Y-57970611D01*
X113300104Y-58040415D01*
X113121203Y-58076000D01*
X112938797Y-58076000D01*
X112759896Y-58040415D01*
X112591374Y-57970611D01*
X112439709Y-57869272D01*
X112310728Y-57740291D01*
X112209389Y-57588626D01*
X112139585Y-57420104D01*
X112104000Y-57241203D01*
X112104000Y-57058797D01*
X112139585Y-56879896D01*
X112209389Y-56711374D01*
X112310728Y-56559709D01*
X112439709Y-56430728D01*
X112591374Y-56329389D01*
X112759896Y-56259585D01*
X112938797Y-56224000D01*
X113121203Y-56224000D01*
X113300104Y-56259585D01*
X113300104Y-56259585D01*
G37*
G36*
X84090104Y-56259585D02*
G01*
X84258626Y-56329389D01*
X84410291Y-56430728D01*
X84539272Y-56559709D01*
X84640611Y-56711374D01*
X84710415Y-56879896D01*
X84746000Y-57058797D01*
X84746000Y-57241203D01*
X84710415Y-57420104D01*
X84640611Y-57588626D01*
X84539272Y-57740291D01*
X84410291Y-57869272D01*
X84258626Y-57970611D01*
X84090104Y-58040415D01*
X83911203Y-58076000D01*
X83728797Y-58076000D01*
X83549896Y-58040415D01*
X83381374Y-57970611D01*
X83229709Y-57869272D01*
X83100728Y-57740291D01*
X82999389Y-57588626D01*
X82929585Y-57420104D01*
X82894000Y-57241203D01*
X82894000Y-57058797D01*
X82929585Y-56879896D01*
X82999389Y-56711374D01*
X83100728Y-56559709D01*
X83229709Y-56430728D01*
X83381374Y-56329389D01*
X83549896Y-56259585D01*
X83728797Y-56224000D01*
X83911203Y-56224000D01*
X84090104Y-56259585D01*
X84090104Y-56259585D01*
G37*
G36*
X94250104Y-56259585D02*
G01*
X94418626Y-56329389D01*
X94570291Y-56430728D01*
X94699272Y-56559709D01*
X94800611Y-56711374D01*
X94870415Y-56879896D01*
X94906000Y-57058797D01*
X94906000Y-57241203D01*
X94870415Y-57420104D01*
X94800611Y-57588626D01*
X94699272Y-57740291D01*
X94570291Y-57869272D01*
X94418626Y-57970611D01*
X94250104Y-58040415D01*
X94071203Y-58076000D01*
X93888797Y-58076000D01*
X93709896Y-58040415D01*
X93541374Y-57970611D01*
X93389709Y-57869272D01*
X93260728Y-57740291D01*
X93159389Y-57588626D01*
X93089585Y-57420104D01*
X93054000Y-57241203D01*
X93054000Y-57058797D01*
X93089585Y-56879896D01*
X93159389Y-56711374D01*
X93260728Y-56559709D01*
X93389709Y-56430728D01*
X93541374Y-56329389D01*
X93709896Y-56259585D01*
X93888797Y-56224000D01*
X94071203Y-56224000D01*
X94250104Y-56259585D01*
X94250104Y-56259585D01*
G37*
G36*
X97488500Y-56063500D02*
G01*
X96186500Y-56063500D01*
X96186500Y-55061500D01*
X97488500Y-55061500D01*
X97488500Y-56063500D01*
X97488500Y-56063500D01*
G37*
G36*
X116538500Y-56063500D02*
G01*
X115236500Y-56063500D01*
X115236500Y-55061500D01*
X116538500Y-55061500D01*
X116538500Y-56063500D01*
X116538500Y-56063500D01*
G37*
G36*
X105473205Y-51973881D02*
G01*
X105478645Y-51974000D01*
X105565828Y-51974000D01*
X105582097Y-51977236D01*
X105600956Y-51979515D01*
X105617532Y-51980246D01*
X105702223Y-52001010D01*
X105707518Y-52002184D01*
X105793027Y-52019193D01*
X105808362Y-52025545D01*
X105826401Y-52031455D01*
X105842521Y-52035407D01*
X105921504Y-52072280D01*
X105926494Y-52074477D01*
X106007045Y-52107842D01*
X106020841Y-52117060D01*
X106037393Y-52126382D01*
X106052426Y-52133400D01*
X106122694Y-52184971D01*
X106127192Y-52188122D01*
X106199656Y-52236541D01*
X106211383Y-52248268D01*
X106225809Y-52260648D01*
X106239179Y-52270461D01*
X106289340Y-52325250D01*
X106298021Y-52334733D01*
X106301829Y-52338714D01*
X106363459Y-52400344D01*
X106372674Y-52414135D01*
X106384396Y-52429078D01*
X106395605Y-52441321D01*
X106440799Y-52515874D01*
X106443746Y-52520501D01*
X106458092Y-52541972D01*
X106492158Y-52592955D01*
X106498505Y-52608277D01*
X106507092Y-52625231D01*
X106515691Y-52639417D01*
X106545478Y-52721368D01*
X106547452Y-52726448D01*
X106580807Y-52806973D01*
X106580807Y-52806974D01*
X106584041Y-52823233D01*
X106589158Y-52841542D01*
X106594825Y-52857134D01*
X106608055Y-52943345D01*
X106609001Y-52948713D01*
X106626000Y-53034173D01*
X106626000Y-53050752D01*
X106627444Y-53069692D01*
X106629963Y-53086104D01*
X106626120Y-53173249D01*
X106626000Y-53178689D01*
X106626000Y-53265825D01*
X106622766Y-53282083D01*
X106620488Y-53300941D01*
X106619756Y-53317531D01*
X106598988Y-53402237D01*
X106597812Y-53407537D01*
X106580807Y-53493027D01*
X106574457Y-53508357D01*
X106568549Y-53526393D01*
X106564595Y-53542520D01*
X106527711Y-53621526D01*
X106525511Y-53626523D01*
X106492158Y-53707045D01*
X106482944Y-53720835D01*
X106473622Y-53737387D01*
X106466602Y-53752424D01*
X106415011Y-53822720D01*
X106411866Y-53827210D01*
X106363461Y-53899654D01*
X106306460Y-53956655D01*
X106301811Y-53961563D01*
X105938223Y-54366782D01*
X104976723Y-55438376D01*
X104848679Y-55555602D01*
X104749630Y-55615646D01*
X104650583Y-55675689D01*
X104432866Y-55754823D01*
X104203895Y-55789961D01*
X103972470Y-55779754D01*
X103747481Y-55724593D01*
X103642727Y-55675689D01*
X103537579Y-55626602D01*
X103440838Y-55555602D01*
X103350823Y-55489539D01*
X103276394Y-55408241D01*
X103194398Y-55318679D01*
X103112564Y-55183685D01*
X103074311Y-55120583D01*
X102995177Y-54902866D01*
X102960039Y-54673895D01*
X102970246Y-54442470D01*
X103025407Y-54217481D01*
X103076972Y-54107028D01*
X103123398Y-54007580D01*
X103123400Y-54007577D01*
X103226114Y-53867622D01*
X103981245Y-53026027D01*
X104512787Y-52433621D01*
X104523681Y-52419589D01*
X104536539Y-52400346D01*
X104593573Y-52343312D01*
X104598223Y-52338403D01*
X104613278Y-52321624D01*
X104634701Y-52302011D01*
X104638682Y-52298203D01*
X104700346Y-52236539D01*
X104714143Y-52227320D01*
X104729102Y-52215585D01*
X104741321Y-52204398D01*
X104773385Y-52184961D01*
X104815830Y-52159231D01*
X104820421Y-52156308D01*
X104892955Y-52107842D01*
X104908300Y-52101486D01*
X104925248Y-52092901D01*
X104939416Y-52084312D01*
X104939417Y-52084312D01*
X104939418Y-52084311D01*
X105021312Y-52054545D01*
X105026410Y-52052563D01*
X105106973Y-52019193D01*
X105123252Y-52015955D01*
X105141542Y-52010844D01*
X105157135Y-52005177D01*
X105243300Y-51991954D01*
X105248663Y-51991009D01*
X105334173Y-51974000D01*
X105350766Y-51974000D01*
X105369709Y-51972555D01*
X105386106Y-51970039D01*
X105473205Y-51973881D01*
X105473205Y-51973881D01*
G37*
G36*
X86423205Y-51973881D02*
G01*
X86428645Y-51974000D01*
X86515828Y-51974000D01*
X86532097Y-51977236D01*
X86550956Y-51979515D01*
X86567532Y-51980246D01*
X86652223Y-52001010D01*
X86657518Y-52002184D01*
X86743027Y-52019193D01*
X86758362Y-52025545D01*
X86776401Y-52031455D01*
X86792521Y-52035407D01*
X86871504Y-52072280D01*
X86876494Y-52074477D01*
X86957045Y-52107842D01*
X86970841Y-52117060D01*
X86987393Y-52126382D01*
X87002426Y-52133400D01*
X87072694Y-52184971D01*
X87077192Y-52188122D01*
X87149656Y-52236541D01*
X87161383Y-52248268D01*
X87175809Y-52260648D01*
X87189179Y-52270461D01*
X87239340Y-52325250D01*
X87248021Y-52334733D01*
X87251829Y-52338714D01*
X87313459Y-52400344D01*
X87322674Y-52414135D01*
X87334396Y-52429078D01*
X87345605Y-52441321D01*
X87390799Y-52515874D01*
X87393746Y-52520501D01*
X87408092Y-52541972D01*
X87442158Y-52592955D01*
X87448505Y-52608277D01*
X87457092Y-52625231D01*
X87465691Y-52639417D01*
X87495478Y-52721368D01*
X87497452Y-52726448D01*
X87530807Y-52806973D01*
X87530807Y-52806974D01*
X87534041Y-52823233D01*
X87539158Y-52841542D01*
X87544825Y-52857134D01*
X87558055Y-52943345D01*
X87559001Y-52948713D01*
X87576000Y-53034173D01*
X87576000Y-53050752D01*
X87577444Y-53069692D01*
X87579963Y-53086104D01*
X87576120Y-53173249D01*
X87576000Y-53178689D01*
X87576000Y-53265825D01*
X87572766Y-53282083D01*
X87570488Y-53300941D01*
X87569756Y-53317531D01*
X87548988Y-53402237D01*
X87547812Y-53407537D01*
X87530807Y-53493027D01*
X87524457Y-53508357D01*
X87518549Y-53526393D01*
X87514595Y-53542520D01*
X87477711Y-53621526D01*
X87475511Y-53626523D01*
X87442158Y-53707045D01*
X87432944Y-53720835D01*
X87423622Y-53737387D01*
X87416602Y-53752424D01*
X87365011Y-53822720D01*
X87361866Y-53827210D01*
X87313461Y-53899654D01*
X87256460Y-53956655D01*
X87251811Y-53961563D01*
X86888223Y-54366782D01*
X85926723Y-55438376D01*
X85798679Y-55555602D01*
X85699630Y-55615646D01*
X85600583Y-55675689D01*
X85382866Y-55754823D01*
X85153895Y-55789961D01*
X84922470Y-55779754D01*
X84697481Y-55724593D01*
X84592727Y-55675689D01*
X84487579Y-55626602D01*
X84390838Y-55555602D01*
X84300823Y-55489539D01*
X84226394Y-55408241D01*
X84144398Y-55318679D01*
X84062564Y-55183685D01*
X84024311Y-55120583D01*
X83945177Y-54902866D01*
X83910039Y-54673895D01*
X83920246Y-54442470D01*
X83975407Y-54217481D01*
X84026972Y-54107028D01*
X84073398Y-54007580D01*
X84073400Y-54007577D01*
X84176114Y-53867622D01*
X84931245Y-53026027D01*
X85462787Y-52433621D01*
X85473681Y-52419589D01*
X85486539Y-52400346D01*
X85543573Y-52343312D01*
X85548223Y-52338403D01*
X85563278Y-52321624D01*
X85584701Y-52302011D01*
X85588682Y-52298203D01*
X85650346Y-52236539D01*
X85664143Y-52227320D01*
X85679102Y-52215585D01*
X85691321Y-52204398D01*
X85723385Y-52184961D01*
X85765830Y-52159231D01*
X85770421Y-52156308D01*
X85842955Y-52107842D01*
X85858300Y-52101486D01*
X85875248Y-52092901D01*
X85889416Y-52084312D01*
X85889417Y-52084312D01*
X85889418Y-52084311D01*
X85971312Y-52054545D01*
X85976410Y-52052563D01*
X86056973Y-52019193D01*
X86073252Y-52015955D01*
X86091542Y-52010844D01*
X86107135Y-52005177D01*
X86193300Y-51991954D01*
X86198663Y-51991009D01*
X86284173Y-51974000D01*
X86300766Y-51974000D01*
X86319709Y-51972555D01*
X86336106Y-51970039D01*
X86423205Y-51973881D01*
X86423205Y-51973881D01*
G37*
G36*
X62465218Y-54204815D02*
G01*
X62503888Y-54216546D01*
X62539527Y-54235596D01*
X62570767Y-54261233D01*
X62596404Y-54292473D01*
X62615454Y-54328112D01*
X62627185Y-54366782D01*
X62631750Y-54413138D01*
X62631750Y-55064362D01*
X62627185Y-55110718D01*
X62615454Y-55149388D01*
X62596404Y-55185027D01*
X62570767Y-55216267D01*
X62539527Y-55241904D01*
X62503888Y-55260954D01*
X62465218Y-55272685D01*
X62418862Y-55277250D01*
X61342638Y-55277250D01*
X61296282Y-55272685D01*
X61257612Y-55260954D01*
X61221973Y-55241904D01*
X61190733Y-55216267D01*
X61165096Y-55185027D01*
X61146046Y-55149388D01*
X61134315Y-55110718D01*
X61129750Y-55064362D01*
X61129750Y-54413138D01*
X61134315Y-54366782D01*
X61146046Y-54328112D01*
X61165096Y-54292473D01*
X61190733Y-54261233D01*
X61221973Y-54235596D01*
X61257612Y-54216546D01*
X61296282Y-54204815D01*
X61342638Y-54200250D01*
X62418862Y-54200250D01*
X62465218Y-54204815D01*
X62465218Y-54204815D01*
G37*
G36*
X71355218Y-54204815D02*
G01*
X71393888Y-54216546D01*
X71429527Y-54235596D01*
X71460767Y-54261233D01*
X71486404Y-54292473D01*
X71505454Y-54328112D01*
X71517185Y-54366782D01*
X71521750Y-54413138D01*
X71521750Y-55064362D01*
X71517185Y-55110718D01*
X71505454Y-55149388D01*
X71486404Y-55185027D01*
X71460767Y-55216267D01*
X71429527Y-55241904D01*
X71393888Y-55260954D01*
X71355218Y-55272685D01*
X71308862Y-55277250D01*
X70232638Y-55277250D01*
X70186282Y-55272685D01*
X70147612Y-55260954D01*
X70111973Y-55241904D01*
X70080733Y-55216267D01*
X70055096Y-55185027D01*
X70036046Y-55149388D01*
X70024315Y-55110718D01*
X70019750Y-55064362D01*
X70019750Y-54413138D01*
X70024315Y-54366782D01*
X70036046Y-54328112D01*
X70055096Y-54292473D01*
X70080733Y-54261233D01*
X70111973Y-54235596D01*
X70147612Y-54216546D01*
X70186282Y-54204815D01*
X70232638Y-54200250D01*
X71308862Y-54200250D01*
X71355218Y-54204815D01*
X71355218Y-54204815D01*
G37*
G36*
X65976750Y-55253750D02*
G01*
X64474750Y-55253750D01*
X64474750Y-53951750D01*
X65976750Y-53951750D01*
X65976750Y-55253750D01*
X65976750Y-55253750D01*
G37*
G36*
X68176750Y-55253750D02*
G01*
X66674750Y-55253750D01*
X66674750Y-53951750D01*
X68176750Y-53951750D01*
X68176750Y-55253750D01*
X68176750Y-55253750D01*
G37*
G36*
X39357377Y-52460037D02*
G01*
X39527216Y-52511557D01*
X39683741Y-52595222D01*
X39719479Y-52624552D01*
X39820936Y-52707814D01*
X39887188Y-52788544D01*
X39933528Y-52845009D01*
X40017193Y-53001534D01*
X40068713Y-53171373D01*
X40070107Y-53185528D01*
X40079667Y-53282587D01*
X40081750Y-53303742D01*
X40081750Y-54392258D01*
X40068713Y-54524627D01*
X40017193Y-54694466D01*
X39933528Y-54850991D01*
X39904198Y-54886729D01*
X39820936Y-54988186D01*
X39683739Y-55100779D01*
X39646690Y-55120582D01*
X39527215Y-55184443D01*
X39357376Y-55235963D01*
X39180750Y-55253359D01*
X39004123Y-55235963D01*
X38834284Y-55184443D01*
X38677759Y-55100778D01*
X38629899Y-55061500D01*
X38540564Y-54988186D01*
X38427971Y-54850989D01*
X38344308Y-54694467D01*
X38344307Y-54694465D01*
X38292787Y-54524626D01*
X38282184Y-54416972D01*
X38279750Y-54392259D01*
X38279751Y-53303740D01*
X38291394Y-53185528D01*
X38292788Y-53171373D01*
X38344308Y-53001534D01*
X38427973Y-52845009D01*
X38474313Y-52788544D01*
X38540565Y-52707814D01*
X38642022Y-52624552D01*
X38677760Y-52595222D01*
X38834285Y-52511557D01*
X39004124Y-52460037D01*
X39180750Y-52442641D01*
X39357377Y-52460037D01*
X39357377Y-52460037D01*
G37*
G36*
X46657377Y-52460037D02*
G01*
X46827216Y-52511557D01*
X46983741Y-52595222D01*
X47019479Y-52624552D01*
X47120936Y-52707814D01*
X47187188Y-52788544D01*
X47233528Y-52845009D01*
X47317193Y-53001534D01*
X47368713Y-53171373D01*
X47370107Y-53185528D01*
X47379667Y-53282587D01*
X47381750Y-53303742D01*
X47381750Y-54392258D01*
X47368713Y-54524627D01*
X47317193Y-54694466D01*
X47233528Y-54850991D01*
X47204198Y-54886729D01*
X47120936Y-54988186D01*
X46983739Y-55100779D01*
X46946690Y-55120582D01*
X46827215Y-55184443D01*
X46657376Y-55235963D01*
X46480750Y-55253359D01*
X46304123Y-55235963D01*
X46134284Y-55184443D01*
X45977759Y-55100778D01*
X45929899Y-55061500D01*
X45840564Y-54988186D01*
X45727971Y-54850989D01*
X45644308Y-54694467D01*
X45644307Y-54694465D01*
X45592787Y-54524626D01*
X45582184Y-54416972D01*
X45579750Y-54392259D01*
X45579751Y-53303740D01*
X45591394Y-53185528D01*
X45592788Y-53171373D01*
X45644308Y-53001534D01*
X45727973Y-52845009D01*
X45774313Y-52788544D01*
X45840565Y-52707814D01*
X45942022Y-52624552D01*
X45977760Y-52595222D01*
X46134285Y-52511557D01*
X46304124Y-52460037D01*
X46480750Y-52442641D01*
X46657377Y-52460037D01*
X46657377Y-52460037D01*
G37*
G36*
X44731750Y-55024000D02*
G01*
X40929750Y-55024000D01*
X40929750Y-52672000D01*
X44731750Y-52672000D01*
X44731750Y-55024000D01*
X44731750Y-55024000D01*
G37*
G36*
X91528127Y-50892261D02*
G01*
X91548900Y-50894000D01*
X91555827Y-50894000D01*
X91650754Y-50912882D01*
X91654348Y-50913542D01*
X91749730Y-50929624D01*
X91756203Y-50932085D01*
X91776228Y-50937841D01*
X91783027Y-50939193D01*
X91845414Y-50965034D01*
X91872443Y-50976230D01*
X91875844Y-50977581D01*
X91966255Y-51011961D01*
X91972127Y-51015640D01*
X91990636Y-51025187D01*
X91997045Y-51027842D01*
X92077563Y-51081642D01*
X92080554Y-51083578D01*
X92162557Y-51134959D01*
X92167584Y-51139700D01*
X92183896Y-51152691D01*
X92189652Y-51156537D01*
X92258110Y-51224995D01*
X92260689Y-51227499D01*
X92331090Y-51293889D01*
X92335095Y-51299519D01*
X92348559Y-51315444D01*
X92353459Y-51320344D01*
X92407244Y-51400839D01*
X92409291Y-51403807D01*
X92465380Y-51482645D01*
X92468214Y-51488958D01*
X92478308Y-51507193D01*
X92482158Y-51512955D01*
X92519220Y-51602430D01*
X92520624Y-51605685D01*
X92560265Y-51693973D01*
X92561815Y-51700725D01*
X92568152Y-51720562D01*
X92570807Y-51726973D01*
X92589692Y-51821917D01*
X92590438Y-51825401D01*
X92612098Y-51919751D01*
X92612098Y-51919754D01*
X92612300Y-51926654D01*
X92614647Y-51947370D01*
X92616000Y-51954174D01*
X92616000Y-52050986D01*
X92616053Y-52054584D01*
X92617188Y-52093277D01*
X92616295Y-52106225D01*
X92616000Y-52114797D01*
X92616000Y-52185826D01*
X92610081Y-52215585D01*
X92609604Y-52217979D01*
X92607500Y-52233750D01*
X92569238Y-52788545D01*
X92540376Y-52959730D01*
X92458038Y-53176255D01*
X92335041Y-53372557D01*
X92176111Y-53541090D01*
X91987355Y-53675380D01*
X91776027Y-53770265D01*
X91550249Y-53822098D01*
X91318698Y-53828889D01*
X91318697Y-53828889D01*
X91273012Y-53821186D01*
X91090270Y-53790376D01*
X90873745Y-53708038D01*
X90677443Y-53585041D01*
X90508910Y-53426111D01*
X90374620Y-53237355D01*
X90279735Y-53026027D01*
X90227902Y-52800249D01*
X90222812Y-52626723D01*
X90263704Y-52033794D01*
X90264000Y-52025196D01*
X90264000Y-51954175D01*
X90282882Y-51859250D01*
X90283544Y-51855645D01*
X90289231Y-51821917D01*
X90299624Y-51760270D01*
X90302085Y-51753799D01*
X90307842Y-51733767D01*
X90309193Y-51726974D01*
X90311843Y-51720576D01*
X90346264Y-51637476D01*
X90347553Y-51634230D01*
X90381962Y-51543745D01*
X90385636Y-51537881D01*
X90395187Y-51519365D01*
X90397842Y-51512955D01*
X90451657Y-51432415D01*
X90453577Y-51429449D01*
X90504959Y-51347443D01*
X90509711Y-51342404D01*
X90522689Y-51326107D01*
X90526537Y-51320348D01*
X90594993Y-51251892D01*
X90597546Y-51249262D01*
X90618023Y-51227548D01*
X90663889Y-51178910D01*
X90669521Y-51174903D01*
X90685447Y-51161438D01*
X90690346Y-51156539D01*
X90770824Y-51102766D01*
X90773806Y-51100710D01*
X90852645Y-51044620D01*
X90858955Y-51041787D01*
X90877194Y-51031691D01*
X90882951Y-51027844D01*
X90882954Y-51027843D01*
X90882955Y-51027842D01*
X90972429Y-50990781D01*
X90975687Y-50989375D01*
X91063973Y-50949735D01*
X91070725Y-50948185D01*
X91090562Y-50941848D01*
X91096973Y-50939193D01*
X91191899Y-50920311D01*
X91195446Y-50919551D01*
X91289751Y-50897901D01*
X91292130Y-50897831D01*
X91296665Y-50897698D01*
X91317381Y-50895351D01*
X91324174Y-50894000D01*
X91420959Y-50894000D01*
X91424584Y-50893947D01*
X91521302Y-50891110D01*
X91528127Y-50892261D01*
X91528127Y-50892261D01*
G37*
G36*
X110578127Y-50892261D02*
G01*
X110598900Y-50894000D01*
X110605827Y-50894000D01*
X110700754Y-50912882D01*
X110704348Y-50913542D01*
X110799730Y-50929624D01*
X110806203Y-50932085D01*
X110826228Y-50937841D01*
X110833027Y-50939193D01*
X110895414Y-50965034D01*
X110922443Y-50976230D01*
X110925844Y-50977581D01*
X111016255Y-51011961D01*
X111022127Y-51015640D01*
X111040636Y-51025187D01*
X111047045Y-51027842D01*
X111127563Y-51081642D01*
X111130554Y-51083578D01*
X111212557Y-51134959D01*
X111217584Y-51139700D01*
X111233896Y-51152691D01*
X111239652Y-51156537D01*
X111308110Y-51224995D01*
X111310689Y-51227499D01*
X111381090Y-51293889D01*
X111385095Y-51299519D01*
X111398559Y-51315444D01*
X111403459Y-51320344D01*
X111457244Y-51400839D01*
X111459291Y-51403807D01*
X111515380Y-51482645D01*
X111518214Y-51488958D01*
X111528308Y-51507193D01*
X111532158Y-51512955D01*
X111569220Y-51602430D01*
X111570624Y-51605685D01*
X111610265Y-51693973D01*
X111611815Y-51700725D01*
X111618152Y-51720562D01*
X111620807Y-51726973D01*
X111639692Y-51821917D01*
X111640438Y-51825401D01*
X111662098Y-51919751D01*
X111662098Y-51919754D01*
X111662300Y-51926654D01*
X111664647Y-51947370D01*
X111666000Y-51954174D01*
X111666000Y-52050986D01*
X111666053Y-52054584D01*
X111667188Y-52093277D01*
X111666295Y-52106225D01*
X111666000Y-52114797D01*
X111666000Y-52185826D01*
X111660081Y-52215585D01*
X111659604Y-52217979D01*
X111657500Y-52233750D01*
X111619238Y-52788545D01*
X111590376Y-52959730D01*
X111508038Y-53176255D01*
X111385041Y-53372557D01*
X111226111Y-53541090D01*
X111037355Y-53675380D01*
X110826027Y-53770265D01*
X110600249Y-53822098D01*
X110368698Y-53828889D01*
X110368697Y-53828889D01*
X110323012Y-53821186D01*
X110140270Y-53790376D01*
X109923745Y-53708038D01*
X109727443Y-53585041D01*
X109558910Y-53426111D01*
X109424620Y-53237355D01*
X109329735Y-53026027D01*
X109277902Y-52800249D01*
X109272812Y-52626723D01*
X109313704Y-52033794D01*
X109314000Y-52025196D01*
X109314000Y-51954175D01*
X109332882Y-51859250D01*
X109333544Y-51855645D01*
X109339231Y-51821917D01*
X109349624Y-51760270D01*
X109352085Y-51753799D01*
X109357842Y-51733767D01*
X109359193Y-51726974D01*
X109361843Y-51720576D01*
X109396264Y-51637476D01*
X109397553Y-51634230D01*
X109431962Y-51543745D01*
X109435636Y-51537881D01*
X109445187Y-51519365D01*
X109447842Y-51512955D01*
X109501657Y-51432415D01*
X109503577Y-51429449D01*
X109554959Y-51347443D01*
X109559711Y-51342404D01*
X109572689Y-51326107D01*
X109576537Y-51320348D01*
X109644993Y-51251892D01*
X109647546Y-51249262D01*
X109668023Y-51227548D01*
X109713889Y-51178910D01*
X109719521Y-51174903D01*
X109735447Y-51161438D01*
X109740346Y-51156539D01*
X109820824Y-51102766D01*
X109823806Y-51100710D01*
X109902645Y-51044620D01*
X109908955Y-51041787D01*
X109927194Y-51031691D01*
X109932951Y-51027844D01*
X109932954Y-51027843D01*
X109932955Y-51027842D01*
X110022429Y-50990781D01*
X110025687Y-50989375D01*
X110113973Y-50949735D01*
X110120725Y-50948185D01*
X110140562Y-50941848D01*
X110146973Y-50939193D01*
X110241899Y-50920311D01*
X110245446Y-50919551D01*
X110339751Y-50897901D01*
X110342130Y-50897831D01*
X110346665Y-50897698D01*
X110367381Y-50895351D01*
X110374174Y-50894000D01*
X110470959Y-50894000D01*
X110474584Y-50893947D01*
X110571302Y-50891110D01*
X110578127Y-50892261D01*
X110578127Y-50892261D01*
G37*
G36*
X65976750Y-53553750D02*
G01*
X64474750Y-53553750D01*
X64474750Y-52251750D01*
X65976750Y-52251750D01*
X65976750Y-53553750D01*
X65976750Y-53553750D01*
G37*
G36*
X68176750Y-53553750D02*
G01*
X66674750Y-53553750D01*
X66674750Y-52251750D01*
X68176750Y-52251750D01*
X68176750Y-53553750D01*
X68176750Y-53553750D01*
G37*
G36*
X62465218Y-52329815D02*
G01*
X62503888Y-52341546D01*
X62539527Y-52360596D01*
X62570767Y-52386233D01*
X62596404Y-52417473D01*
X62615454Y-52453112D01*
X62627185Y-52491782D01*
X62631750Y-52538138D01*
X62631750Y-53189362D01*
X62627185Y-53235718D01*
X62615454Y-53274388D01*
X62596404Y-53310027D01*
X62570767Y-53341267D01*
X62539527Y-53366904D01*
X62503888Y-53385954D01*
X62465218Y-53397685D01*
X62418862Y-53402250D01*
X61342638Y-53402250D01*
X61296282Y-53397685D01*
X61257612Y-53385954D01*
X61221973Y-53366904D01*
X61190733Y-53341267D01*
X61165096Y-53310027D01*
X61146046Y-53274388D01*
X61134315Y-53235718D01*
X61129750Y-53189362D01*
X61129750Y-52538138D01*
X61134315Y-52491782D01*
X61146046Y-52453112D01*
X61165096Y-52417473D01*
X61190733Y-52386233D01*
X61221973Y-52360596D01*
X61257612Y-52341546D01*
X61296282Y-52329815D01*
X61342638Y-52325250D01*
X62418862Y-52325250D01*
X62465218Y-52329815D01*
X62465218Y-52329815D01*
G37*
G36*
X71355218Y-52329815D02*
G01*
X71393888Y-52341546D01*
X71429527Y-52360596D01*
X71460767Y-52386233D01*
X71486404Y-52417473D01*
X71505454Y-52453112D01*
X71517185Y-52491782D01*
X71521750Y-52538138D01*
X71521750Y-53189362D01*
X71517185Y-53235718D01*
X71505454Y-53274388D01*
X71486404Y-53310027D01*
X71460767Y-53341267D01*
X71429527Y-53366904D01*
X71393888Y-53385954D01*
X71355218Y-53397685D01*
X71308862Y-53402250D01*
X70232638Y-53402250D01*
X70186282Y-53397685D01*
X70147612Y-53385954D01*
X70111973Y-53366904D01*
X70080733Y-53341267D01*
X70055096Y-53310027D01*
X70036046Y-53274388D01*
X70024315Y-53235718D01*
X70019750Y-53189362D01*
X70019750Y-52538138D01*
X70024315Y-52491782D01*
X70036046Y-52453112D01*
X70055096Y-52417473D01*
X70080733Y-52386233D01*
X70111973Y-52360596D01*
X70147612Y-52341546D01*
X70186282Y-52329815D01*
X70232638Y-52325250D01*
X71308862Y-52325250D01*
X71355218Y-52329815D01*
X71355218Y-52329815D01*
G37*
G36*
X39357377Y-47960037D02*
G01*
X39527216Y-48011557D01*
X39683741Y-48095222D01*
X39719479Y-48124552D01*
X39820936Y-48207814D01*
X39904198Y-48309271D01*
X39933528Y-48345009D01*
X40017193Y-48501534D01*
X40068713Y-48671373D01*
X40081750Y-48803742D01*
X40081750Y-49892258D01*
X40068713Y-50024627D01*
X40017193Y-50194466D01*
X39933528Y-50350991D01*
X39904198Y-50386729D01*
X39820936Y-50488186D01*
X39683739Y-50600779D01*
X39527217Y-50684442D01*
X39527215Y-50684443D01*
X39357376Y-50735963D01*
X39180750Y-50753359D01*
X39004123Y-50735963D01*
X38834284Y-50684443D01*
X38677759Y-50600778D01*
X38642021Y-50571448D01*
X38540564Y-50488186D01*
X38427971Y-50350989D01*
X38344308Y-50194467D01*
X38344307Y-50194465D01*
X38292787Y-50024626D01*
X38279750Y-49892257D01*
X38279751Y-48803742D01*
X38292788Y-48671373D01*
X38344308Y-48501534D01*
X38427973Y-48345009D01*
X38457303Y-48309271D01*
X38540565Y-48207814D01*
X38642022Y-48124552D01*
X38677760Y-48095222D01*
X38834285Y-48011557D01*
X39004124Y-47960037D01*
X39180750Y-47942641D01*
X39357377Y-47960037D01*
X39357377Y-47960037D01*
G37*
G36*
X46657377Y-47960037D02*
G01*
X46827216Y-48011557D01*
X46983741Y-48095222D01*
X47019479Y-48124552D01*
X47120936Y-48207814D01*
X47204198Y-48309271D01*
X47233528Y-48345009D01*
X47317193Y-48501534D01*
X47368713Y-48671373D01*
X47381750Y-48803742D01*
X47381750Y-49892258D01*
X47368713Y-50024627D01*
X47317193Y-50194466D01*
X47233528Y-50350991D01*
X47204198Y-50386729D01*
X47120936Y-50488186D01*
X46983739Y-50600779D01*
X46827217Y-50684442D01*
X46827215Y-50684443D01*
X46657376Y-50735963D01*
X46480750Y-50753359D01*
X46304123Y-50735963D01*
X46134284Y-50684443D01*
X45977759Y-50600778D01*
X45942021Y-50571448D01*
X45840564Y-50488186D01*
X45727971Y-50350989D01*
X45644308Y-50194467D01*
X45644307Y-50194465D01*
X45592787Y-50024626D01*
X45579750Y-49892257D01*
X45579751Y-48803742D01*
X45592788Y-48671373D01*
X45644308Y-48501534D01*
X45727973Y-48345009D01*
X45757303Y-48309271D01*
X45840565Y-48207814D01*
X45942022Y-48124552D01*
X45977760Y-48095222D01*
X46134285Y-48011557D01*
X46304124Y-47960037D01*
X46480750Y-47942641D01*
X46657377Y-47960037D01*
X46657377Y-47960037D01*
G37*
M02*
