M48
; DRILL file {KiCad (5.1.4)-1} date 06/08/2020 20:10:10
; FORMAT={-:-/ absolute / inch / decimal}
; #@! TF.CreationDate,2020-08-06T20:10:10-07:00
; #@! TF.GenerationSoftware,Kicad,Pcbnew,(5.1.4)-1
; #@! TF.FileFunction,Plated,1,2,PTH
FMAT,2
INCH
T1C0.0157
T2C0.0276
T3C0.0579
%
G90
G05
T1
X1.81Y-2.47
X1.81Y-2.845
X1.865Y-2.88
X1.885Y-2.535
X1.91Y-2.74
X2.07Y-2.6756
X2.07Y-2.715
X2.13Y-2.96
X2.225Y-2.715
X2.2489Y-2.6781
X2.28Y-2.585
X2.28Y-2.74
X2.28Y-2.83
X2.43Y-3.075
X2.515Y-2.33
X2.77Y-2.925
X3.07Y-2.515
X3.35Y-2.31
X3.35Y-2.6121
X3.35Y-2.785
X3.4Y-2.6494
X4.1Y-2.31
X4.1Y-2.785
T3
X3.35Y-2.15
X3.4016Y-2.0925
X3.5984Y-2.0728
X3.6Y-2.05
X4.1Y-2.15
X4.1516Y-2.0925
X4.3484Y-2.0728
X4.35Y-2.05
X3.35Y-2.9
X3.4016Y-2.8425
X3.5984Y-2.8228
X3.6Y-2.8
X4.1Y-2.9
X4.1516Y-2.8425
X4.3484Y-2.8228
X4.35Y-2.8
T2
G00X1.5425Y-1.9192
M15
G01X1.5425Y-1.9665
M16
G05
G00X1.5425Y-2.0964
M15
G01X1.5425Y-2.1436
M16
G05
G00X1.83Y-1.9192
M15
G01X1.83Y-1.9665
M16
G05
G00X1.83Y-2.0964
M15
G01X1.83Y-2.1436
M16
G05
T0
M30
