G04 #@! TF.GenerationSoftware,KiCad,Pcbnew,(5.1.4)-1*
G04 #@! TF.CreationDate,2020-08-06T19:14:10-07:00*
G04 #@! TF.ProjectId,ai03-pcb-guide,61693033-2d70-4636-922d-67756964652e,rev?*
G04 #@! TF.SameCoordinates,Original*
G04 #@! TF.FileFunction,Legend,Bot*
G04 #@! TF.FilePolarity,Positive*
%FSLAX46Y46*%
G04 Gerber Fmt 4.6, Leading zero omitted, Abs format (unit mm)*
G04 Created by KiCad (PCBNEW (5.1.4)-1) date 2020-08-06 19:14:10*
%MOMM*%
%LPD*%
G04 APERTURE LIST*
%ADD10C,0.150000*%
%ADD11C,0.120000*%
%ADD12R,0.652000X1.602000*%
%ADD13R,1.602000X0.652000*%
%ADD14R,1.502000X1.302000*%
%ADD15O,1.802000X2.802000*%
%ADD16R,0.602000X2.352000*%
%ADD17R,1.902000X1.202000*%
%ADD18C,0.100000*%
%ADD19C,1.077000*%
%ADD20C,1.852000*%
%ADD21C,2.352000*%
%ADD22C,4.089800*%
%ADD23C,2.352000*%
%ADD24C,1.352000*%
%ADD25R,1.302000X1.002000*%
G04 APERTURE END LIST*
D10*
X70579761Y-79621130D02*
X70008333Y-79621130D01*
X70294047Y-80621130D02*
X70294047Y-79621130D01*
X69675000Y-80621130D02*
X69675000Y-79621130D01*
X69246428Y-80621130D02*
X69246428Y-80097321D01*
X69294047Y-80002083D01*
X69389285Y-79954464D01*
X69532142Y-79954464D01*
X69627380Y-80002083D01*
X69675000Y-80049702D01*
X68389285Y-80573511D02*
X68484523Y-80621130D01*
X68675000Y-80621130D01*
X68770238Y-80573511D01*
X68817857Y-80478273D01*
X68817857Y-80097321D01*
X68770238Y-80002083D01*
X68675000Y-79954464D01*
X68484523Y-79954464D01*
X68389285Y-80002083D01*
X68341666Y-80097321D01*
X68341666Y-80192559D01*
X68817857Y-80287797D01*
X66817857Y-80097321D02*
X66675000Y-80144940D01*
X66627380Y-80192559D01*
X66579761Y-80287797D01*
X66579761Y-80430654D01*
X66627380Y-80525892D01*
X66675000Y-80573511D01*
X66770238Y-80621130D01*
X67151190Y-80621130D01*
X67151190Y-79621130D01*
X66817857Y-79621130D01*
X66722619Y-79668750D01*
X66675000Y-79716369D01*
X66627380Y-79811607D01*
X66627380Y-79906845D01*
X66675000Y-80002083D01*
X66722619Y-80049702D01*
X66817857Y-80097321D01*
X67151190Y-80097321D01*
X66151190Y-80621130D02*
X66151190Y-79954464D01*
X66151190Y-80144940D02*
X66103571Y-80049702D01*
X66055952Y-80002083D01*
X65960714Y-79954464D01*
X65865476Y-79954464D01*
X65103571Y-80621130D02*
X65103571Y-80097321D01*
X65151190Y-80002083D01*
X65246428Y-79954464D01*
X65436904Y-79954464D01*
X65532142Y-80002083D01*
X65103571Y-80573511D02*
X65198809Y-80621130D01*
X65436904Y-80621130D01*
X65532142Y-80573511D01*
X65579761Y-80478273D01*
X65579761Y-80383035D01*
X65532142Y-80287797D01*
X65436904Y-80240178D01*
X65198809Y-80240178D01*
X65103571Y-80192559D01*
X64627380Y-80621130D02*
X64627380Y-79954464D01*
X64627380Y-79621130D02*
X64675000Y-79668750D01*
X64627380Y-79716369D01*
X64579761Y-79668750D01*
X64627380Y-79621130D01*
X64627380Y-79716369D01*
X64151190Y-79954464D02*
X64151190Y-80621130D01*
X64151190Y-80049702D02*
X64103571Y-80002083D01*
X64008333Y-79954464D01*
X63865476Y-79954464D01*
X63770238Y-80002083D01*
X63722619Y-80097321D01*
X63722619Y-80621130D01*
X63294047Y-80573511D02*
X63198809Y-80621130D01*
X63008333Y-80621130D01*
X62913095Y-80573511D01*
X62865476Y-80478273D01*
X62865476Y-80430654D01*
X62913095Y-80335416D01*
X63008333Y-80287797D01*
X63151190Y-80287797D01*
X63246428Y-80240178D01*
X63294047Y-80144940D01*
X63294047Y-80097321D01*
X63246428Y-80002083D01*
X63151190Y-79954464D01*
X63008333Y-79954464D01*
X62913095Y-80002083D01*
X61119000Y-71021000D02*
X59844000Y-71021000D01*
X71469000Y-71596000D02*
X70794000Y-71596000D01*
X71469000Y-61246000D02*
X70794000Y-61246000D01*
X61119000Y-61246000D02*
X61794000Y-61246000D01*
X61119000Y-71596000D02*
X61794000Y-71596000D01*
X61119000Y-61246000D02*
X61119000Y-61921000D01*
X71469000Y-61246000D02*
X71469000Y-61921000D01*
X71469000Y-71596000D02*
X71469000Y-70921000D01*
X61119000Y-71596000D02*
X61119000Y-71021000D01*
D11*
X68325750Y-55402750D02*
X64325750Y-55402750D01*
X68325750Y-52102750D02*
X68325750Y-55402750D01*
D10*
X38980750Y-49348000D02*
X38980750Y-54798000D01*
X46680750Y-49348000D02*
X46680750Y-54798000D01*
X38980750Y-54798000D02*
X46680750Y-54798000D01*
X44637000Y-75854250D02*
X39437000Y-75854250D01*
X39437000Y-75854250D02*
X39437000Y-81054250D01*
X39437000Y-81054250D02*
X44637000Y-81054250D01*
X44637000Y-81054250D02*
X44637000Y-75854250D01*
X43037000Y-78454250D02*
G75*
G03X43037000Y-78454250I-1000000J0D01*
G01*
D11*
X70209672Y-75363000D02*
X70726828Y-75363000D01*
X70209672Y-76783000D02*
X70726828Y-76783000D01*
X49153578Y-77164000D02*
X48636422Y-77164000D01*
X49153578Y-75744000D02*
X48636422Y-75744000D01*
X42914500Y-59806578D02*
X42914500Y-59289422D01*
X44334500Y-59806578D02*
X44334500Y-59289422D01*
X40533250Y-59806578D02*
X40533250Y-59289422D01*
X41953250Y-59806578D02*
X41953250Y-59289422D01*
X34777000Y-67756314D02*
X34777000Y-66552186D01*
X36597000Y-67756314D02*
X36597000Y-66552186D01*
X116887500Y-78512500D02*
X116887500Y-74612500D01*
X114887500Y-78512500D02*
X114887500Y-74612500D01*
X116887500Y-78512500D02*
X114887500Y-78512500D01*
X116887500Y-59462500D02*
X116887500Y-55562500D01*
X114887500Y-59462500D02*
X114887500Y-55562500D01*
X116887500Y-59462500D02*
X114887500Y-59462500D01*
X97837500Y-78512500D02*
X97837500Y-74612500D01*
X95837500Y-78512500D02*
X95837500Y-74612500D01*
X97837500Y-78512500D02*
X95837500Y-78512500D01*
X97837500Y-59462500D02*
X97837500Y-55562500D01*
X95837500Y-59462500D02*
X95837500Y-55562500D01*
X97837500Y-59462500D02*
X95837500Y-59462500D01*
X45295750Y-69608172D02*
X45295750Y-70125328D01*
X46715750Y-69608172D02*
X46715750Y-70125328D01*
X55193000Y-66972922D02*
X55193000Y-67490078D01*
X53773000Y-66972922D02*
X53773000Y-67490078D01*
X62590750Y-53542672D02*
X62590750Y-54059828D01*
X61170750Y-53542672D02*
X61170750Y-54059828D01*
X70060750Y-54059828D02*
X70060750Y-53542672D01*
X71480750Y-54059828D02*
X71480750Y-53542672D01*
X75458250Y-63075078D02*
X75458250Y-62557922D01*
X76878250Y-63075078D02*
X76878250Y-62557922D01*
X62559672Y-75363000D02*
X63076828Y-75363000D01*
X62559672Y-76783000D02*
X63076828Y-76783000D01*
X53773000Y-71171328D02*
X53773000Y-70654172D01*
X55193000Y-71171328D02*
X55193000Y-70654172D01*
D10*
X67055904Y-73323380D02*
X67055904Y-74132904D01*
X67008285Y-74228142D01*
X66960666Y-74275761D01*
X66865428Y-74323380D01*
X66674952Y-74323380D01*
X66579714Y-74275761D01*
X66532095Y-74228142D01*
X66484476Y-74132904D01*
X66484476Y-73323380D01*
X65484476Y-74323380D02*
X66055904Y-74323380D01*
X65770190Y-74323380D02*
X65770190Y-73323380D01*
X65865428Y-73466238D01*
X65960666Y-73561476D01*
X66055904Y-73609095D01*
X66801940Y-51278940D02*
X66801940Y-51755130D01*
X67135273Y-50755130D02*
X66801940Y-51278940D01*
X66468607Y-50755130D01*
X65611464Y-51755130D02*
X66182892Y-51755130D01*
X65897178Y-51755130D02*
X65897178Y-50755130D01*
X65992416Y-50897988D01*
X66087654Y-50993226D01*
X66182892Y-51040845D01*
X44568845Y-50832380D02*
X44568845Y-51641904D01*
X44521226Y-51737142D01*
X44473607Y-51784761D01*
X44378369Y-51832380D01*
X44187892Y-51832380D01*
X44092654Y-51784761D01*
X44045035Y-51737142D01*
X43997416Y-51641904D01*
X43997416Y-50832380D01*
X43568845Y-51784761D02*
X43425988Y-51832380D01*
X43187892Y-51832380D01*
X43092654Y-51784761D01*
X43045035Y-51737142D01*
X42997416Y-51641904D01*
X42997416Y-51546666D01*
X43045035Y-51451428D01*
X43092654Y-51403809D01*
X43187892Y-51356190D01*
X43378369Y-51308571D01*
X43473607Y-51260952D01*
X43521226Y-51213333D01*
X43568845Y-51118095D01*
X43568845Y-51022857D01*
X43521226Y-50927619D01*
X43473607Y-50880000D01*
X43378369Y-50832380D01*
X43140273Y-50832380D01*
X42997416Y-50880000D01*
X42235511Y-51308571D02*
X42092654Y-51356190D01*
X42045035Y-51403809D01*
X41997416Y-51499047D01*
X41997416Y-51641904D01*
X42045035Y-51737142D01*
X42092654Y-51784761D01*
X42187892Y-51832380D01*
X42568845Y-51832380D01*
X42568845Y-50832380D01*
X42235511Y-50832380D01*
X42140273Y-50880000D01*
X42092654Y-50927619D01*
X42045035Y-51022857D01*
X42045035Y-51118095D01*
X42092654Y-51213333D01*
X42140273Y-51260952D01*
X42235511Y-51308571D01*
X42568845Y-51308571D01*
X41045035Y-51832380D02*
X41616464Y-51832380D01*
X41330750Y-51832380D02*
X41330750Y-50832380D01*
X41425988Y-50975238D01*
X41521226Y-51070476D01*
X41616464Y-51118095D01*
X43370333Y-82923011D02*
X43227476Y-82970630D01*
X42989380Y-82970630D01*
X42894142Y-82923011D01*
X42846523Y-82875392D01*
X42798904Y-82780154D01*
X42798904Y-82684916D01*
X42846523Y-82589678D01*
X42894142Y-82542059D01*
X42989380Y-82494440D01*
X43179857Y-82446821D01*
X43275095Y-82399202D01*
X43322714Y-82351583D01*
X43370333Y-82256345D01*
X43370333Y-82161107D01*
X43322714Y-82065869D01*
X43275095Y-82018250D01*
X43179857Y-81970630D01*
X42941761Y-81970630D01*
X42798904Y-82018250D01*
X42465571Y-81970630D02*
X42227476Y-82970630D01*
X42037000Y-82256345D01*
X41846523Y-82970630D01*
X41608428Y-81970630D01*
X40703666Y-82970630D02*
X41275095Y-82970630D01*
X40989380Y-82970630D02*
X40989380Y-81970630D01*
X41084619Y-82113488D01*
X41179857Y-82208726D01*
X41275095Y-82256345D01*
X70634916Y-78175380D02*
X70968250Y-77699190D01*
X71206345Y-78175380D02*
X71206345Y-77175380D01*
X70825392Y-77175380D01*
X70730154Y-77223000D01*
X70682535Y-77270619D01*
X70634916Y-77365857D01*
X70634916Y-77508714D01*
X70682535Y-77603952D01*
X70730154Y-77651571D01*
X70825392Y-77699190D01*
X71206345Y-77699190D01*
X69777773Y-77508714D02*
X69777773Y-78175380D01*
X70015869Y-77127761D02*
X70253964Y-77842047D01*
X69634916Y-77842047D01*
X49061666Y-75256380D02*
X49395000Y-74780190D01*
X49633095Y-75256380D02*
X49633095Y-74256380D01*
X49252142Y-74256380D01*
X49156904Y-74304000D01*
X49109285Y-74351619D01*
X49061666Y-74446857D01*
X49061666Y-74589714D01*
X49109285Y-74684952D01*
X49156904Y-74732571D01*
X49252142Y-74780190D01*
X49633095Y-74780190D01*
X48728333Y-74256380D02*
X48109285Y-74256380D01*
X48442619Y-74637333D01*
X48299761Y-74637333D01*
X48204523Y-74684952D01*
X48156904Y-74732571D01*
X48109285Y-74827809D01*
X48109285Y-75065904D01*
X48156904Y-75161142D01*
X48204523Y-75208761D01*
X48299761Y-75256380D01*
X48585476Y-75256380D01*
X48680714Y-75208761D01*
X48728333Y-75161142D01*
X45726880Y-59381333D02*
X45250690Y-59048000D01*
X45726880Y-58809904D02*
X44726880Y-58809904D01*
X44726880Y-59190857D01*
X44774500Y-59286095D01*
X44822119Y-59333714D01*
X44917357Y-59381333D01*
X45060214Y-59381333D01*
X45155452Y-59333714D01*
X45203071Y-59286095D01*
X45250690Y-59190857D01*
X45250690Y-58809904D01*
X44822119Y-59762285D02*
X44774500Y-59809904D01*
X44726880Y-59905142D01*
X44726880Y-60143238D01*
X44774500Y-60238476D01*
X44822119Y-60286095D01*
X44917357Y-60333714D01*
X45012595Y-60333714D01*
X45155452Y-60286095D01*
X45726880Y-59714666D01*
X45726880Y-60333714D01*
X40108130Y-59381333D02*
X39631940Y-59048000D01*
X40108130Y-58809904D02*
X39108130Y-58809904D01*
X39108130Y-59190857D01*
X39155750Y-59286095D01*
X39203369Y-59333714D01*
X39298607Y-59381333D01*
X39441464Y-59381333D01*
X39536702Y-59333714D01*
X39584321Y-59286095D01*
X39631940Y-59190857D01*
X39631940Y-58809904D01*
X40108130Y-60333714D02*
X40108130Y-59762285D01*
X40108130Y-60048000D02*
X39108130Y-60048000D01*
X39250988Y-59952761D01*
X39346226Y-59857523D01*
X39393845Y-59762285D01*
X37435571Y-66820916D02*
X37435571Y-66487583D01*
X37959380Y-66487583D02*
X36959380Y-66487583D01*
X36959380Y-66963773D01*
X37959380Y-67868535D02*
X37959380Y-67297107D01*
X37959380Y-67582821D02*
X36959380Y-67582821D01*
X37102238Y-67487583D01*
X37197476Y-67392345D01*
X37245095Y-67297107D01*
X116339880Y-79430654D02*
X115339880Y-79430654D01*
X115339880Y-79668750D01*
X115387500Y-79811607D01*
X115482738Y-79906845D01*
X115577976Y-79954464D01*
X115768452Y-80002083D01*
X115911309Y-80002083D01*
X116101785Y-79954464D01*
X116197023Y-79906845D01*
X116292261Y-79811607D01*
X116339880Y-79668750D01*
X116339880Y-79430654D01*
X115673214Y-80859226D02*
X116339880Y-80859226D01*
X115292261Y-80621130D02*
X116006547Y-80383035D01*
X116006547Y-81002083D01*
X116339880Y-60380654D02*
X115339880Y-60380654D01*
X115339880Y-60618750D01*
X115387500Y-60761607D01*
X115482738Y-60856845D01*
X115577976Y-60904464D01*
X115768452Y-60952083D01*
X115911309Y-60952083D01*
X116101785Y-60904464D01*
X116197023Y-60856845D01*
X116292261Y-60761607D01*
X116339880Y-60618750D01*
X116339880Y-60380654D01*
X115435119Y-61333035D02*
X115387500Y-61380654D01*
X115339880Y-61475892D01*
X115339880Y-61713988D01*
X115387500Y-61809226D01*
X115435119Y-61856845D01*
X115530357Y-61904464D01*
X115625595Y-61904464D01*
X115768452Y-61856845D01*
X116339880Y-61285416D01*
X116339880Y-61904464D01*
X97289880Y-79430654D02*
X96289880Y-79430654D01*
X96289880Y-79668750D01*
X96337500Y-79811607D01*
X96432738Y-79906845D01*
X96527976Y-79954464D01*
X96718452Y-80002083D01*
X96861309Y-80002083D01*
X97051785Y-79954464D01*
X97147023Y-79906845D01*
X97242261Y-79811607D01*
X97289880Y-79668750D01*
X97289880Y-79430654D01*
X96289880Y-80335416D02*
X96289880Y-80954464D01*
X96670833Y-80621130D01*
X96670833Y-80763988D01*
X96718452Y-80859226D01*
X96766071Y-80906845D01*
X96861309Y-80954464D01*
X97099404Y-80954464D01*
X97194642Y-80906845D01*
X97242261Y-80859226D01*
X97289880Y-80763988D01*
X97289880Y-80478273D01*
X97242261Y-80383035D01*
X97194642Y-80335416D01*
X97289880Y-60380654D02*
X96289880Y-60380654D01*
X96289880Y-60618750D01*
X96337500Y-60761607D01*
X96432738Y-60856845D01*
X96527976Y-60904464D01*
X96718452Y-60952083D01*
X96861309Y-60952083D01*
X97051785Y-60904464D01*
X97147023Y-60856845D01*
X97242261Y-60761607D01*
X97289880Y-60618750D01*
X97289880Y-60380654D01*
X97289880Y-61904464D02*
X97289880Y-61333035D01*
X97289880Y-61618750D02*
X96289880Y-61618750D01*
X96432738Y-61523511D01*
X96527976Y-61428273D01*
X96575595Y-61333035D01*
X44712892Y-69700083D02*
X44760511Y-69652464D01*
X44808130Y-69509607D01*
X44808130Y-69414369D01*
X44760511Y-69271511D01*
X44665273Y-69176273D01*
X44570035Y-69128654D01*
X44379559Y-69081035D01*
X44236702Y-69081035D01*
X44046226Y-69128654D01*
X43950988Y-69176273D01*
X43855750Y-69271511D01*
X43808130Y-69414369D01*
X43808130Y-69509607D01*
X43855750Y-69652464D01*
X43903369Y-69700083D01*
X43808130Y-70033416D02*
X43808130Y-70700083D01*
X44808130Y-70271511D01*
X53190142Y-67064833D02*
X53237761Y-67017214D01*
X53285380Y-66874357D01*
X53285380Y-66779119D01*
X53237761Y-66636261D01*
X53142523Y-66541023D01*
X53047285Y-66493404D01*
X52856809Y-66445785D01*
X52713952Y-66445785D01*
X52523476Y-66493404D01*
X52428238Y-66541023D01*
X52333000Y-66636261D01*
X52285380Y-66779119D01*
X52285380Y-66874357D01*
X52333000Y-67017214D01*
X52380619Y-67064833D01*
X52285380Y-67921976D02*
X52285380Y-67731500D01*
X52333000Y-67636261D01*
X52380619Y-67588642D01*
X52523476Y-67493404D01*
X52713952Y-67445785D01*
X53094904Y-67445785D01*
X53190142Y-67493404D01*
X53237761Y-67541023D01*
X53285380Y-67636261D01*
X53285380Y-67826738D01*
X53237761Y-67921976D01*
X53190142Y-67969595D01*
X53094904Y-68017214D01*
X52856809Y-68017214D01*
X52761571Y-67969595D01*
X52713952Y-67921976D01*
X52666333Y-67826738D01*
X52666333Y-67636261D01*
X52713952Y-67541023D01*
X52761571Y-67493404D01*
X52856809Y-67445785D01*
X60587892Y-53634583D02*
X60635511Y-53586964D01*
X60683130Y-53444107D01*
X60683130Y-53348869D01*
X60635511Y-53206011D01*
X60540273Y-53110773D01*
X60445035Y-53063154D01*
X60254559Y-53015535D01*
X60111702Y-53015535D01*
X59921226Y-53063154D01*
X59825988Y-53110773D01*
X59730750Y-53206011D01*
X59683130Y-53348869D01*
X59683130Y-53444107D01*
X59730750Y-53586964D01*
X59778369Y-53634583D01*
X59683130Y-54539345D02*
X59683130Y-54063154D01*
X60159321Y-54015535D01*
X60111702Y-54063154D01*
X60064083Y-54158392D01*
X60064083Y-54396488D01*
X60111702Y-54491726D01*
X60159321Y-54539345D01*
X60254559Y-54586964D01*
X60492654Y-54586964D01*
X60587892Y-54539345D01*
X60635511Y-54491726D01*
X60683130Y-54396488D01*
X60683130Y-54158392D01*
X60635511Y-54063154D01*
X60587892Y-54015535D01*
X72777892Y-53634583D02*
X72825511Y-53586964D01*
X72873130Y-53444107D01*
X72873130Y-53348869D01*
X72825511Y-53206011D01*
X72730273Y-53110773D01*
X72635035Y-53063154D01*
X72444559Y-53015535D01*
X72301702Y-53015535D01*
X72111226Y-53063154D01*
X72015988Y-53110773D01*
X71920750Y-53206011D01*
X71873130Y-53348869D01*
X71873130Y-53444107D01*
X71920750Y-53586964D01*
X71968369Y-53634583D01*
X72206464Y-54491726D02*
X72873130Y-54491726D01*
X71825511Y-54253630D02*
X72539797Y-54015535D01*
X72539797Y-54634583D01*
X78175392Y-62649833D02*
X78223011Y-62602214D01*
X78270630Y-62459357D01*
X78270630Y-62364119D01*
X78223011Y-62221261D01*
X78127773Y-62126023D01*
X78032535Y-62078404D01*
X77842059Y-62030785D01*
X77699202Y-62030785D01*
X77508726Y-62078404D01*
X77413488Y-62126023D01*
X77318250Y-62221261D01*
X77270630Y-62364119D01*
X77270630Y-62459357D01*
X77318250Y-62602214D01*
X77365869Y-62649833D01*
X77270630Y-62983166D02*
X77270630Y-63602214D01*
X77651583Y-63268880D01*
X77651583Y-63411738D01*
X77699202Y-63506976D01*
X77746821Y-63554595D01*
X77842059Y-63602214D01*
X78080154Y-63602214D01*
X78175392Y-63554595D01*
X78223011Y-63506976D01*
X78270630Y-63411738D01*
X78270630Y-63126023D01*
X78223011Y-63030785D01*
X78175392Y-62983166D01*
X62984916Y-78080142D02*
X63032535Y-78127761D01*
X63175392Y-78175380D01*
X63270630Y-78175380D01*
X63413488Y-78127761D01*
X63508726Y-78032523D01*
X63556345Y-77937285D01*
X63603964Y-77746809D01*
X63603964Y-77603952D01*
X63556345Y-77413476D01*
X63508726Y-77318238D01*
X63413488Y-77223000D01*
X63270630Y-77175380D01*
X63175392Y-77175380D01*
X63032535Y-77223000D01*
X62984916Y-77270619D01*
X62603964Y-77270619D02*
X62556345Y-77223000D01*
X62461107Y-77175380D01*
X62223011Y-77175380D01*
X62127773Y-77223000D01*
X62080154Y-77270619D01*
X62032535Y-77365857D01*
X62032535Y-77461095D01*
X62080154Y-77603952D01*
X62651583Y-78175380D01*
X62032535Y-78175380D01*
X56490142Y-70746083D02*
X56537761Y-70698464D01*
X56585380Y-70555607D01*
X56585380Y-70460369D01*
X56537761Y-70317511D01*
X56442523Y-70222273D01*
X56347285Y-70174654D01*
X56156809Y-70127035D01*
X56013952Y-70127035D01*
X55823476Y-70174654D01*
X55728238Y-70222273D01*
X55633000Y-70317511D01*
X55585380Y-70460369D01*
X55585380Y-70555607D01*
X55633000Y-70698464D01*
X55680619Y-70746083D01*
X56585380Y-71698464D02*
X56585380Y-71127035D01*
X56585380Y-71412750D02*
X55585380Y-71412750D01*
X55728238Y-71317511D01*
X55823476Y-71222273D01*
X55871095Y-71127035D01*
%LPC*%
D12*
X62294000Y-72121000D03*
X63094000Y-72121000D03*
X63894000Y-72121000D03*
X64694000Y-72121000D03*
X65494000Y-72121000D03*
X66294000Y-72121000D03*
X67094000Y-72121000D03*
X67894000Y-72121000D03*
X68694000Y-72121000D03*
X69494000Y-72121000D03*
X70294000Y-72121000D03*
D13*
X71994000Y-70421000D03*
X71994000Y-69621000D03*
X71994000Y-68821000D03*
X71994000Y-68021000D03*
X71994000Y-67221000D03*
X71994000Y-66421000D03*
X71994000Y-65621000D03*
X71994000Y-64821000D03*
X71994000Y-64021000D03*
X71994000Y-63221000D03*
X71994000Y-62421000D03*
D12*
X70294000Y-60721000D03*
X69494000Y-60721000D03*
X68694000Y-60721000D03*
X67894000Y-60721000D03*
X67094000Y-60721000D03*
X66294000Y-60721000D03*
X65494000Y-60721000D03*
X64694000Y-60721000D03*
X63894000Y-60721000D03*
X63094000Y-60721000D03*
X62294000Y-60721000D03*
D13*
X60594000Y-62421000D03*
X60594000Y-63221000D03*
X60594000Y-64021000D03*
X60594000Y-64821000D03*
X60594000Y-65621000D03*
X60594000Y-66421000D03*
X60594000Y-67221000D03*
X60594000Y-68021000D03*
X60594000Y-68821000D03*
X60594000Y-69621000D03*
X60594000Y-70421000D03*
D14*
X67425750Y-52902750D03*
X65225750Y-52902750D03*
X65225750Y-54602750D03*
X67425750Y-54602750D03*
D15*
X39180750Y-49348000D03*
X46480750Y-49348000D03*
X46480750Y-53848000D03*
X39180750Y-53848000D03*
D16*
X41230750Y-53848000D03*
X42030750Y-53848000D03*
X42830750Y-53848000D03*
X43630750Y-53848000D03*
X44430750Y-53848000D03*
D17*
X45137000Y-80304250D03*
X38937000Y-76604250D03*
X45137000Y-76604250D03*
X38937000Y-80304250D03*
D18*
G36*
X71701391Y-75323297D02*
G01*
X71727528Y-75327174D01*
X71753159Y-75333594D01*
X71778038Y-75342495D01*
X71801924Y-75353793D01*
X71824587Y-75367377D01*
X71845810Y-75383117D01*
X71865389Y-75400861D01*
X71883133Y-75420440D01*
X71898873Y-75441663D01*
X71912457Y-75464326D01*
X71923755Y-75488212D01*
X71932656Y-75513091D01*
X71939076Y-75538722D01*
X71942953Y-75564859D01*
X71944250Y-75591250D01*
X71944250Y-76554750D01*
X71942953Y-76581141D01*
X71939076Y-76607278D01*
X71932656Y-76632909D01*
X71923755Y-76657788D01*
X71912457Y-76681674D01*
X71898873Y-76704337D01*
X71883133Y-76725560D01*
X71865389Y-76745139D01*
X71845810Y-76762883D01*
X71824587Y-76778623D01*
X71801924Y-76792207D01*
X71778038Y-76803505D01*
X71753159Y-76812406D01*
X71727528Y-76818826D01*
X71701391Y-76822703D01*
X71675000Y-76824000D01*
X71136500Y-76824000D01*
X71110109Y-76822703D01*
X71083972Y-76818826D01*
X71058341Y-76812406D01*
X71033462Y-76803505D01*
X71009576Y-76792207D01*
X70986913Y-76778623D01*
X70965690Y-76762883D01*
X70946111Y-76745139D01*
X70928367Y-76725560D01*
X70912627Y-76704337D01*
X70899043Y-76681674D01*
X70887745Y-76657788D01*
X70878844Y-76632909D01*
X70872424Y-76607278D01*
X70868547Y-76581141D01*
X70867250Y-76554750D01*
X70867250Y-75591250D01*
X70868547Y-75564859D01*
X70872424Y-75538722D01*
X70878844Y-75513091D01*
X70887745Y-75488212D01*
X70899043Y-75464326D01*
X70912627Y-75441663D01*
X70928367Y-75420440D01*
X70946111Y-75400861D01*
X70965690Y-75383117D01*
X70986913Y-75367377D01*
X71009576Y-75353793D01*
X71033462Y-75342495D01*
X71058341Y-75333594D01*
X71083972Y-75327174D01*
X71110109Y-75323297D01*
X71136500Y-75322000D01*
X71675000Y-75322000D01*
X71701391Y-75323297D01*
X71701391Y-75323297D01*
G37*
D19*
X71405750Y-76073000D03*
D18*
G36*
X69826391Y-75323297D02*
G01*
X69852528Y-75327174D01*
X69878159Y-75333594D01*
X69903038Y-75342495D01*
X69926924Y-75353793D01*
X69949587Y-75367377D01*
X69970810Y-75383117D01*
X69990389Y-75400861D01*
X70008133Y-75420440D01*
X70023873Y-75441663D01*
X70037457Y-75464326D01*
X70048755Y-75488212D01*
X70057656Y-75513091D01*
X70064076Y-75538722D01*
X70067953Y-75564859D01*
X70069250Y-75591250D01*
X70069250Y-76554750D01*
X70067953Y-76581141D01*
X70064076Y-76607278D01*
X70057656Y-76632909D01*
X70048755Y-76657788D01*
X70037457Y-76681674D01*
X70023873Y-76704337D01*
X70008133Y-76725560D01*
X69990389Y-76745139D01*
X69970810Y-76762883D01*
X69949587Y-76778623D01*
X69926924Y-76792207D01*
X69903038Y-76803505D01*
X69878159Y-76812406D01*
X69852528Y-76818826D01*
X69826391Y-76822703D01*
X69800000Y-76824000D01*
X69261500Y-76824000D01*
X69235109Y-76822703D01*
X69208972Y-76818826D01*
X69183341Y-76812406D01*
X69158462Y-76803505D01*
X69134576Y-76792207D01*
X69111913Y-76778623D01*
X69090690Y-76762883D01*
X69071111Y-76745139D01*
X69053367Y-76725560D01*
X69037627Y-76704337D01*
X69024043Y-76681674D01*
X69012745Y-76657788D01*
X69003844Y-76632909D01*
X68997424Y-76607278D01*
X68993547Y-76581141D01*
X68992250Y-76554750D01*
X68992250Y-75591250D01*
X68993547Y-75564859D01*
X68997424Y-75538722D01*
X69003844Y-75513091D01*
X69012745Y-75488212D01*
X69024043Y-75464326D01*
X69037627Y-75441663D01*
X69053367Y-75420440D01*
X69071111Y-75400861D01*
X69090690Y-75383117D01*
X69111913Y-75367377D01*
X69134576Y-75353793D01*
X69158462Y-75342495D01*
X69183341Y-75333594D01*
X69208972Y-75327174D01*
X69235109Y-75323297D01*
X69261500Y-75322000D01*
X69800000Y-75322000D01*
X69826391Y-75323297D01*
X69826391Y-75323297D01*
G37*
D19*
X69530750Y-76073000D03*
D18*
G36*
X48253141Y-75704297D02*
G01*
X48279278Y-75708174D01*
X48304909Y-75714594D01*
X48329788Y-75723495D01*
X48353674Y-75734793D01*
X48376337Y-75748377D01*
X48397560Y-75764117D01*
X48417139Y-75781861D01*
X48434883Y-75801440D01*
X48450623Y-75822663D01*
X48464207Y-75845326D01*
X48475505Y-75869212D01*
X48484406Y-75894091D01*
X48490826Y-75919722D01*
X48494703Y-75945859D01*
X48496000Y-75972250D01*
X48496000Y-76935750D01*
X48494703Y-76962141D01*
X48490826Y-76988278D01*
X48484406Y-77013909D01*
X48475505Y-77038788D01*
X48464207Y-77062674D01*
X48450623Y-77085337D01*
X48434883Y-77106560D01*
X48417139Y-77126139D01*
X48397560Y-77143883D01*
X48376337Y-77159623D01*
X48353674Y-77173207D01*
X48329788Y-77184505D01*
X48304909Y-77193406D01*
X48279278Y-77199826D01*
X48253141Y-77203703D01*
X48226750Y-77205000D01*
X47688250Y-77205000D01*
X47661859Y-77203703D01*
X47635722Y-77199826D01*
X47610091Y-77193406D01*
X47585212Y-77184505D01*
X47561326Y-77173207D01*
X47538663Y-77159623D01*
X47517440Y-77143883D01*
X47497861Y-77126139D01*
X47480117Y-77106560D01*
X47464377Y-77085337D01*
X47450793Y-77062674D01*
X47439495Y-77038788D01*
X47430594Y-77013909D01*
X47424174Y-76988278D01*
X47420297Y-76962141D01*
X47419000Y-76935750D01*
X47419000Y-75972250D01*
X47420297Y-75945859D01*
X47424174Y-75919722D01*
X47430594Y-75894091D01*
X47439495Y-75869212D01*
X47450793Y-75845326D01*
X47464377Y-75822663D01*
X47480117Y-75801440D01*
X47497861Y-75781861D01*
X47517440Y-75764117D01*
X47538663Y-75748377D01*
X47561326Y-75734793D01*
X47585212Y-75723495D01*
X47610091Y-75714594D01*
X47635722Y-75708174D01*
X47661859Y-75704297D01*
X47688250Y-75703000D01*
X48226750Y-75703000D01*
X48253141Y-75704297D01*
X48253141Y-75704297D01*
G37*
D19*
X47957500Y-76454000D03*
D18*
G36*
X50128141Y-75704297D02*
G01*
X50154278Y-75708174D01*
X50179909Y-75714594D01*
X50204788Y-75723495D01*
X50228674Y-75734793D01*
X50251337Y-75748377D01*
X50272560Y-75764117D01*
X50292139Y-75781861D01*
X50309883Y-75801440D01*
X50325623Y-75822663D01*
X50339207Y-75845326D01*
X50350505Y-75869212D01*
X50359406Y-75894091D01*
X50365826Y-75919722D01*
X50369703Y-75945859D01*
X50371000Y-75972250D01*
X50371000Y-76935750D01*
X50369703Y-76962141D01*
X50365826Y-76988278D01*
X50359406Y-77013909D01*
X50350505Y-77038788D01*
X50339207Y-77062674D01*
X50325623Y-77085337D01*
X50309883Y-77106560D01*
X50292139Y-77126139D01*
X50272560Y-77143883D01*
X50251337Y-77159623D01*
X50228674Y-77173207D01*
X50204788Y-77184505D01*
X50179909Y-77193406D01*
X50154278Y-77199826D01*
X50128141Y-77203703D01*
X50101750Y-77205000D01*
X49563250Y-77205000D01*
X49536859Y-77203703D01*
X49510722Y-77199826D01*
X49485091Y-77193406D01*
X49460212Y-77184505D01*
X49436326Y-77173207D01*
X49413663Y-77159623D01*
X49392440Y-77143883D01*
X49372861Y-77126139D01*
X49355117Y-77106560D01*
X49339377Y-77085337D01*
X49325793Y-77062674D01*
X49314495Y-77038788D01*
X49305594Y-77013909D01*
X49299174Y-76988278D01*
X49295297Y-76962141D01*
X49294000Y-76935750D01*
X49294000Y-75972250D01*
X49295297Y-75945859D01*
X49299174Y-75919722D01*
X49305594Y-75894091D01*
X49314495Y-75869212D01*
X49325793Y-75845326D01*
X49339377Y-75822663D01*
X49355117Y-75801440D01*
X49372861Y-75781861D01*
X49392440Y-75764117D01*
X49413663Y-75748377D01*
X49436326Y-75734793D01*
X49460212Y-75723495D01*
X49485091Y-75714594D01*
X49510722Y-75708174D01*
X49536859Y-75704297D01*
X49563250Y-75703000D01*
X50101750Y-75703000D01*
X50128141Y-75704297D01*
X50128141Y-75704297D01*
G37*
D19*
X49832500Y-76454000D03*
D18*
G36*
X44132641Y-58073297D02*
G01*
X44158778Y-58077174D01*
X44184409Y-58083594D01*
X44209288Y-58092495D01*
X44233174Y-58103793D01*
X44255837Y-58117377D01*
X44277060Y-58133117D01*
X44296639Y-58150861D01*
X44314383Y-58170440D01*
X44330123Y-58191663D01*
X44343707Y-58214326D01*
X44355005Y-58238212D01*
X44363906Y-58263091D01*
X44370326Y-58288722D01*
X44374203Y-58314859D01*
X44375500Y-58341250D01*
X44375500Y-58879750D01*
X44374203Y-58906141D01*
X44370326Y-58932278D01*
X44363906Y-58957909D01*
X44355005Y-58982788D01*
X44343707Y-59006674D01*
X44330123Y-59029337D01*
X44314383Y-59050560D01*
X44296639Y-59070139D01*
X44277060Y-59087883D01*
X44255837Y-59103623D01*
X44233174Y-59117207D01*
X44209288Y-59128505D01*
X44184409Y-59137406D01*
X44158778Y-59143826D01*
X44132641Y-59147703D01*
X44106250Y-59149000D01*
X43142750Y-59149000D01*
X43116359Y-59147703D01*
X43090222Y-59143826D01*
X43064591Y-59137406D01*
X43039712Y-59128505D01*
X43015826Y-59117207D01*
X42993163Y-59103623D01*
X42971940Y-59087883D01*
X42952361Y-59070139D01*
X42934617Y-59050560D01*
X42918877Y-59029337D01*
X42905293Y-59006674D01*
X42893995Y-58982788D01*
X42885094Y-58957909D01*
X42878674Y-58932278D01*
X42874797Y-58906141D01*
X42873500Y-58879750D01*
X42873500Y-58341250D01*
X42874797Y-58314859D01*
X42878674Y-58288722D01*
X42885094Y-58263091D01*
X42893995Y-58238212D01*
X42905293Y-58214326D01*
X42918877Y-58191663D01*
X42934617Y-58170440D01*
X42952361Y-58150861D01*
X42971940Y-58133117D01*
X42993163Y-58117377D01*
X43015826Y-58103793D01*
X43039712Y-58092495D01*
X43064591Y-58083594D01*
X43090222Y-58077174D01*
X43116359Y-58073297D01*
X43142750Y-58072000D01*
X44106250Y-58072000D01*
X44132641Y-58073297D01*
X44132641Y-58073297D01*
G37*
D19*
X43624500Y-58610500D03*
D18*
G36*
X44132641Y-59948297D02*
G01*
X44158778Y-59952174D01*
X44184409Y-59958594D01*
X44209288Y-59967495D01*
X44233174Y-59978793D01*
X44255837Y-59992377D01*
X44277060Y-60008117D01*
X44296639Y-60025861D01*
X44314383Y-60045440D01*
X44330123Y-60066663D01*
X44343707Y-60089326D01*
X44355005Y-60113212D01*
X44363906Y-60138091D01*
X44370326Y-60163722D01*
X44374203Y-60189859D01*
X44375500Y-60216250D01*
X44375500Y-60754750D01*
X44374203Y-60781141D01*
X44370326Y-60807278D01*
X44363906Y-60832909D01*
X44355005Y-60857788D01*
X44343707Y-60881674D01*
X44330123Y-60904337D01*
X44314383Y-60925560D01*
X44296639Y-60945139D01*
X44277060Y-60962883D01*
X44255837Y-60978623D01*
X44233174Y-60992207D01*
X44209288Y-61003505D01*
X44184409Y-61012406D01*
X44158778Y-61018826D01*
X44132641Y-61022703D01*
X44106250Y-61024000D01*
X43142750Y-61024000D01*
X43116359Y-61022703D01*
X43090222Y-61018826D01*
X43064591Y-61012406D01*
X43039712Y-61003505D01*
X43015826Y-60992207D01*
X42993163Y-60978623D01*
X42971940Y-60962883D01*
X42952361Y-60945139D01*
X42934617Y-60925560D01*
X42918877Y-60904337D01*
X42905293Y-60881674D01*
X42893995Y-60857788D01*
X42885094Y-60832909D01*
X42878674Y-60807278D01*
X42874797Y-60781141D01*
X42873500Y-60754750D01*
X42873500Y-60216250D01*
X42874797Y-60189859D01*
X42878674Y-60163722D01*
X42885094Y-60138091D01*
X42893995Y-60113212D01*
X42905293Y-60089326D01*
X42918877Y-60066663D01*
X42934617Y-60045440D01*
X42952361Y-60025861D01*
X42971940Y-60008117D01*
X42993163Y-59992377D01*
X43015826Y-59978793D01*
X43039712Y-59967495D01*
X43064591Y-59958594D01*
X43090222Y-59952174D01*
X43116359Y-59948297D01*
X43142750Y-59947000D01*
X44106250Y-59947000D01*
X44132641Y-59948297D01*
X44132641Y-59948297D01*
G37*
D19*
X43624500Y-60485500D03*
D18*
G36*
X41751391Y-58073297D02*
G01*
X41777528Y-58077174D01*
X41803159Y-58083594D01*
X41828038Y-58092495D01*
X41851924Y-58103793D01*
X41874587Y-58117377D01*
X41895810Y-58133117D01*
X41915389Y-58150861D01*
X41933133Y-58170440D01*
X41948873Y-58191663D01*
X41962457Y-58214326D01*
X41973755Y-58238212D01*
X41982656Y-58263091D01*
X41989076Y-58288722D01*
X41992953Y-58314859D01*
X41994250Y-58341250D01*
X41994250Y-58879750D01*
X41992953Y-58906141D01*
X41989076Y-58932278D01*
X41982656Y-58957909D01*
X41973755Y-58982788D01*
X41962457Y-59006674D01*
X41948873Y-59029337D01*
X41933133Y-59050560D01*
X41915389Y-59070139D01*
X41895810Y-59087883D01*
X41874587Y-59103623D01*
X41851924Y-59117207D01*
X41828038Y-59128505D01*
X41803159Y-59137406D01*
X41777528Y-59143826D01*
X41751391Y-59147703D01*
X41725000Y-59149000D01*
X40761500Y-59149000D01*
X40735109Y-59147703D01*
X40708972Y-59143826D01*
X40683341Y-59137406D01*
X40658462Y-59128505D01*
X40634576Y-59117207D01*
X40611913Y-59103623D01*
X40590690Y-59087883D01*
X40571111Y-59070139D01*
X40553367Y-59050560D01*
X40537627Y-59029337D01*
X40524043Y-59006674D01*
X40512745Y-58982788D01*
X40503844Y-58957909D01*
X40497424Y-58932278D01*
X40493547Y-58906141D01*
X40492250Y-58879750D01*
X40492250Y-58341250D01*
X40493547Y-58314859D01*
X40497424Y-58288722D01*
X40503844Y-58263091D01*
X40512745Y-58238212D01*
X40524043Y-58214326D01*
X40537627Y-58191663D01*
X40553367Y-58170440D01*
X40571111Y-58150861D01*
X40590690Y-58133117D01*
X40611913Y-58117377D01*
X40634576Y-58103793D01*
X40658462Y-58092495D01*
X40683341Y-58083594D01*
X40708972Y-58077174D01*
X40735109Y-58073297D01*
X40761500Y-58072000D01*
X41725000Y-58072000D01*
X41751391Y-58073297D01*
X41751391Y-58073297D01*
G37*
D19*
X41243250Y-58610500D03*
D18*
G36*
X41751391Y-59948297D02*
G01*
X41777528Y-59952174D01*
X41803159Y-59958594D01*
X41828038Y-59967495D01*
X41851924Y-59978793D01*
X41874587Y-59992377D01*
X41895810Y-60008117D01*
X41915389Y-60025861D01*
X41933133Y-60045440D01*
X41948873Y-60066663D01*
X41962457Y-60089326D01*
X41973755Y-60113212D01*
X41982656Y-60138091D01*
X41989076Y-60163722D01*
X41992953Y-60189859D01*
X41994250Y-60216250D01*
X41994250Y-60754750D01*
X41992953Y-60781141D01*
X41989076Y-60807278D01*
X41982656Y-60832909D01*
X41973755Y-60857788D01*
X41962457Y-60881674D01*
X41948873Y-60904337D01*
X41933133Y-60925560D01*
X41915389Y-60945139D01*
X41895810Y-60962883D01*
X41874587Y-60978623D01*
X41851924Y-60992207D01*
X41828038Y-61003505D01*
X41803159Y-61012406D01*
X41777528Y-61018826D01*
X41751391Y-61022703D01*
X41725000Y-61024000D01*
X40761500Y-61024000D01*
X40735109Y-61022703D01*
X40708972Y-61018826D01*
X40683341Y-61012406D01*
X40658462Y-61003505D01*
X40634576Y-60992207D01*
X40611913Y-60978623D01*
X40590690Y-60962883D01*
X40571111Y-60945139D01*
X40553367Y-60925560D01*
X40537627Y-60904337D01*
X40524043Y-60881674D01*
X40512745Y-60857788D01*
X40503844Y-60832909D01*
X40497424Y-60807278D01*
X40493547Y-60781141D01*
X40492250Y-60754750D01*
X40492250Y-60216250D01*
X40493547Y-60189859D01*
X40497424Y-60163722D01*
X40503844Y-60138091D01*
X40512745Y-60113212D01*
X40524043Y-60089326D01*
X40537627Y-60066663D01*
X40553367Y-60045440D01*
X40571111Y-60025861D01*
X40590690Y-60008117D01*
X40611913Y-59992377D01*
X40634576Y-59978793D01*
X40658462Y-59967495D01*
X40683341Y-59958594D01*
X40708972Y-59952174D01*
X40735109Y-59948297D01*
X40761500Y-59947000D01*
X41725000Y-59947000D01*
X41751391Y-59948297D01*
X41751391Y-59948297D01*
G37*
D19*
X41243250Y-60485500D03*
D20*
X113030000Y-76200000D03*
X102870000Y-76200000D03*
D21*
X105450000Y-72200000D03*
D22*
X107950000Y-76200000D03*
D21*
X104795001Y-72930000D03*
D23*
X104140000Y-73660000D02*
X105450002Y-72200000D01*
D21*
X110490000Y-71120000D03*
X110470000Y-71410000D03*
D23*
X110450000Y-71700000D02*
X110490000Y-71120000D01*
D20*
X113030000Y-57150000D03*
X102870000Y-57150000D03*
D21*
X105450000Y-53150000D03*
D22*
X107950000Y-57150000D03*
D21*
X104795001Y-53880000D03*
D23*
X104140000Y-54610000D02*
X105450002Y-53150000D01*
D21*
X110490000Y-52070000D03*
X110470000Y-52360000D03*
D23*
X110450000Y-52650000D02*
X110490000Y-52070000D01*
D20*
X93980000Y-76200000D03*
X83820000Y-76200000D03*
D21*
X86400000Y-72200000D03*
D22*
X88900000Y-76200000D03*
D21*
X85745001Y-72930000D03*
D23*
X85090000Y-73660000D02*
X86400002Y-72200000D01*
D21*
X91440000Y-71120000D03*
X91420000Y-71410000D03*
D23*
X91400000Y-71700000D02*
X91440000Y-71120000D01*
D20*
X93980000Y-57150000D03*
X83820000Y-57150000D03*
D21*
X86400000Y-53150000D03*
D22*
X88900000Y-57150000D03*
D21*
X85745001Y-53880000D03*
D23*
X85090000Y-54610000D02*
X86400002Y-53150000D01*
D21*
X91440000Y-52070000D03*
X91420000Y-52360000D03*
D23*
X91400000Y-52650000D02*
X91440000Y-52070000D01*
D18*
G36*
X36369104Y-65079552D02*
G01*
X36395352Y-65083446D01*
X36421093Y-65089893D01*
X36446078Y-65098833D01*
X36470066Y-65110178D01*
X36492826Y-65123821D01*
X36514140Y-65139628D01*
X36533802Y-65157448D01*
X36551622Y-65177110D01*
X36567429Y-65198424D01*
X36581072Y-65221184D01*
X36592417Y-65245172D01*
X36601357Y-65270157D01*
X36607804Y-65295898D01*
X36611698Y-65322146D01*
X36613000Y-65348650D01*
X36613000Y-66159850D01*
X36611698Y-66186354D01*
X36607804Y-66212602D01*
X36601357Y-66238343D01*
X36592417Y-66263328D01*
X36581072Y-66287316D01*
X36567429Y-66310076D01*
X36551622Y-66331390D01*
X36533802Y-66351052D01*
X36514140Y-66368872D01*
X36492826Y-66384679D01*
X36470066Y-66398322D01*
X36446078Y-66409667D01*
X36421093Y-66418607D01*
X36395352Y-66425054D01*
X36369104Y-66428948D01*
X36342600Y-66430250D01*
X35031400Y-66430250D01*
X35004896Y-66428948D01*
X34978648Y-66425054D01*
X34952907Y-66418607D01*
X34927922Y-66409667D01*
X34903934Y-66398322D01*
X34881174Y-66384679D01*
X34859860Y-66368872D01*
X34840198Y-66351052D01*
X34822378Y-66331390D01*
X34806571Y-66310076D01*
X34792928Y-66287316D01*
X34781583Y-66263328D01*
X34772643Y-66238343D01*
X34766196Y-66212602D01*
X34762302Y-66186354D01*
X34761000Y-66159850D01*
X34761000Y-65348650D01*
X34762302Y-65322146D01*
X34766196Y-65295898D01*
X34772643Y-65270157D01*
X34781583Y-65245172D01*
X34792928Y-65221184D01*
X34806571Y-65198424D01*
X34822378Y-65177110D01*
X34840198Y-65157448D01*
X34859860Y-65139628D01*
X34881174Y-65123821D01*
X34903934Y-65110178D01*
X34927922Y-65098833D01*
X34952907Y-65089893D01*
X34978648Y-65083446D01*
X35004896Y-65079552D01*
X35031400Y-65078250D01*
X36342600Y-65078250D01*
X36369104Y-65079552D01*
X36369104Y-65079552D01*
G37*
D24*
X35687000Y-65754250D03*
D18*
G36*
X36369104Y-67879552D02*
G01*
X36395352Y-67883446D01*
X36421093Y-67889893D01*
X36446078Y-67898833D01*
X36470066Y-67910178D01*
X36492826Y-67923821D01*
X36514140Y-67939628D01*
X36533802Y-67957448D01*
X36551622Y-67977110D01*
X36567429Y-67998424D01*
X36581072Y-68021184D01*
X36592417Y-68045172D01*
X36601357Y-68070157D01*
X36607804Y-68095898D01*
X36611698Y-68122146D01*
X36613000Y-68148650D01*
X36613000Y-68959850D01*
X36611698Y-68986354D01*
X36607804Y-69012602D01*
X36601357Y-69038343D01*
X36592417Y-69063328D01*
X36581072Y-69087316D01*
X36567429Y-69110076D01*
X36551622Y-69131390D01*
X36533802Y-69151052D01*
X36514140Y-69168872D01*
X36492826Y-69184679D01*
X36470066Y-69198322D01*
X36446078Y-69209667D01*
X36421093Y-69218607D01*
X36395352Y-69225054D01*
X36369104Y-69228948D01*
X36342600Y-69230250D01*
X35031400Y-69230250D01*
X35004896Y-69228948D01*
X34978648Y-69225054D01*
X34952907Y-69218607D01*
X34927922Y-69209667D01*
X34903934Y-69198322D01*
X34881174Y-69184679D01*
X34859860Y-69168872D01*
X34840198Y-69151052D01*
X34822378Y-69131390D01*
X34806571Y-69110076D01*
X34792928Y-69087316D01*
X34781583Y-69063328D01*
X34772643Y-69038343D01*
X34766196Y-69012602D01*
X34762302Y-68986354D01*
X34761000Y-68959850D01*
X34761000Y-68148650D01*
X34762302Y-68122146D01*
X34766196Y-68095898D01*
X34772643Y-68070157D01*
X34781583Y-68045172D01*
X34792928Y-68021184D01*
X34806571Y-67998424D01*
X34822378Y-67977110D01*
X34840198Y-67957448D01*
X34859860Y-67939628D01*
X34881174Y-67923821D01*
X34903934Y-67910178D01*
X34927922Y-67898833D01*
X34952907Y-67889893D01*
X34978648Y-67883446D01*
X35004896Y-67879552D01*
X35031400Y-67878250D01*
X36342600Y-67878250D01*
X36369104Y-67879552D01*
X36369104Y-67879552D01*
G37*
D24*
X35687000Y-68554250D03*
D25*
X115887500Y-74612500D03*
X115887500Y-77912500D03*
X115887500Y-55562500D03*
X115887500Y-58862500D03*
X96837500Y-74612500D03*
X96837500Y-77912500D03*
X96837500Y-55562500D03*
X96837500Y-58862500D03*
D18*
G36*
X46513891Y-68392047D02*
G01*
X46540028Y-68395924D01*
X46565659Y-68402344D01*
X46590538Y-68411245D01*
X46614424Y-68422543D01*
X46637087Y-68436127D01*
X46658310Y-68451867D01*
X46677889Y-68469611D01*
X46695633Y-68489190D01*
X46711373Y-68510413D01*
X46724957Y-68533076D01*
X46736255Y-68556962D01*
X46745156Y-68581841D01*
X46751576Y-68607472D01*
X46755453Y-68633609D01*
X46756750Y-68660000D01*
X46756750Y-69198500D01*
X46755453Y-69224891D01*
X46751576Y-69251028D01*
X46745156Y-69276659D01*
X46736255Y-69301538D01*
X46724957Y-69325424D01*
X46711373Y-69348087D01*
X46695633Y-69369310D01*
X46677889Y-69388889D01*
X46658310Y-69406633D01*
X46637087Y-69422373D01*
X46614424Y-69435957D01*
X46590538Y-69447255D01*
X46565659Y-69456156D01*
X46540028Y-69462576D01*
X46513891Y-69466453D01*
X46487500Y-69467750D01*
X45524000Y-69467750D01*
X45497609Y-69466453D01*
X45471472Y-69462576D01*
X45445841Y-69456156D01*
X45420962Y-69447255D01*
X45397076Y-69435957D01*
X45374413Y-69422373D01*
X45353190Y-69406633D01*
X45333611Y-69388889D01*
X45315867Y-69369310D01*
X45300127Y-69348087D01*
X45286543Y-69325424D01*
X45275245Y-69301538D01*
X45266344Y-69276659D01*
X45259924Y-69251028D01*
X45256047Y-69224891D01*
X45254750Y-69198500D01*
X45254750Y-68660000D01*
X45256047Y-68633609D01*
X45259924Y-68607472D01*
X45266344Y-68581841D01*
X45275245Y-68556962D01*
X45286543Y-68533076D01*
X45300127Y-68510413D01*
X45315867Y-68489190D01*
X45333611Y-68469611D01*
X45353190Y-68451867D01*
X45374413Y-68436127D01*
X45397076Y-68422543D01*
X45420962Y-68411245D01*
X45445841Y-68402344D01*
X45471472Y-68395924D01*
X45497609Y-68392047D01*
X45524000Y-68390750D01*
X46487500Y-68390750D01*
X46513891Y-68392047D01*
X46513891Y-68392047D01*
G37*
D19*
X46005750Y-68929250D03*
D18*
G36*
X46513891Y-70267047D02*
G01*
X46540028Y-70270924D01*
X46565659Y-70277344D01*
X46590538Y-70286245D01*
X46614424Y-70297543D01*
X46637087Y-70311127D01*
X46658310Y-70326867D01*
X46677889Y-70344611D01*
X46695633Y-70364190D01*
X46711373Y-70385413D01*
X46724957Y-70408076D01*
X46736255Y-70431962D01*
X46745156Y-70456841D01*
X46751576Y-70482472D01*
X46755453Y-70508609D01*
X46756750Y-70535000D01*
X46756750Y-71073500D01*
X46755453Y-71099891D01*
X46751576Y-71126028D01*
X46745156Y-71151659D01*
X46736255Y-71176538D01*
X46724957Y-71200424D01*
X46711373Y-71223087D01*
X46695633Y-71244310D01*
X46677889Y-71263889D01*
X46658310Y-71281633D01*
X46637087Y-71297373D01*
X46614424Y-71310957D01*
X46590538Y-71322255D01*
X46565659Y-71331156D01*
X46540028Y-71337576D01*
X46513891Y-71341453D01*
X46487500Y-71342750D01*
X45524000Y-71342750D01*
X45497609Y-71341453D01*
X45471472Y-71337576D01*
X45445841Y-71331156D01*
X45420962Y-71322255D01*
X45397076Y-71310957D01*
X45374413Y-71297373D01*
X45353190Y-71281633D01*
X45333611Y-71263889D01*
X45315867Y-71244310D01*
X45300127Y-71223087D01*
X45286543Y-71200424D01*
X45275245Y-71176538D01*
X45266344Y-71151659D01*
X45259924Y-71126028D01*
X45256047Y-71099891D01*
X45254750Y-71073500D01*
X45254750Y-70535000D01*
X45256047Y-70508609D01*
X45259924Y-70482472D01*
X45266344Y-70456841D01*
X45275245Y-70431962D01*
X45286543Y-70408076D01*
X45300127Y-70385413D01*
X45315867Y-70364190D01*
X45333611Y-70344611D01*
X45353190Y-70326867D01*
X45374413Y-70311127D01*
X45397076Y-70297543D01*
X45420962Y-70286245D01*
X45445841Y-70277344D01*
X45471472Y-70270924D01*
X45497609Y-70267047D01*
X45524000Y-70265750D01*
X46487500Y-70265750D01*
X46513891Y-70267047D01*
X46513891Y-70267047D01*
G37*
D19*
X46005750Y-70804250D03*
D18*
G36*
X54991141Y-67631797D02*
G01*
X55017278Y-67635674D01*
X55042909Y-67642094D01*
X55067788Y-67650995D01*
X55091674Y-67662293D01*
X55114337Y-67675877D01*
X55135560Y-67691617D01*
X55155139Y-67709361D01*
X55172883Y-67728940D01*
X55188623Y-67750163D01*
X55202207Y-67772826D01*
X55213505Y-67796712D01*
X55222406Y-67821591D01*
X55228826Y-67847222D01*
X55232703Y-67873359D01*
X55234000Y-67899750D01*
X55234000Y-68438250D01*
X55232703Y-68464641D01*
X55228826Y-68490778D01*
X55222406Y-68516409D01*
X55213505Y-68541288D01*
X55202207Y-68565174D01*
X55188623Y-68587837D01*
X55172883Y-68609060D01*
X55155139Y-68628639D01*
X55135560Y-68646383D01*
X55114337Y-68662123D01*
X55091674Y-68675707D01*
X55067788Y-68687005D01*
X55042909Y-68695906D01*
X55017278Y-68702326D01*
X54991141Y-68706203D01*
X54964750Y-68707500D01*
X54001250Y-68707500D01*
X53974859Y-68706203D01*
X53948722Y-68702326D01*
X53923091Y-68695906D01*
X53898212Y-68687005D01*
X53874326Y-68675707D01*
X53851663Y-68662123D01*
X53830440Y-68646383D01*
X53810861Y-68628639D01*
X53793117Y-68609060D01*
X53777377Y-68587837D01*
X53763793Y-68565174D01*
X53752495Y-68541288D01*
X53743594Y-68516409D01*
X53737174Y-68490778D01*
X53733297Y-68464641D01*
X53732000Y-68438250D01*
X53732000Y-67899750D01*
X53733297Y-67873359D01*
X53737174Y-67847222D01*
X53743594Y-67821591D01*
X53752495Y-67796712D01*
X53763793Y-67772826D01*
X53777377Y-67750163D01*
X53793117Y-67728940D01*
X53810861Y-67709361D01*
X53830440Y-67691617D01*
X53851663Y-67675877D01*
X53874326Y-67662293D01*
X53898212Y-67650995D01*
X53923091Y-67642094D01*
X53948722Y-67635674D01*
X53974859Y-67631797D01*
X54001250Y-67630500D01*
X54964750Y-67630500D01*
X54991141Y-67631797D01*
X54991141Y-67631797D01*
G37*
D19*
X54483000Y-68169000D03*
D18*
G36*
X54991141Y-65756797D02*
G01*
X55017278Y-65760674D01*
X55042909Y-65767094D01*
X55067788Y-65775995D01*
X55091674Y-65787293D01*
X55114337Y-65800877D01*
X55135560Y-65816617D01*
X55155139Y-65834361D01*
X55172883Y-65853940D01*
X55188623Y-65875163D01*
X55202207Y-65897826D01*
X55213505Y-65921712D01*
X55222406Y-65946591D01*
X55228826Y-65972222D01*
X55232703Y-65998359D01*
X55234000Y-66024750D01*
X55234000Y-66563250D01*
X55232703Y-66589641D01*
X55228826Y-66615778D01*
X55222406Y-66641409D01*
X55213505Y-66666288D01*
X55202207Y-66690174D01*
X55188623Y-66712837D01*
X55172883Y-66734060D01*
X55155139Y-66753639D01*
X55135560Y-66771383D01*
X55114337Y-66787123D01*
X55091674Y-66800707D01*
X55067788Y-66812005D01*
X55042909Y-66820906D01*
X55017278Y-66827326D01*
X54991141Y-66831203D01*
X54964750Y-66832500D01*
X54001250Y-66832500D01*
X53974859Y-66831203D01*
X53948722Y-66827326D01*
X53923091Y-66820906D01*
X53898212Y-66812005D01*
X53874326Y-66800707D01*
X53851663Y-66787123D01*
X53830440Y-66771383D01*
X53810861Y-66753639D01*
X53793117Y-66734060D01*
X53777377Y-66712837D01*
X53763793Y-66690174D01*
X53752495Y-66666288D01*
X53743594Y-66641409D01*
X53737174Y-66615778D01*
X53733297Y-66589641D01*
X53732000Y-66563250D01*
X53732000Y-66024750D01*
X53733297Y-65998359D01*
X53737174Y-65972222D01*
X53743594Y-65946591D01*
X53752495Y-65921712D01*
X53763793Y-65897826D01*
X53777377Y-65875163D01*
X53793117Y-65853940D01*
X53810861Y-65834361D01*
X53830440Y-65816617D01*
X53851663Y-65800877D01*
X53874326Y-65787293D01*
X53898212Y-65775995D01*
X53923091Y-65767094D01*
X53948722Y-65760674D01*
X53974859Y-65756797D01*
X54001250Y-65755500D01*
X54964750Y-65755500D01*
X54991141Y-65756797D01*
X54991141Y-65756797D01*
G37*
D19*
X54483000Y-66294000D03*
D18*
G36*
X62388891Y-54201547D02*
G01*
X62415028Y-54205424D01*
X62440659Y-54211844D01*
X62465538Y-54220745D01*
X62489424Y-54232043D01*
X62512087Y-54245627D01*
X62533310Y-54261367D01*
X62552889Y-54279111D01*
X62570633Y-54298690D01*
X62586373Y-54319913D01*
X62599957Y-54342576D01*
X62611255Y-54366462D01*
X62620156Y-54391341D01*
X62626576Y-54416972D01*
X62630453Y-54443109D01*
X62631750Y-54469500D01*
X62631750Y-55008000D01*
X62630453Y-55034391D01*
X62626576Y-55060528D01*
X62620156Y-55086159D01*
X62611255Y-55111038D01*
X62599957Y-55134924D01*
X62586373Y-55157587D01*
X62570633Y-55178810D01*
X62552889Y-55198389D01*
X62533310Y-55216133D01*
X62512087Y-55231873D01*
X62489424Y-55245457D01*
X62465538Y-55256755D01*
X62440659Y-55265656D01*
X62415028Y-55272076D01*
X62388891Y-55275953D01*
X62362500Y-55277250D01*
X61399000Y-55277250D01*
X61372609Y-55275953D01*
X61346472Y-55272076D01*
X61320841Y-55265656D01*
X61295962Y-55256755D01*
X61272076Y-55245457D01*
X61249413Y-55231873D01*
X61228190Y-55216133D01*
X61208611Y-55198389D01*
X61190867Y-55178810D01*
X61175127Y-55157587D01*
X61161543Y-55134924D01*
X61150245Y-55111038D01*
X61141344Y-55086159D01*
X61134924Y-55060528D01*
X61131047Y-55034391D01*
X61129750Y-55008000D01*
X61129750Y-54469500D01*
X61131047Y-54443109D01*
X61134924Y-54416972D01*
X61141344Y-54391341D01*
X61150245Y-54366462D01*
X61161543Y-54342576D01*
X61175127Y-54319913D01*
X61190867Y-54298690D01*
X61208611Y-54279111D01*
X61228190Y-54261367D01*
X61249413Y-54245627D01*
X61272076Y-54232043D01*
X61295962Y-54220745D01*
X61320841Y-54211844D01*
X61346472Y-54205424D01*
X61372609Y-54201547D01*
X61399000Y-54200250D01*
X62362500Y-54200250D01*
X62388891Y-54201547D01*
X62388891Y-54201547D01*
G37*
D19*
X61880750Y-54738750D03*
D18*
G36*
X62388891Y-52326547D02*
G01*
X62415028Y-52330424D01*
X62440659Y-52336844D01*
X62465538Y-52345745D01*
X62489424Y-52357043D01*
X62512087Y-52370627D01*
X62533310Y-52386367D01*
X62552889Y-52404111D01*
X62570633Y-52423690D01*
X62586373Y-52444913D01*
X62599957Y-52467576D01*
X62611255Y-52491462D01*
X62620156Y-52516341D01*
X62626576Y-52541972D01*
X62630453Y-52568109D01*
X62631750Y-52594500D01*
X62631750Y-53133000D01*
X62630453Y-53159391D01*
X62626576Y-53185528D01*
X62620156Y-53211159D01*
X62611255Y-53236038D01*
X62599957Y-53259924D01*
X62586373Y-53282587D01*
X62570633Y-53303810D01*
X62552889Y-53323389D01*
X62533310Y-53341133D01*
X62512087Y-53356873D01*
X62489424Y-53370457D01*
X62465538Y-53381755D01*
X62440659Y-53390656D01*
X62415028Y-53397076D01*
X62388891Y-53400953D01*
X62362500Y-53402250D01*
X61399000Y-53402250D01*
X61372609Y-53400953D01*
X61346472Y-53397076D01*
X61320841Y-53390656D01*
X61295962Y-53381755D01*
X61272076Y-53370457D01*
X61249413Y-53356873D01*
X61228190Y-53341133D01*
X61208611Y-53323389D01*
X61190867Y-53303810D01*
X61175127Y-53282587D01*
X61161543Y-53259924D01*
X61150245Y-53236038D01*
X61141344Y-53211159D01*
X61134924Y-53185528D01*
X61131047Y-53159391D01*
X61129750Y-53133000D01*
X61129750Y-52594500D01*
X61131047Y-52568109D01*
X61134924Y-52541972D01*
X61141344Y-52516341D01*
X61150245Y-52491462D01*
X61161543Y-52467576D01*
X61175127Y-52444913D01*
X61190867Y-52423690D01*
X61208611Y-52404111D01*
X61228190Y-52386367D01*
X61249413Y-52370627D01*
X61272076Y-52357043D01*
X61295962Y-52345745D01*
X61320841Y-52336844D01*
X61346472Y-52330424D01*
X61372609Y-52326547D01*
X61399000Y-52325250D01*
X62362500Y-52325250D01*
X62388891Y-52326547D01*
X62388891Y-52326547D01*
G37*
D19*
X61880750Y-52863750D03*
D18*
G36*
X71278891Y-52326547D02*
G01*
X71305028Y-52330424D01*
X71330659Y-52336844D01*
X71355538Y-52345745D01*
X71379424Y-52357043D01*
X71402087Y-52370627D01*
X71423310Y-52386367D01*
X71442889Y-52404111D01*
X71460633Y-52423690D01*
X71476373Y-52444913D01*
X71489957Y-52467576D01*
X71501255Y-52491462D01*
X71510156Y-52516341D01*
X71516576Y-52541972D01*
X71520453Y-52568109D01*
X71521750Y-52594500D01*
X71521750Y-53133000D01*
X71520453Y-53159391D01*
X71516576Y-53185528D01*
X71510156Y-53211159D01*
X71501255Y-53236038D01*
X71489957Y-53259924D01*
X71476373Y-53282587D01*
X71460633Y-53303810D01*
X71442889Y-53323389D01*
X71423310Y-53341133D01*
X71402087Y-53356873D01*
X71379424Y-53370457D01*
X71355538Y-53381755D01*
X71330659Y-53390656D01*
X71305028Y-53397076D01*
X71278891Y-53400953D01*
X71252500Y-53402250D01*
X70289000Y-53402250D01*
X70262609Y-53400953D01*
X70236472Y-53397076D01*
X70210841Y-53390656D01*
X70185962Y-53381755D01*
X70162076Y-53370457D01*
X70139413Y-53356873D01*
X70118190Y-53341133D01*
X70098611Y-53323389D01*
X70080867Y-53303810D01*
X70065127Y-53282587D01*
X70051543Y-53259924D01*
X70040245Y-53236038D01*
X70031344Y-53211159D01*
X70024924Y-53185528D01*
X70021047Y-53159391D01*
X70019750Y-53133000D01*
X70019750Y-52594500D01*
X70021047Y-52568109D01*
X70024924Y-52541972D01*
X70031344Y-52516341D01*
X70040245Y-52491462D01*
X70051543Y-52467576D01*
X70065127Y-52444913D01*
X70080867Y-52423690D01*
X70098611Y-52404111D01*
X70118190Y-52386367D01*
X70139413Y-52370627D01*
X70162076Y-52357043D01*
X70185962Y-52345745D01*
X70210841Y-52336844D01*
X70236472Y-52330424D01*
X70262609Y-52326547D01*
X70289000Y-52325250D01*
X71252500Y-52325250D01*
X71278891Y-52326547D01*
X71278891Y-52326547D01*
G37*
D19*
X70770750Y-52863750D03*
D18*
G36*
X71278891Y-54201547D02*
G01*
X71305028Y-54205424D01*
X71330659Y-54211844D01*
X71355538Y-54220745D01*
X71379424Y-54232043D01*
X71402087Y-54245627D01*
X71423310Y-54261367D01*
X71442889Y-54279111D01*
X71460633Y-54298690D01*
X71476373Y-54319913D01*
X71489957Y-54342576D01*
X71501255Y-54366462D01*
X71510156Y-54391341D01*
X71516576Y-54416972D01*
X71520453Y-54443109D01*
X71521750Y-54469500D01*
X71521750Y-55008000D01*
X71520453Y-55034391D01*
X71516576Y-55060528D01*
X71510156Y-55086159D01*
X71501255Y-55111038D01*
X71489957Y-55134924D01*
X71476373Y-55157587D01*
X71460633Y-55178810D01*
X71442889Y-55198389D01*
X71423310Y-55216133D01*
X71402087Y-55231873D01*
X71379424Y-55245457D01*
X71355538Y-55256755D01*
X71330659Y-55265656D01*
X71305028Y-55272076D01*
X71278891Y-55275953D01*
X71252500Y-55277250D01*
X70289000Y-55277250D01*
X70262609Y-55275953D01*
X70236472Y-55272076D01*
X70210841Y-55265656D01*
X70185962Y-55256755D01*
X70162076Y-55245457D01*
X70139413Y-55231873D01*
X70118190Y-55216133D01*
X70098611Y-55198389D01*
X70080867Y-55178810D01*
X70065127Y-55157587D01*
X70051543Y-55134924D01*
X70040245Y-55111038D01*
X70031344Y-55086159D01*
X70024924Y-55060528D01*
X70021047Y-55034391D01*
X70019750Y-55008000D01*
X70019750Y-54469500D01*
X70021047Y-54443109D01*
X70024924Y-54416972D01*
X70031344Y-54391341D01*
X70040245Y-54366462D01*
X70051543Y-54342576D01*
X70065127Y-54319913D01*
X70080867Y-54298690D01*
X70098611Y-54279111D01*
X70118190Y-54261367D01*
X70139413Y-54245627D01*
X70162076Y-54232043D01*
X70185962Y-54220745D01*
X70210841Y-54211844D01*
X70236472Y-54205424D01*
X70262609Y-54201547D01*
X70289000Y-54200250D01*
X71252500Y-54200250D01*
X71278891Y-54201547D01*
X71278891Y-54201547D01*
G37*
D19*
X70770750Y-54738750D03*
D18*
G36*
X76676391Y-61341797D02*
G01*
X76702528Y-61345674D01*
X76728159Y-61352094D01*
X76753038Y-61360995D01*
X76776924Y-61372293D01*
X76799587Y-61385877D01*
X76820810Y-61401617D01*
X76840389Y-61419361D01*
X76858133Y-61438940D01*
X76873873Y-61460163D01*
X76887457Y-61482826D01*
X76898755Y-61506712D01*
X76907656Y-61531591D01*
X76914076Y-61557222D01*
X76917953Y-61583359D01*
X76919250Y-61609750D01*
X76919250Y-62148250D01*
X76917953Y-62174641D01*
X76914076Y-62200778D01*
X76907656Y-62226409D01*
X76898755Y-62251288D01*
X76887457Y-62275174D01*
X76873873Y-62297837D01*
X76858133Y-62319060D01*
X76840389Y-62338639D01*
X76820810Y-62356383D01*
X76799587Y-62372123D01*
X76776924Y-62385707D01*
X76753038Y-62397005D01*
X76728159Y-62405906D01*
X76702528Y-62412326D01*
X76676391Y-62416203D01*
X76650000Y-62417500D01*
X75686500Y-62417500D01*
X75660109Y-62416203D01*
X75633972Y-62412326D01*
X75608341Y-62405906D01*
X75583462Y-62397005D01*
X75559576Y-62385707D01*
X75536913Y-62372123D01*
X75515690Y-62356383D01*
X75496111Y-62338639D01*
X75478367Y-62319060D01*
X75462627Y-62297837D01*
X75449043Y-62275174D01*
X75437745Y-62251288D01*
X75428844Y-62226409D01*
X75422424Y-62200778D01*
X75418547Y-62174641D01*
X75417250Y-62148250D01*
X75417250Y-61609750D01*
X75418547Y-61583359D01*
X75422424Y-61557222D01*
X75428844Y-61531591D01*
X75437745Y-61506712D01*
X75449043Y-61482826D01*
X75462627Y-61460163D01*
X75478367Y-61438940D01*
X75496111Y-61419361D01*
X75515690Y-61401617D01*
X75536913Y-61385877D01*
X75559576Y-61372293D01*
X75583462Y-61360995D01*
X75608341Y-61352094D01*
X75633972Y-61345674D01*
X75660109Y-61341797D01*
X75686500Y-61340500D01*
X76650000Y-61340500D01*
X76676391Y-61341797D01*
X76676391Y-61341797D01*
G37*
D19*
X76168250Y-61879000D03*
D18*
G36*
X76676391Y-63216797D02*
G01*
X76702528Y-63220674D01*
X76728159Y-63227094D01*
X76753038Y-63235995D01*
X76776924Y-63247293D01*
X76799587Y-63260877D01*
X76820810Y-63276617D01*
X76840389Y-63294361D01*
X76858133Y-63313940D01*
X76873873Y-63335163D01*
X76887457Y-63357826D01*
X76898755Y-63381712D01*
X76907656Y-63406591D01*
X76914076Y-63432222D01*
X76917953Y-63458359D01*
X76919250Y-63484750D01*
X76919250Y-64023250D01*
X76917953Y-64049641D01*
X76914076Y-64075778D01*
X76907656Y-64101409D01*
X76898755Y-64126288D01*
X76887457Y-64150174D01*
X76873873Y-64172837D01*
X76858133Y-64194060D01*
X76840389Y-64213639D01*
X76820810Y-64231383D01*
X76799587Y-64247123D01*
X76776924Y-64260707D01*
X76753038Y-64272005D01*
X76728159Y-64280906D01*
X76702528Y-64287326D01*
X76676391Y-64291203D01*
X76650000Y-64292500D01*
X75686500Y-64292500D01*
X75660109Y-64291203D01*
X75633972Y-64287326D01*
X75608341Y-64280906D01*
X75583462Y-64272005D01*
X75559576Y-64260707D01*
X75536913Y-64247123D01*
X75515690Y-64231383D01*
X75496111Y-64213639D01*
X75478367Y-64194060D01*
X75462627Y-64172837D01*
X75449043Y-64150174D01*
X75437745Y-64126288D01*
X75428844Y-64101409D01*
X75422424Y-64075778D01*
X75418547Y-64049641D01*
X75417250Y-64023250D01*
X75417250Y-63484750D01*
X75418547Y-63458359D01*
X75422424Y-63432222D01*
X75428844Y-63406591D01*
X75437745Y-63381712D01*
X75449043Y-63357826D01*
X75462627Y-63335163D01*
X75478367Y-63313940D01*
X75496111Y-63294361D01*
X75515690Y-63276617D01*
X75536913Y-63260877D01*
X75559576Y-63247293D01*
X75583462Y-63235995D01*
X75608341Y-63227094D01*
X75633972Y-63220674D01*
X75660109Y-63216797D01*
X75686500Y-63215500D01*
X76650000Y-63215500D01*
X76676391Y-63216797D01*
X76676391Y-63216797D01*
G37*
D19*
X76168250Y-63754000D03*
D18*
G36*
X64051391Y-75323297D02*
G01*
X64077528Y-75327174D01*
X64103159Y-75333594D01*
X64128038Y-75342495D01*
X64151924Y-75353793D01*
X64174587Y-75367377D01*
X64195810Y-75383117D01*
X64215389Y-75400861D01*
X64233133Y-75420440D01*
X64248873Y-75441663D01*
X64262457Y-75464326D01*
X64273755Y-75488212D01*
X64282656Y-75513091D01*
X64289076Y-75538722D01*
X64292953Y-75564859D01*
X64294250Y-75591250D01*
X64294250Y-76554750D01*
X64292953Y-76581141D01*
X64289076Y-76607278D01*
X64282656Y-76632909D01*
X64273755Y-76657788D01*
X64262457Y-76681674D01*
X64248873Y-76704337D01*
X64233133Y-76725560D01*
X64215389Y-76745139D01*
X64195810Y-76762883D01*
X64174587Y-76778623D01*
X64151924Y-76792207D01*
X64128038Y-76803505D01*
X64103159Y-76812406D01*
X64077528Y-76818826D01*
X64051391Y-76822703D01*
X64025000Y-76824000D01*
X63486500Y-76824000D01*
X63460109Y-76822703D01*
X63433972Y-76818826D01*
X63408341Y-76812406D01*
X63383462Y-76803505D01*
X63359576Y-76792207D01*
X63336913Y-76778623D01*
X63315690Y-76762883D01*
X63296111Y-76745139D01*
X63278367Y-76725560D01*
X63262627Y-76704337D01*
X63249043Y-76681674D01*
X63237745Y-76657788D01*
X63228844Y-76632909D01*
X63222424Y-76607278D01*
X63218547Y-76581141D01*
X63217250Y-76554750D01*
X63217250Y-75591250D01*
X63218547Y-75564859D01*
X63222424Y-75538722D01*
X63228844Y-75513091D01*
X63237745Y-75488212D01*
X63249043Y-75464326D01*
X63262627Y-75441663D01*
X63278367Y-75420440D01*
X63296111Y-75400861D01*
X63315690Y-75383117D01*
X63336913Y-75367377D01*
X63359576Y-75353793D01*
X63383462Y-75342495D01*
X63408341Y-75333594D01*
X63433972Y-75327174D01*
X63460109Y-75323297D01*
X63486500Y-75322000D01*
X64025000Y-75322000D01*
X64051391Y-75323297D01*
X64051391Y-75323297D01*
G37*
D19*
X63755750Y-76073000D03*
D18*
G36*
X62176391Y-75323297D02*
G01*
X62202528Y-75327174D01*
X62228159Y-75333594D01*
X62253038Y-75342495D01*
X62276924Y-75353793D01*
X62299587Y-75367377D01*
X62320810Y-75383117D01*
X62340389Y-75400861D01*
X62358133Y-75420440D01*
X62373873Y-75441663D01*
X62387457Y-75464326D01*
X62398755Y-75488212D01*
X62407656Y-75513091D01*
X62414076Y-75538722D01*
X62417953Y-75564859D01*
X62419250Y-75591250D01*
X62419250Y-76554750D01*
X62417953Y-76581141D01*
X62414076Y-76607278D01*
X62407656Y-76632909D01*
X62398755Y-76657788D01*
X62387457Y-76681674D01*
X62373873Y-76704337D01*
X62358133Y-76725560D01*
X62340389Y-76745139D01*
X62320810Y-76762883D01*
X62299587Y-76778623D01*
X62276924Y-76792207D01*
X62253038Y-76803505D01*
X62228159Y-76812406D01*
X62202528Y-76818826D01*
X62176391Y-76822703D01*
X62150000Y-76824000D01*
X61611500Y-76824000D01*
X61585109Y-76822703D01*
X61558972Y-76818826D01*
X61533341Y-76812406D01*
X61508462Y-76803505D01*
X61484576Y-76792207D01*
X61461913Y-76778623D01*
X61440690Y-76762883D01*
X61421111Y-76745139D01*
X61403367Y-76725560D01*
X61387627Y-76704337D01*
X61374043Y-76681674D01*
X61362745Y-76657788D01*
X61353844Y-76632909D01*
X61347424Y-76607278D01*
X61343547Y-76581141D01*
X61342250Y-76554750D01*
X61342250Y-75591250D01*
X61343547Y-75564859D01*
X61347424Y-75538722D01*
X61353844Y-75513091D01*
X61362745Y-75488212D01*
X61374043Y-75464326D01*
X61387627Y-75441663D01*
X61403367Y-75420440D01*
X61421111Y-75400861D01*
X61440690Y-75383117D01*
X61461913Y-75367377D01*
X61484576Y-75353793D01*
X61508462Y-75342495D01*
X61533341Y-75333594D01*
X61558972Y-75327174D01*
X61585109Y-75323297D01*
X61611500Y-75322000D01*
X62150000Y-75322000D01*
X62176391Y-75323297D01*
X62176391Y-75323297D01*
G37*
D19*
X61880750Y-76073000D03*
D18*
G36*
X54991141Y-69438047D02*
G01*
X55017278Y-69441924D01*
X55042909Y-69448344D01*
X55067788Y-69457245D01*
X55091674Y-69468543D01*
X55114337Y-69482127D01*
X55135560Y-69497867D01*
X55155139Y-69515611D01*
X55172883Y-69535190D01*
X55188623Y-69556413D01*
X55202207Y-69579076D01*
X55213505Y-69602962D01*
X55222406Y-69627841D01*
X55228826Y-69653472D01*
X55232703Y-69679609D01*
X55234000Y-69706000D01*
X55234000Y-70244500D01*
X55232703Y-70270891D01*
X55228826Y-70297028D01*
X55222406Y-70322659D01*
X55213505Y-70347538D01*
X55202207Y-70371424D01*
X55188623Y-70394087D01*
X55172883Y-70415310D01*
X55155139Y-70434889D01*
X55135560Y-70452633D01*
X55114337Y-70468373D01*
X55091674Y-70481957D01*
X55067788Y-70493255D01*
X55042909Y-70502156D01*
X55017278Y-70508576D01*
X54991141Y-70512453D01*
X54964750Y-70513750D01*
X54001250Y-70513750D01*
X53974859Y-70512453D01*
X53948722Y-70508576D01*
X53923091Y-70502156D01*
X53898212Y-70493255D01*
X53874326Y-70481957D01*
X53851663Y-70468373D01*
X53830440Y-70452633D01*
X53810861Y-70434889D01*
X53793117Y-70415310D01*
X53777377Y-70394087D01*
X53763793Y-70371424D01*
X53752495Y-70347538D01*
X53743594Y-70322659D01*
X53737174Y-70297028D01*
X53733297Y-70270891D01*
X53732000Y-70244500D01*
X53732000Y-69706000D01*
X53733297Y-69679609D01*
X53737174Y-69653472D01*
X53743594Y-69627841D01*
X53752495Y-69602962D01*
X53763793Y-69579076D01*
X53777377Y-69556413D01*
X53793117Y-69535190D01*
X53810861Y-69515611D01*
X53830440Y-69497867D01*
X53851663Y-69482127D01*
X53874326Y-69468543D01*
X53898212Y-69457245D01*
X53923091Y-69448344D01*
X53948722Y-69441924D01*
X53974859Y-69438047D01*
X54001250Y-69436750D01*
X54964750Y-69436750D01*
X54991141Y-69438047D01*
X54991141Y-69438047D01*
G37*
D19*
X54483000Y-69975250D03*
D18*
G36*
X54991141Y-71313047D02*
G01*
X55017278Y-71316924D01*
X55042909Y-71323344D01*
X55067788Y-71332245D01*
X55091674Y-71343543D01*
X55114337Y-71357127D01*
X55135560Y-71372867D01*
X55155139Y-71390611D01*
X55172883Y-71410190D01*
X55188623Y-71431413D01*
X55202207Y-71454076D01*
X55213505Y-71477962D01*
X55222406Y-71502841D01*
X55228826Y-71528472D01*
X55232703Y-71554609D01*
X55234000Y-71581000D01*
X55234000Y-72119500D01*
X55232703Y-72145891D01*
X55228826Y-72172028D01*
X55222406Y-72197659D01*
X55213505Y-72222538D01*
X55202207Y-72246424D01*
X55188623Y-72269087D01*
X55172883Y-72290310D01*
X55155139Y-72309889D01*
X55135560Y-72327633D01*
X55114337Y-72343373D01*
X55091674Y-72356957D01*
X55067788Y-72368255D01*
X55042909Y-72377156D01*
X55017278Y-72383576D01*
X54991141Y-72387453D01*
X54964750Y-72388750D01*
X54001250Y-72388750D01*
X53974859Y-72387453D01*
X53948722Y-72383576D01*
X53923091Y-72377156D01*
X53898212Y-72368255D01*
X53874326Y-72356957D01*
X53851663Y-72343373D01*
X53830440Y-72327633D01*
X53810861Y-72309889D01*
X53793117Y-72290310D01*
X53777377Y-72269087D01*
X53763793Y-72246424D01*
X53752495Y-72222538D01*
X53743594Y-72197659D01*
X53737174Y-72172028D01*
X53733297Y-72145891D01*
X53732000Y-72119500D01*
X53732000Y-71581000D01*
X53733297Y-71554609D01*
X53737174Y-71528472D01*
X53743594Y-71502841D01*
X53752495Y-71477962D01*
X53763793Y-71454076D01*
X53777377Y-71431413D01*
X53793117Y-71410190D01*
X53810861Y-71390611D01*
X53830440Y-71372867D01*
X53851663Y-71357127D01*
X53874326Y-71343543D01*
X53898212Y-71332245D01*
X53923091Y-71323344D01*
X53948722Y-71316924D01*
X53974859Y-71313047D01*
X54001250Y-71311750D01*
X54964750Y-71311750D01*
X54991141Y-71313047D01*
X54991141Y-71313047D01*
G37*
D19*
X54483000Y-71850250D03*
M02*
