G04 #@! TF.GenerationSoftware,KiCad,Pcbnew,(5.1.4)-1*
G04 #@! TF.CreationDate,2020-08-06T20:10:08-07:00*
G04 #@! TF.ProjectId,ai03-pcb-guide,61693033-2d70-4636-922d-67756964652e,rev?*
G04 #@! TF.SameCoordinates,Original*
G04 #@! TF.FileFunction,Legend,Top*
G04 #@! TF.FilePolarity,Positive*
%FSLAX46Y46*%
G04 Gerber Fmt 4.6, Leading zero omitted, Abs format (unit mm)*
G04 Created by KiCad (PCBNEW (5.1.4)-1) date 2020-08-06 20:10:08*
%MOMM*%
%LPD*%
G04 APERTURE LIST*
%ADD10C,0.150000*%
%ADD11O,1.802000X2.802000*%
%ADD12C,1.852000*%
%ADD13C,4.089800*%
G04 APERTURE END LIST*
D10*
X36608630Y-82478571D02*
X36941964Y-82478571D01*
X37084821Y-83002380D02*
X36608630Y-83002380D01*
X36608630Y-82002380D01*
X37084821Y-82002380D01*
X37656250Y-83002380D02*
X37561011Y-82954761D01*
X37513392Y-82859523D01*
X37513392Y-82002380D01*
X37989583Y-82954761D02*
X38084821Y-83002380D01*
X38275297Y-83002380D01*
X38370535Y-82954761D01*
X38418154Y-82859523D01*
X38418154Y-82811904D01*
X38370535Y-82716666D01*
X38275297Y-82669047D01*
X38132440Y-82669047D01*
X38037202Y-82621428D01*
X37989583Y-82526190D01*
X37989583Y-82478571D01*
X38037202Y-82383333D01*
X38132440Y-82335714D01*
X38275297Y-82335714D01*
X38370535Y-82383333D01*
X38846726Y-83002380D02*
X38846726Y-82002380D01*
X38846726Y-82383333D02*
X38941964Y-82335714D01*
X39132440Y-82335714D01*
X39227678Y-82383333D01*
X39275297Y-82430952D01*
X39322916Y-82526190D01*
X39322916Y-82811904D01*
X39275297Y-82907142D01*
X39227678Y-82954761D01*
X39132440Y-83002380D01*
X38941964Y-83002380D01*
X38846726Y-82954761D01*
X39751488Y-83002380D02*
X39751488Y-82335714D01*
X39751488Y-82526190D02*
X39799107Y-82430952D01*
X39846726Y-82383333D01*
X39941964Y-82335714D01*
X40037202Y-82335714D01*
X40751488Y-82954761D02*
X40656250Y-83002380D01*
X40465773Y-83002380D01*
X40370535Y-82954761D01*
X40322916Y-82859523D01*
X40322916Y-82478571D01*
X40370535Y-82383333D01*
X40465773Y-82335714D01*
X40656250Y-82335714D01*
X40751488Y-82383333D01*
X40799107Y-82478571D01*
X40799107Y-82573809D01*
X40322916Y-82669047D01*
X41608630Y-82954761D02*
X41513392Y-83002380D01*
X41322916Y-83002380D01*
X41227678Y-82954761D01*
X41180059Y-82859523D01*
X41180059Y-82478571D01*
X41227678Y-82383333D01*
X41322916Y-82335714D01*
X41513392Y-82335714D01*
X41608630Y-82383333D01*
X41656250Y-82478571D01*
X41656250Y-82573809D01*
X41180059Y-82669047D01*
X42846726Y-82478571D02*
X43180059Y-82478571D01*
X43322916Y-83002380D02*
X42846726Y-83002380D01*
X42846726Y-82002380D01*
X43322916Y-82002380D01*
X43751488Y-82335714D02*
X43751488Y-83002380D01*
X43751488Y-82430952D02*
X43799107Y-82383333D01*
X43894345Y-82335714D01*
X44037202Y-82335714D01*
X44132440Y-82383333D01*
X44180059Y-82478571D01*
X44180059Y-83002380D01*
X44513392Y-82335714D02*
X44894345Y-82335714D01*
X44656250Y-82002380D02*
X44656250Y-82859523D01*
X44703869Y-82954761D01*
X44799107Y-83002380D01*
X44894345Y-83002380D01*
X45608630Y-82954761D02*
X45513392Y-83002380D01*
X45322916Y-83002380D01*
X45227678Y-82954761D01*
X45180059Y-82859523D01*
X45180059Y-82478571D01*
X45227678Y-82383333D01*
X45322916Y-82335714D01*
X45513392Y-82335714D01*
X45608630Y-82383333D01*
X45656250Y-82478571D01*
X45656250Y-82573809D01*
X45180059Y-82669047D01*
X46084821Y-83002380D02*
X46084821Y-82335714D01*
X46084821Y-82526190D02*
X46132440Y-82430952D01*
X46180059Y-82383333D01*
X46275297Y-82335714D01*
X46370535Y-82335714D01*
X46703869Y-82335714D02*
X46703869Y-83335714D01*
X46703869Y-82383333D02*
X46799107Y-82335714D01*
X46989583Y-82335714D01*
X47084821Y-82383333D01*
X47132440Y-82430952D01*
X47180059Y-82526190D01*
X47180059Y-82811904D01*
X47132440Y-82907142D01*
X47084821Y-82954761D01*
X46989583Y-83002380D01*
X46799107Y-83002380D01*
X46703869Y-82954761D01*
X47608630Y-83002380D02*
X47608630Y-82335714D01*
X47608630Y-82526190D02*
X47656250Y-82430952D01*
X47703869Y-82383333D01*
X47799107Y-82335714D01*
X47894345Y-82335714D01*
X48227678Y-83002380D02*
X48227678Y-82335714D01*
X48227678Y-82002380D02*
X48180059Y-82050000D01*
X48227678Y-82097619D01*
X48275297Y-82050000D01*
X48227678Y-82002380D01*
X48227678Y-82097619D01*
X48656250Y-82954761D02*
X48751488Y-83002380D01*
X48941964Y-83002380D01*
X49037202Y-82954761D01*
X49084821Y-82859523D01*
X49084821Y-82811904D01*
X49037202Y-82716666D01*
X48941964Y-82669047D01*
X48799107Y-82669047D01*
X48703869Y-82621428D01*
X48656250Y-82526190D01*
X48656250Y-82478571D01*
X48703869Y-82383333D01*
X48799107Y-82335714D01*
X48941964Y-82335714D01*
X49037202Y-82383333D01*
X49894345Y-82954761D02*
X49799107Y-83002380D01*
X49608630Y-83002380D01*
X49513392Y-82954761D01*
X49465773Y-82859523D01*
X49465773Y-82478571D01*
X49513392Y-82383333D01*
X49608630Y-82335714D01*
X49799107Y-82335714D01*
X49894345Y-82383333D01*
X49941964Y-82478571D01*
X49941964Y-82573809D01*
X49465773Y-82669047D01*
X50322916Y-82954761D02*
X50418154Y-83002380D01*
X50608630Y-83002380D01*
X50703869Y-82954761D01*
X50751488Y-82859523D01*
X50751488Y-82811904D01*
X50703869Y-82716666D01*
X50608630Y-82669047D01*
X50465773Y-82669047D01*
X50370535Y-82621428D01*
X50322916Y-82526190D01*
X50322916Y-82478571D01*
X50370535Y-82383333D01*
X50465773Y-82335714D01*
X50608630Y-82335714D01*
X50703869Y-82383333D01*
%LPC*%
D11*
X39180750Y-49348000D03*
X46480750Y-49348000D03*
X46480750Y-53848000D03*
X39180750Y-53848000D03*
D12*
X113030000Y-76200000D03*
X102870000Y-76200000D03*
D13*
X107950000Y-76200000D03*
D12*
X113030000Y-57150000D03*
X102870000Y-57150000D03*
D13*
X107950000Y-57150000D03*
D12*
X93980000Y-76200000D03*
X83820000Y-76200000D03*
D13*
X88900000Y-76200000D03*
D12*
X93980000Y-57150000D03*
X83820000Y-57150000D03*
D13*
X88900000Y-57150000D03*
M02*
