G04 #@! TF.GenerationSoftware,KiCad,Pcbnew,(5.1.4)-1*
G04 #@! TF.CreationDate,2020-08-06T20:10:08-07:00*
G04 #@! TF.ProjectId,ai03-pcb-guide,61693033-2d70-4636-922d-67756964652e,rev?*
G04 #@! TF.SameCoordinates,Original*
G04 #@! TF.FileFunction,Soldermask,Top*
G04 #@! TF.FilePolarity,Negative*
%FSLAX46Y46*%
G04 Gerber Fmt 4.6, Leading zero omitted, Abs format (unit mm)*
G04 Created by KiCad (PCBNEW (5.1.4)-1) date 2020-08-06 20:10:08*
%MOMM*%
%LPD*%
G04 APERTURE LIST*
%ADD10C,0.100000*%
G04 APERTURE END LIST*
D10*
G36*
X89496474Y-74233684D02*
G01*
X89714474Y-74323983D01*
X89868623Y-74387833D01*
X90203548Y-74611623D01*
X90488377Y-74896452D01*
X90712167Y-75231377D01*
X90744562Y-75309586D01*
X90866316Y-75603526D01*
X90944900Y-75998594D01*
X90944900Y-76401406D01*
X90866316Y-76796474D01*
X90815451Y-76919272D01*
X90712167Y-77168623D01*
X90488377Y-77503548D01*
X90203548Y-77788377D01*
X89868623Y-78012167D01*
X89714474Y-78076017D01*
X89496474Y-78166316D01*
X89101406Y-78244900D01*
X88698594Y-78244900D01*
X88303526Y-78166316D01*
X88085526Y-78076017D01*
X87931377Y-78012167D01*
X87596452Y-77788377D01*
X87311623Y-77503548D01*
X87087833Y-77168623D01*
X86984549Y-76919272D01*
X86933684Y-76796474D01*
X86855100Y-76401406D01*
X86855100Y-75998594D01*
X86933684Y-75603526D01*
X87055438Y-75309586D01*
X87087833Y-75231377D01*
X87311623Y-74896452D01*
X87596452Y-74611623D01*
X87931377Y-74387833D01*
X88085526Y-74323983D01*
X88303526Y-74233684D01*
X88698594Y-74155100D01*
X89101406Y-74155100D01*
X89496474Y-74233684D01*
X89496474Y-74233684D01*
G37*
G36*
X108546474Y-74233684D02*
G01*
X108764474Y-74323983D01*
X108918623Y-74387833D01*
X109253548Y-74611623D01*
X109538377Y-74896452D01*
X109762167Y-75231377D01*
X109794562Y-75309586D01*
X109916316Y-75603526D01*
X109994900Y-75998594D01*
X109994900Y-76401406D01*
X109916316Y-76796474D01*
X109865451Y-76919272D01*
X109762167Y-77168623D01*
X109538377Y-77503548D01*
X109253548Y-77788377D01*
X108918623Y-78012167D01*
X108764474Y-78076017D01*
X108546474Y-78166316D01*
X108151406Y-78244900D01*
X107748594Y-78244900D01*
X107353526Y-78166316D01*
X107135526Y-78076017D01*
X106981377Y-78012167D01*
X106646452Y-77788377D01*
X106361623Y-77503548D01*
X106137833Y-77168623D01*
X106034549Y-76919272D01*
X105983684Y-76796474D01*
X105905100Y-76401406D01*
X105905100Y-75998594D01*
X105983684Y-75603526D01*
X106105438Y-75309586D01*
X106137833Y-75231377D01*
X106361623Y-74896452D01*
X106646452Y-74611623D01*
X106981377Y-74387833D01*
X107135526Y-74323983D01*
X107353526Y-74233684D01*
X107748594Y-74155100D01*
X108151406Y-74155100D01*
X108546474Y-74233684D01*
X108546474Y-74233684D01*
G37*
G36*
X113300104Y-75309585D02*
G01*
X113468626Y-75379389D01*
X113620291Y-75480728D01*
X113749272Y-75609709D01*
X113850611Y-75761374D01*
X113920415Y-75929896D01*
X113956000Y-76108797D01*
X113956000Y-76291203D01*
X113920415Y-76470104D01*
X113850611Y-76638626D01*
X113749272Y-76790291D01*
X113620291Y-76919272D01*
X113468626Y-77020611D01*
X113300104Y-77090415D01*
X113121203Y-77126000D01*
X112938797Y-77126000D01*
X112759896Y-77090415D01*
X112591374Y-77020611D01*
X112439709Y-76919272D01*
X112310728Y-76790291D01*
X112209389Y-76638626D01*
X112139585Y-76470104D01*
X112104000Y-76291203D01*
X112104000Y-76108797D01*
X112139585Y-75929896D01*
X112209389Y-75761374D01*
X112310728Y-75609709D01*
X112439709Y-75480728D01*
X112591374Y-75379389D01*
X112759896Y-75309585D01*
X112938797Y-75274000D01*
X113121203Y-75274000D01*
X113300104Y-75309585D01*
X113300104Y-75309585D01*
G37*
G36*
X103140104Y-75309585D02*
G01*
X103308626Y-75379389D01*
X103460291Y-75480728D01*
X103589272Y-75609709D01*
X103690611Y-75761374D01*
X103760415Y-75929896D01*
X103796000Y-76108797D01*
X103796000Y-76291203D01*
X103760415Y-76470104D01*
X103690611Y-76638626D01*
X103589272Y-76790291D01*
X103460291Y-76919272D01*
X103308626Y-77020611D01*
X103140104Y-77090415D01*
X102961203Y-77126000D01*
X102778797Y-77126000D01*
X102599896Y-77090415D01*
X102431374Y-77020611D01*
X102279709Y-76919272D01*
X102150728Y-76790291D01*
X102049389Y-76638626D01*
X101979585Y-76470104D01*
X101944000Y-76291203D01*
X101944000Y-76108797D01*
X101979585Y-75929896D01*
X102049389Y-75761374D01*
X102150728Y-75609709D01*
X102279709Y-75480728D01*
X102431374Y-75379389D01*
X102599896Y-75309585D01*
X102778797Y-75274000D01*
X102961203Y-75274000D01*
X103140104Y-75309585D01*
X103140104Y-75309585D01*
G37*
G36*
X94250104Y-75309585D02*
G01*
X94418626Y-75379389D01*
X94570291Y-75480728D01*
X94699272Y-75609709D01*
X94800611Y-75761374D01*
X94870415Y-75929896D01*
X94906000Y-76108797D01*
X94906000Y-76291203D01*
X94870415Y-76470104D01*
X94800611Y-76638626D01*
X94699272Y-76790291D01*
X94570291Y-76919272D01*
X94418626Y-77020611D01*
X94250104Y-77090415D01*
X94071203Y-77126000D01*
X93888797Y-77126000D01*
X93709896Y-77090415D01*
X93541374Y-77020611D01*
X93389709Y-76919272D01*
X93260728Y-76790291D01*
X93159389Y-76638626D01*
X93089585Y-76470104D01*
X93054000Y-76291203D01*
X93054000Y-76108797D01*
X93089585Y-75929896D01*
X93159389Y-75761374D01*
X93260728Y-75609709D01*
X93389709Y-75480728D01*
X93541374Y-75379389D01*
X93709896Y-75309585D01*
X93888797Y-75274000D01*
X94071203Y-75274000D01*
X94250104Y-75309585D01*
X94250104Y-75309585D01*
G37*
G36*
X84090104Y-75309585D02*
G01*
X84258626Y-75379389D01*
X84410291Y-75480728D01*
X84539272Y-75609709D01*
X84640611Y-75761374D01*
X84710415Y-75929896D01*
X84746000Y-76108797D01*
X84746000Y-76291203D01*
X84710415Y-76470104D01*
X84640611Y-76638626D01*
X84539272Y-76790291D01*
X84410291Y-76919272D01*
X84258626Y-77020611D01*
X84090104Y-77090415D01*
X83911203Y-77126000D01*
X83728797Y-77126000D01*
X83549896Y-77090415D01*
X83381374Y-77020611D01*
X83229709Y-76919272D01*
X83100728Y-76790291D01*
X82999389Y-76638626D01*
X82929585Y-76470104D01*
X82894000Y-76291203D01*
X82894000Y-76108797D01*
X82929585Y-75929896D01*
X82999389Y-75761374D01*
X83100728Y-75609709D01*
X83229709Y-75480728D01*
X83381374Y-75379389D01*
X83549896Y-75309585D01*
X83728797Y-75274000D01*
X83911203Y-75274000D01*
X84090104Y-75309585D01*
X84090104Y-75309585D01*
G37*
G36*
X89496474Y-55183684D02*
G01*
X89622686Y-55235963D01*
X89868623Y-55337833D01*
X90203548Y-55561623D01*
X90488377Y-55846452D01*
X90712167Y-56181377D01*
X90744562Y-56259586D01*
X90866316Y-56553526D01*
X90944900Y-56948594D01*
X90944900Y-57351406D01*
X90866316Y-57746474D01*
X90815451Y-57869272D01*
X90712167Y-58118623D01*
X90488377Y-58453548D01*
X90203548Y-58738377D01*
X89868623Y-58962167D01*
X89714474Y-59026017D01*
X89496474Y-59116316D01*
X89101406Y-59194900D01*
X88698594Y-59194900D01*
X88303526Y-59116316D01*
X88085526Y-59026017D01*
X87931377Y-58962167D01*
X87596452Y-58738377D01*
X87311623Y-58453548D01*
X87087833Y-58118623D01*
X86984549Y-57869272D01*
X86933684Y-57746474D01*
X86855100Y-57351406D01*
X86855100Y-56948594D01*
X86933684Y-56553526D01*
X87055438Y-56259586D01*
X87087833Y-56181377D01*
X87311623Y-55846452D01*
X87596452Y-55561623D01*
X87931377Y-55337833D01*
X88177314Y-55235963D01*
X88303526Y-55183684D01*
X88698594Y-55105100D01*
X89101406Y-55105100D01*
X89496474Y-55183684D01*
X89496474Y-55183684D01*
G37*
G36*
X108546474Y-55183684D02*
G01*
X108672686Y-55235963D01*
X108918623Y-55337833D01*
X109253548Y-55561623D01*
X109538377Y-55846452D01*
X109762167Y-56181377D01*
X109794562Y-56259586D01*
X109916316Y-56553526D01*
X109994900Y-56948594D01*
X109994900Y-57351406D01*
X109916316Y-57746474D01*
X109865451Y-57869272D01*
X109762167Y-58118623D01*
X109538377Y-58453548D01*
X109253548Y-58738377D01*
X108918623Y-58962167D01*
X108764474Y-59026017D01*
X108546474Y-59116316D01*
X108151406Y-59194900D01*
X107748594Y-59194900D01*
X107353526Y-59116316D01*
X107135526Y-59026017D01*
X106981377Y-58962167D01*
X106646452Y-58738377D01*
X106361623Y-58453548D01*
X106137833Y-58118623D01*
X106034549Y-57869272D01*
X105983684Y-57746474D01*
X105905100Y-57351406D01*
X105905100Y-56948594D01*
X105983684Y-56553526D01*
X106105438Y-56259586D01*
X106137833Y-56181377D01*
X106361623Y-55846452D01*
X106646452Y-55561623D01*
X106981377Y-55337833D01*
X107227314Y-55235963D01*
X107353526Y-55183684D01*
X107748594Y-55105100D01*
X108151406Y-55105100D01*
X108546474Y-55183684D01*
X108546474Y-55183684D01*
G37*
G36*
X113300104Y-56259585D02*
G01*
X113468626Y-56329389D01*
X113620291Y-56430728D01*
X113749272Y-56559709D01*
X113850611Y-56711374D01*
X113920415Y-56879896D01*
X113956000Y-57058797D01*
X113956000Y-57241203D01*
X113920415Y-57420104D01*
X113850611Y-57588626D01*
X113749272Y-57740291D01*
X113620291Y-57869272D01*
X113468626Y-57970611D01*
X113300104Y-58040415D01*
X113121203Y-58076000D01*
X112938797Y-58076000D01*
X112759896Y-58040415D01*
X112591374Y-57970611D01*
X112439709Y-57869272D01*
X112310728Y-57740291D01*
X112209389Y-57588626D01*
X112139585Y-57420104D01*
X112104000Y-57241203D01*
X112104000Y-57058797D01*
X112139585Y-56879896D01*
X112209389Y-56711374D01*
X112310728Y-56559709D01*
X112439709Y-56430728D01*
X112591374Y-56329389D01*
X112759896Y-56259585D01*
X112938797Y-56224000D01*
X113121203Y-56224000D01*
X113300104Y-56259585D01*
X113300104Y-56259585D01*
G37*
G36*
X84090104Y-56259585D02*
G01*
X84258626Y-56329389D01*
X84410291Y-56430728D01*
X84539272Y-56559709D01*
X84640611Y-56711374D01*
X84710415Y-56879896D01*
X84746000Y-57058797D01*
X84746000Y-57241203D01*
X84710415Y-57420104D01*
X84640611Y-57588626D01*
X84539272Y-57740291D01*
X84410291Y-57869272D01*
X84258626Y-57970611D01*
X84090104Y-58040415D01*
X83911203Y-58076000D01*
X83728797Y-58076000D01*
X83549896Y-58040415D01*
X83381374Y-57970611D01*
X83229709Y-57869272D01*
X83100728Y-57740291D01*
X82999389Y-57588626D01*
X82929585Y-57420104D01*
X82894000Y-57241203D01*
X82894000Y-57058797D01*
X82929585Y-56879896D01*
X82999389Y-56711374D01*
X83100728Y-56559709D01*
X83229709Y-56430728D01*
X83381374Y-56329389D01*
X83549896Y-56259585D01*
X83728797Y-56224000D01*
X83911203Y-56224000D01*
X84090104Y-56259585D01*
X84090104Y-56259585D01*
G37*
G36*
X94250104Y-56259585D02*
G01*
X94418626Y-56329389D01*
X94570291Y-56430728D01*
X94699272Y-56559709D01*
X94800611Y-56711374D01*
X94870415Y-56879896D01*
X94906000Y-57058797D01*
X94906000Y-57241203D01*
X94870415Y-57420104D01*
X94800611Y-57588626D01*
X94699272Y-57740291D01*
X94570291Y-57869272D01*
X94418626Y-57970611D01*
X94250104Y-58040415D01*
X94071203Y-58076000D01*
X93888797Y-58076000D01*
X93709896Y-58040415D01*
X93541374Y-57970611D01*
X93389709Y-57869272D01*
X93260728Y-57740291D01*
X93159389Y-57588626D01*
X93089585Y-57420104D01*
X93054000Y-57241203D01*
X93054000Y-57058797D01*
X93089585Y-56879896D01*
X93159389Y-56711374D01*
X93260728Y-56559709D01*
X93389709Y-56430728D01*
X93541374Y-56329389D01*
X93709896Y-56259585D01*
X93888797Y-56224000D01*
X94071203Y-56224000D01*
X94250104Y-56259585D01*
X94250104Y-56259585D01*
G37*
G36*
X103140104Y-56259585D02*
G01*
X103308626Y-56329389D01*
X103460291Y-56430728D01*
X103589272Y-56559709D01*
X103690611Y-56711374D01*
X103760415Y-56879896D01*
X103796000Y-57058797D01*
X103796000Y-57241203D01*
X103760415Y-57420104D01*
X103690611Y-57588626D01*
X103589272Y-57740291D01*
X103460291Y-57869272D01*
X103308626Y-57970611D01*
X103140104Y-58040415D01*
X102961203Y-58076000D01*
X102778797Y-58076000D01*
X102599896Y-58040415D01*
X102431374Y-57970611D01*
X102279709Y-57869272D01*
X102150728Y-57740291D01*
X102049389Y-57588626D01*
X101979585Y-57420104D01*
X101944000Y-57241203D01*
X101944000Y-57058797D01*
X101979585Y-56879896D01*
X102049389Y-56711374D01*
X102150728Y-56559709D01*
X102279709Y-56430728D01*
X102431374Y-56329389D01*
X102599896Y-56259585D01*
X102778797Y-56224000D01*
X102961203Y-56224000D01*
X103140104Y-56259585D01*
X103140104Y-56259585D01*
G37*
G36*
X39357377Y-52460037D02*
G01*
X39527216Y-52511557D01*
X39683741Y-52595222D01*
X39719479Y-52624552D01*
X39820936Y-52707814D01*
X39904198Y-52809271D01*
X39933528Y-52845009D01*
X40017193Y-53001534D01*
X40068713Y-53171373D01*
X40081750Y-53303742D01*
X40081750Y-54392258D01*
X40068713Y-54524627D01*
X40017193Y-54694466D01*
X39933528Y-54850991D01*
X39904198Y-54886729D01*
X39820936Y-54988186D01*
X39683739Y-55100779D01*
X39528635Y-55183684D01*
X39527215Y-55184443D01*
X39357376Y-55235963D01*
X39180750Y-55253359D01*
X39004123Y-55235963D01*
X38834284Y-55184443D01*
X38677759Y-55100778D01*
X38642021Y-55071448D01*
X38540564Y-54988186D01*
X38427971Y-54850989D01*
X38344308Y-54694467D01*
X38344307Y-54694465D01*
X38292787Y-54524626D01*
X38279750Y-54392257D01*
X38279751Y-53303742D01*
X38292788Y-53171373D01*
X38344308Y-53001534D01*
X38427973Y-52845009D01*
X38457303Y-52809271D01*
X38540565Y-52707814D01*
X38642022Y-52624552D01*
X38677760Y-52595222D01*
X38834285Y-52511557D01*
X39004124Y-52460037D01*
X39180750Y-52442641D01*
X39357377Y-52460037D01*
X39357377Y-52460037D01*
G37*
G36*
X46657377Y-52460037D02*
G01*
X46827216Y-52511557D01*
X46983741Y-52595222D01*
X47019479Y-52624552D01*
X47120936Y-52707814D01*
X47204198Y-52809271D01*
X47233528Y-52845009D01*
X47317193Y-53001534D01*
X47368713Y-53171373D01*
X47381750Y-53303742D01*
X47381750Y-54392258D01*
X47368713Y-54524627D01*
X47317193Y-54694466D01*
X47233528Y-54850991D01*
X47204198Y-54886729D01*
X47120936Y-54988186D01*
X46983739Y-55100779D01*
X46828635Y-55183684D01*
X46827215Y-55184443D01*
X46657376Y-55235963D01*
X46480750Y-55253359D01*
X46304123Y-55235963D01*
X46134284Y-55184443D01*
X45977759Y-55100778D01*
X45942021Y-55071448D01*
X45840564Y-54988186D01*
X45727971Y-54850989D01*
X45644308Y-54694467D01*
X45644307Y-54694465D01*
X45592787Y-54524626D01*
X45579750Y-54392257D01*
X45579751Y-53303742D01*
X45592788Y-53171373D01*
X45644308Y-53001534D01*
X45727973Y-52845009D01*
X45757303Y-52809271D01*
X45840565Y-52707814D01*
X45942022Y-52624552D01*
X45977760Y-52595222D01*
X46134285Y-52511557D01*
X46304124Y-52460037D01*
X46480750Y-52442641D01*
X46657377Y-52460037D01*
X46657377Y-52460037D01*
G37*
G36*
X39357377Y-47960037D02*
G01*
X39527216Y-48011557D01*
X39683741Y-48095222D01*
X39719479Y-48124552D01*
X39820936Y-48207814D01*
X39904198Y-48309271D01*
X39933528Y-48345009D01*
X40017193Y-48501534D01*
X40068713Y-48671373D01*
X40081750Y-48803742D01*
X40081750Y-49892258D01*
X40068713Y-50024627D01*
X40017193Y-50194466D01*
X39933528Y-50350991D01*
X39904198Y-50386729D01*
X39820936Y-50488186D01*
X39683739Y-50600779D01*
X39527217Y-50684442D01*
X39527215Y-50684443D01*
X39357376Y-50735963D01*
X39180750Y-50753359D01*
X39004123Y-50735963D01*
X38834284Y-50684443D01*
X38677759Y-50600778D01*
X38642021Y-50571448D01*
X38540564Y-50488186D01*
X38427971Y-50350989D01*
X38344308Y-50194467D01*
X38344307Y-50194465D01*
X38292787Y-50024626D01*
X38279750Y-49892257D01*
X38279751Y-48803742D01*
X38292788Y-48671373D01*
X38344308Y-48501534D01*
X38427973Y-48345009D01*
X38457303Y-48309271D01*
X38540565Y-48207814D01*
X38642022Y-48124552D01*
X38677760Y-48095222D01*
X38834285Y-48011557D01*
X39004124Y-47960037D01*
X39180750Y-47942641D01*
X39357377Y-47960037D01*
X39357377Y-47960037D01*
G37*
G36*
X46657377Y-47960037D02*
G01*
X46827216Y-48011557D01*
X46983741Y-48095222D01*
X47019479Y-48124552D01*
X47120936Y-48207814D01*
X47204198Y-48309271D01*
X47233528Y-48345009D01*
X47317193Y-48501534D01*
X47368713Y-48671373D01*
X47381750Y-48803742D01*
X47381750Y-49892258D01*
X47368713Y-50024627D01*
X47317193Y-50194466D01*
X47233528Y-50350991D01*
X47204198Y-50386729D01*
X47120936Y-50488186D01*
X46983739Y-50600779D01*
X46827217Y-50684442D01*
X46827215Y-50684443D01*
X46657376Y-50735963D01*
X46480750Y-50753359D01*
X46304123Y-50735963D01*
X46134284Y-50684443D01*
X45977759Y-50600778D01*
X45942021Y-50571448D01*
X45840564Y-50488186D01*
X45727971Y-50350989D01*
X45644308Y-50194467D01*
X45644307Y-50194465D01*
X45592787Y-50024626D01*
X45579750Y-49892257D01*
X45579751Y-48803742D01*
X45592788Y-48671373D01*
X45644308Y-48501534D01*
X45727973Y-48345009D01*
X45757303Y-48309271D01*
X45840565Y-48207814D01*
X45942022Y-48124552D01*
X45977760Y-48095222D01*
X46134285Y-48011557D01*
X46304124Y-47960037D01*
X46480750Y-47942641D01*
X46657377Y-47960037D01*
X46657377Y-47960037D01*
G37*
M02*
